<?xml version="1.0" standalone="no"?>
<!DOCTYPE svg PUBLIC "-//W3C//DTD SVG 1.1//EN" "http://www.w3.org/Graphics/SVG/1.1/DTD/svg11.dtd" >
<svg xmlns="http://www.w3.org/2000/svg" xmlns:xlink="http://www.w3.org/1999/xlink" version="1.1">
<metadata>
Created by FontForge 20170731 at Thu Apr 21 23:02:56 2016
 By Aleksey,,,
Copyright (C)2015 Commercial Type.
</metadata>
<defs>
<font id="GraphikLC-Regular" horiz-adv-x="604" >
  <font-face 
    font-family="Graphik RBC LC Regular"
    font-weight="400"
    font-stretch="normal"
    units-per-em="1000"
    panose-1="2 11 5 3 3 2 2 6 2 3"
    ascent="818"
    descent="-182"
    x-height="523"
    cap-height="715"
    bbox="-18 -214 985 967"
    underline-thickness="66"
    underline-position="-224"
    unicode-range="U+0020-0491"
  />
<missing-glyph horiz-adv-x="364" 
d="M33 0v666h265v-666h-265zM66 33h199v600h-199v-600z" />
    <glyph glyph-name=".notdef" horiz-adv-x="364" 
d="M33 0v666h265v-666h-265zM66 33h199v600h-199v-600z" />
    <glyph glyph-name=".null" horiz-adv-x="0" 
 />
    <glyph glyph-name="nonmarkingreturn" horiz-adv-x="333" 
 />
    <glyph glyph-name="space" unicode=" " horiz-adv-x="265" 
 />
    <glyph glyph-name="exclam" unicode="!" horiz-adv-x="286" 
d="M112 202l-14 513h92l-14 -513h-64zM143 -5q-39 0 -57 35q-7 14 -7 29q0 39 35 57q14 7 29 7q39 0 57 -35q7 -14 7 -29q0 -39 -35 -57q-14 -7 -29 -7z" />
    <glyph glyph-name="quotedbl" unicode="&#x22;" horiz-adv-x="375" 
d="M239 470l-15 245h90l-15 -245h-60zM76 470l-15 245h90l-15 -245h-60z" />
    <glyph glyph-name="numbersign" unicode="#" horiz-adv-x="503" 
d="M211 484l-19 -132h97l19 132h-97zM252 99l26 183h-97l-26 -183h-68l26 183h-83v70h94l19 132h-85v70h95l24 161h68l-24 -161h97l24 161h68l-24 -161h87v-70h-97l-19 -132h88v-70h-99l-26 -183h-68z" />
    <glyph glyph-name="dollar" unicode="$" horiz-adv-x="627" 
d="M153 538q0 -62 40 -90q31 -21 92 -34v241q-92 -8 -122 -71q-10 -22 -10 -46zM484 196q0 69 -47 99q-32 20 -93 33v-268q82 8 120 68q20 31 20 68zM285 -135v127q-217 17 -240 226h84q12 -91 58 -126q37 -26 98 -32v278q-146 28 -189 99q-22 39 -22 93q0 93 80 149
q55 39 131 44v90h59v-91q150 -14 194 -135q10 -28 14 -60h-78q-20 105 -115 124q-8 2 -15 3v-250q144 -26 191 -88q32 -44 32 -114q0 -99 -81 -160q-60 -45 -142 -50v-127h-59z" />
    <glyph glyph-name="percent" unicode="%" horiz-adv-x="784" 
d="M198 383q-75 0 -125 59q-39 47 -39 108q0 86 66 137q44 34 98 34q79 0 128 -62q36 -47 36 -107q0 -86 -66 -136q-45 -33 -98 -33zM135 0l437 715h76l-437 -715h-76zM198 448q67 0 84 66q4 18 4 38q0 76 -54 98q-16 6 -34 6q-65 0 -83 -63q-5 -20 -5 -42q0 -83 62 -100
q13 -3 26 -3zM586 -8q-75 0 -125 59q-39 47 -39 108q0 86 66 137q44 34 98 34q79 0 128 -62q36 -47 36 -107q0 -86 -66 -136q-45 -33 -98 -33zM586 57q67 0 84 66q4 18 4 38q0 76 -54 98q-16 6 -34 6q-65 0 -83 -63q-5 -20 -5 -42q0 -83 62 -100q13 -3 26 -3z" />
    <glyph glyph-name="ampersand" unicode="&#x26;" horiz-adv-x="686" 
d="M232 554q0 -42 57 -115q3 -3 5 -6q82 37 102 86q9 24 9 55q0 51 -43 72q-18 8 -38 8q-66 0 -86 -58q-6 -19 -6 -42zM280 61q88 1 152 78l-178 217q-87 -42 -109 -100q-10 -27 -10 -59q0 -96 80 -125q30 -11 65 -11zM644 369l-117 -223l120 -146h-101l-71 86
q-81 -92 -198 -93q-120 0 -184 75q-42 52 -42 121q0 114 108 184q25 16 56 31q-63 81 -63 151q0 97 81 141q43 23 94 23q84 0 129 -61q27 -38 27 -86q-1 -119 -153 -185l150 -183l87 165h77z" />
    <glyph glyph-name="quotesingle" unicode="'" horiz-adv-x="212" 
d="M76 470l-15 245h90l-15 -245h-60z" />
    <glyph glyph-name="parenleft" unicode="(" horiz-adv-x="322" 
d="M219 -148q-166 196 -166 460q1 266 166 461h83q-162 -202 -162 -461q0 -256 159 -456q2 -3 3 -4h-83z" />
    <glyph glyph-name="parenright" unicode=")" horiz-adv-x="322" 
d="M20 -145q162 202 162 461q0 256 -159 456q-2 3 -3 4h83q166 -196 166 -460q-1 -266 -166 -461h-83z" />
    <glyph glyph-name="asterisk" unicode="*" horiz-adv-x="422" 
d="M139 409l-57 41l83 111l-123 29l22 67l118 -48l-7 134h73l-7 -134l117 48l22 -67l-124 -29l83 -111l-56 -41l-74 120z" />
    <glyph glyph-name="plus" unicode="+" horiz-adv-x="519" 
d="M223 105v202h-187v70h187v202h73v-202h187v-70h-187v-202h-73z" />
    <glyph glyph-name="comma" unicode="," horiz-adv-x="282" 
d="M90 -123l-54 28l96 219l81 -38z" />
    <glyph glyph-name="hyphen" unicode="-" horiz-adv-x="334" 
d="M60 236v78h214v-78h-214z" />
    <glyph glyph-name="period" unicode="." horiz-adv-x="282" 
d="M141 -5q-39 0 -57 35q-7 14 -7 29q0 39 35 57q14 7 29 7q39 0 57 -35q7 -14 7 -29q0 -39 -35 -57q-14 -7 -29 -7z" />
    <glyph glyph-name="slash" unicode="/" horiz-adv-x="403" 
d="M6 -148l291 924h76l-291 -924h-76z" />
    <glyph glyph-name="zero" unicode="0" horiz-adv-x="681" 
d="M344 -9q-142 0 -220 114q-64 93 -64 232v40q0 193 107 285q72 62 175 62q149 0 225 -123q54 -90 54 -222v-40q0 -194 -105 -286q-70 -62 -172 -62zM344 63q163 0 186 209q3 32 3 68v40q0 171 -87 239q-45 35 -104 35q-121 0 -168 -122q-25 -65 -25 -154v-40
q0 -193 106 -253q39 -22 89 -22z" />
    <glyph glyph-name="one" unicode="1" horiz-adv-x="399" 
d="M193 0v629l-160 -115v81l166 120h81v-715h-87z" />
    <glyph glyph-name="two" unicode="2" horiz-adv-x="554" 
d="M19 0v20l284 299q103 110 103 207q0 93 -75 120q-24 8 -53 8q-130 0 -151 -157v-2h-81q11 142 112 200q52 29 120 29q128 0 185 -87q31 -49 31 -114q-1 -120 -144 -260l-197 -192h345v-71h-479z" />
    <glyph glyph-name="three" unicode="3" 
d="M290 -9q-137 0 -206 92q-41 55 -44 128h80q11 -115 111 -142q28 -8 61 -8q141 0 160 106q3 15 3 32q-2 138 -151 139h-54v73h50q133 2 134 122q0 80 -66 108q-29 12 -64 12q-96 0 -138 -72q-16 -28 -20 -63h-76q4 98 82 157q64 49 152 49q119 0 179 -81q36 -48 36 -108
q-1 -109 -113 -156q118 -31 135 -144q3 -18 3 -36q0 -115 -99 -171q-65 -37 -155 -37z" />
    <glyph glyph-name="four" unicode="4" horiz-adv-x="617" 
d="M397 0v150h-358v28l327 537h116v-494h99v-71h-99v-150h-85zM149 221h248v428z" />
    <glyph glyph-name="five" unicode="5" horiz-adv-x="587" 
d="M281 -9q-166 0 -219 123q-15 36 -19 79h83q16 -88 69 -115q34 -17 85 -17q101 0 140 84q17 39 17 89q0 103 -70 146q-35 21 -80 21q-108 -2 -169 -69h-32v383h402v-75h-330v-218q54 49 146 49q115 0 177 -85q45 -63 45 -152q0 -129 -94 -197q-65 -46 -151 -46z" />
    <glyph glyph-name="six" unicode="6" horiz-adv-x="619" 
d="M317 -9q-225 0 -253 251q-4 36 -4 74v17q0 237 121 336q67 55 159 55q136 0 188 -105q15 -31 21 -68h-83q-20 83 -91 98q-19 4 -41 4q-107 0 -156 -114q-30 -70 -32 -172q45 76 140 93q22 4 44 4q121 0 187 -87q47 -63 47 -147q0 -130 -93 -195q-64 -44 -154 -44zM317 59
q91 0 134 72q24 41 24 95q0 105 -74 149q-37 21 -85 21q-91 0 -137 -67q-27 -40 -27 -91q0 -118 84 -161q36 -18 81 -18z" />
    <glyph glyph-name="seven" unicode="7" horiz-adv-x="525" 
d="M146 0l249 645h-363v70h471v-12l-268 -703h-89z" />
    <glyph glyph-name="eight" unicode="8" horiz-adv-x="607" 
d="M304 -9q-108 0 -180 63q-66 59 -67 149q0 112 96 167q19 11 39 18q-90 34 -105 119q-3 16 -3 31q0 95 86 149q60 37 134 37q99 0 165 -62q54 -51 54 -122q-1 -103 -110 -151q116 -42 134 -148q3 -18 3 -36q0 -117 -101 -177q-65 -37 -145 -37zM307 419q85 0 116 62
q12 26 12 58q0 67 -60 100q-32 17 -71 17q-79 0 -114 -55q-18 -29 -18 -64q0 -72 66 -103q32 -15 69 -15zM304 62q94 0 135 65q22 35 22 81q0 91 -78 126q-35 16 -77 16q-89 0 -134 -59q-26 -36 -26 -85q0 -87 76 -125q37 -19 82 -19z" />
    <glyph glyph-name="nine" unicode="9" horiz-adv-x="620" 
d="M303 320q94 0 139 67q25 38 25 88q0 117 -82 162q-37 20 -83 20q-91 0 -134 -72q-24 -41 -24 -95q0 -105 74 -149q37 -21 85 -21zM290 -8q-157 0 -211 119q-13 30 -19 65h84q22 -95 109 -110q18 -3 39 -3q136 0 172 169q10 51 11 115q-43 -74 -139 -91q-23 -4 -46 -4
q-119 0 -186 85q-49 63 -49 149q0 130 93 195q64 44 154 44q190 0 240 -182q17 -61 17 -138v-45q0 -250 -135 -333q-58 -35 -134 -35z" />
    <glyph glyph-name="colon" unicode=":" horiz-adv-x="292" 
d="M146 292q-39 0 -57 35q-7 14 -7 29q0 39 35 57q14 7 29 7q39 0 57 -35q7 -14 7 -29q0 -39 -35 -57q-14 -7 -29 -7zM146 -5q-39 0 -57 35q-7 14 -7 29q0 39 35 57q14 7 29 7q39 0 57 -35q7 -14 7 -29q0 -39 -35 -57q-14 -7 -29 -7z" />
    <glyph glyph-name="semicolon" unicode=";" horiz-adv-x="292" 
d="M155 292q-39 0 -57 35q-7 14 -7 29q0 39 35 57q14 7 29 7q39 0 57 -35q7 -14 7 -29q0 -39 -35 -57q-14 -7 -29 -7zM75 -123l-54 28l96 219l81 -38z" />
    <glyph glyph-name="less" unicode="&#x3c;" horiz-adv-x="504" 
d="M437 95l-384 217v20l384 217v-80l-263 -147l263 -147v-80z" />
    <glyph glyph-name="equal" unicode="=" horiz-adv-x="484" 
d="M40 376v72h404v-72h-404zM40 196v72h404v-72h-404z" />
    <glyph glyph-name="greater" unicode="&#x3e;" horiz-adv-x="504" 
d="M67 95v80l263 147l-263 147v80l384 -217v-20z" />
    <glyph glyph-name="question" unicode="?" horiz-adv-x="489" 
d="M179 202v50q0 73 67 144l36 36q57 57 68 92q5 16 5 31q0 83 -77 97q-14 3 -30 3q-82 0 -117 -70q-13 -27 -16 -60h-78q7 109 89 164q53 35 123 35q130 0 174 -91q16 -34 16 -75q0 -68 -66 -136q-11 -11 -32 -31q-61 -58 -77 -94q-11 -26 -11 -52v-43h-74zM214 -5
q-39 0 -57 35q-7 14 -7 29q0 39 35 57q14 7 29 7q39 0 57 -35q7 -14 7 -29q0 -39 -35 -57q-14 -7 -29 -7z" />
    <glyph glyph-name="at" unicode="@" horiz-adv-x="915" 
d="M459 -147q-200 0 -316 134q-98 113 -98 273q0 172 115 294q108 115 266 132q23 2 46 2q183 0 296 -113q102 -103 102 -253q0 -161 -97 -226q-43 -29 -91 -29q-90 0 -110 63q-3 11 -5 23q-35 -63 -102 -85q-24 -8 -47 -8q-98 0 -139 78q-22 42 -22 96q0 115 74 183
q54 49 123 49q89 0 119 -64l2 -4l7 60h83l-30 -252q-9 -78 48 -79q60 0 92 68q23 50 23 125q0 157 -111 239q-85 63 -215 63q-157 0 -256 -106q-94 -101 -94 -254q0 -154 94 -250q93 -93 243 -93q128 0 213 63q12 8 23 18h77q-54 -91 -181 -129q-63 -18 -132 -18zM436 124
q60 0 98 55q30 45 30 108q0 103 -87 112q-9 1 -17 1q-62 0 -95 -63q-23 -43 -23 -102q0 -77 54 -102q19 -9 40 -9z" />
    <glyph glyph-name="A" unicode="A" horiz-adv-x="674" 
d="M335 643l-124 -368h248zM36 0l246 715h114l242 -715h-86l-70 206h-295l-69 -206h-82z" />
    <glyph glyph-name="B" unicode="B" horiz-adv-x="622" 
d="M90 0v715h215q228 -4 230 -185v-4q-2 -114 -108 -151q111 -27 135 -107q8 -28 8 -64v-4q0 -146 -133 -186q-46 -14 -102 -14h-245zM175 403h130q110 0 135 64q10 26 10 62v4q0 90 -86 109q-27 5 -61 5h-128v-244zM175 68h158q151 2 152 133v4q0 104 -101 125q-28 5 -63 5
h-146v-267z" />
    <glyph glyph-name="C" unicode="C" horiz-adv-x="730" 
d="M389 -9q-176 0 -266 125q-68 95 -68 237v8q0 166 103 270q94 95 233 95q146 0 227 -88q54 -59 63 -146h-86q-25 153 -177 164q-13 1 -26 1q-129 0 -197 -104q-50 -77 -50 -191v-8q0 -179 107 -253q59 -39 139 -39q144 0 196 109q14 30 20 66h81q-26 -173 -173 -226
q-57 -20 -126 -20z" />
    <glyph glyph-name="D" unicode="D" horiz-adv-x="696" 
d="M90 0v715h189q216 0 308 -146q54 -86 54 -205v-9q0 -184 -118 -279q-95 -76 -246 -76h-187zM177 71h98q189 0 250 144q26 61 26 141v8q0 207 -157 263q-53 18 -120 18h-97v-574z" />
    <glyph glyph-name="E" unicode="E" horiz-adv-x="566" 
d="M90 0v715h417v-71h-330v-243h266v-71h-266v-259h348v-71h-435z" />
    <glyph glyph-name="F" unicode="F" horiz-adv-x="546" 
d="M90 0v715h418v-71h-331v-253h258v-71h-258v-320h-87z" />
    <glyph glyph-name="G" unicode="G" horiz-adv-x="767" 
d="M401 -9q-181 0 -275 126q-71 96 -71 236v8q0 164 103 268q97 97 243 97q161 0 239 -99q41 -53 52 -128h-87q-29 157 -202 158q-146 0 -214 -116q-44 -74 -44 -179v-8q0 -181 111 -254q60 -39 145 -39q155 0 205 125q18 46 20 103h-209v72h294v-53q0 -187 -128 -269
q-76 -48 -182 -48z" />
    <glyph glyph-name="H" unicode="H" horiz-adv-x="730" 
d="M90 0v715h87v-324h376v324h87v-715h-87v318h-376v-318h-87z" />
    <glyph glyph-name="I" unicode="I" horiz-adv-x="277" 
d="M95 0v715h87v-715h-87z" />
    <glyph glyph-name="J" unicode="J" horiz-adv-x="420" 
d="M138 -9q-64 0 -100 19v72q48 -20 95 -20q115 2 116 136v517h87v-521q0 -143 -110 -187q-40 -16 -88 -16z" />
    <glyph glyph-name="K" unicode="K" horiz-adv-x="616" 
d="M90 0v715h87v-344l311 345h97l-318 -348l334 -368h-105l-319 349v-349h-87z" />
    <glyph glyph-name="L" unicode="L" horiz-adv-x="535" 
d="M90 0v715h87v-644h327v-71h-414z" />
    <glyph glyph-name="M" unicode="M" horiz-adv-x="856" 
d="M90 0v715h121l221 -557l214 557h120v-715h-87v602l-237 -602h-27l-245 602v-602h-80z" />
    <glyph glyph-name="N" unicode="N" horiz-adv-x="724" 
d="M90 0v715h113l348 -591v591h83v-715h-100l-361 613v-613h-83z" />
    <glyph glyph-name="O" unicode="O" horiz-adv-x="811" 
d="M409 -9q-159 0 -260 110q-94 104 -94 252v8q0 157 100 260t252 103q161 0 260 -112q89 -102 89 -249v-8q0 -157 -99 -261q-98 -103 -248 -103zM409 63q137 0 207 107q50 77 50 186v8q0 142 -85 224q-70 66 -174 66q-145 0 -215 -112q-47 -75 -47 -180v-8q0 -143 92 -226
q72 -65 172 -65z" />
    <glyph glyph-name="P" unicode="P" horiz-adv-x="581" 
d="M90 0v715h203q159 0 220 -95q30 -48 30 -114v-4q0 -148 -135 -194q-51 -17 -115 -17h-116v-291h-87zM177 360h122q134 0 154 106q3 17 3 36v4q-2 138 -157 139h-122v-285z" />
    <glyph glyph-name="Q" unicode="Q" horiz-adv-x="811" 
d="M659 -89l-100 112q-68 -32 -150 -32q-159 0 -260 110q-94 104 -94 252v8q0 157 100 260t252 103q161 0 260 -112q89 -102 89 -249v-8q0 -157 -99 -261q-17 -18 -35 -32l90 -100zM409 63q55 0 98 18l-80 90l53 51l91 -103q95 82 95 237v8q0 142 -85 224q-70 66 -174 66
q-145 0 -215 -112q-47 -75 -47 -180v-8q0 -143 92 -226q72 -65 172 -65z" />
    <glyph glyph-name="R" unicode="R" horiz-adv-x="628" 
d="M177 380h134q156 2 157 132v4q0 109 -109 126q-22 3 -48 3h-134v-265zM90 0v715h215q165 0 223 -95q27 -44 27 -104v-4q0 -137 -133 -183q-21 -8 -44 -12l219 -317h-97l-213 311h-110v-311h-87z" />
    <glyph glyph-name="S" unicode="S" horiz-adv-x="627" 
d="M321 -9q-230 0 -268 195q-3 16 -5 32h84q13 -101 78 -135q44 -22 111 -22q91 0 137 58q26 34 26 77q0 69 -47 99q-39 24 -126 38q-162 25 -211 95q-28 42 -28 102q0 94 80 150q63 44 150 44q166 0 223 -116q18 -36 23 -81h-78q-19 100 -105 120q-28 7 -63 7
q-106 0 -139 -68q-10 -22 -10 -48q0 -61 39 -88q39 -26 133 -40q156 -25 207 -89q36 -45 36 -119q0 -99 -83 -161q-69 -50 -164 -50z" />
    <glyph glyph-name="T" unicode="T" horiz-adv-x="561" 
d="M237 0v644h-208v71h503v-71h-208v-644h-87z" />
    <glyph glyph-name="U" unicode="U" horiz-adv-x="696" 
d="M341 -9q-176 0 -233 136q-24 58 -24 134v454h87v-444q0 -152 82 -191q36 -17 90 -17q115 0 154 74q28 53 28 147v431h87v-443q0 -207 -154 -263q-52 -18 -117 -18z" />
    <glyph glyph-name="V" unicode="V" horiz-adv-x="654" 
d="M273 0l-243 715h86l213 -631l213 631h82l-247 -715h-104z" />
    <glyph glyph-name="W" unicode="W" horiz-adv-x="928" 
d="M220 0l-186 715h89l145 -577l168 577h62l168 -579l147 579h81l-186 -715h-80l-162 565l-167 -565h-79z" />
    <glyph glyph-name="X" unicode="X" horiz-adv-x="657" 
d="M45 0l236 367l-220 348h96l178 -281l177 281h89l-222 -348l233 -367h-98l-191 301l-191 -301h-87z" />
    <glyph glyph-name="Y" unicode="Y" horiz-adv-x="598" 
d="M262 0v312l-239 403h98l187 -332l180 332h87l-226 -404v-311h-87z" />
    <glyph glyph-name="Z" unicode="Z" horiz-adv-x="595" 
d="M28 0v14l405 630h-369v71h489v-13l-394 -628h388v-74h-519z" />
    <glyph glyph-name="bracketleft" unicode="[" horiz-adv-x="356" 
d="M88 -148v924h224v-66h-141v-792h141v-66h-224z" />
    <glyph glyph-name="backslash" unicode="\" horiz-adv-x="403" 
d="M321 -148l-291 924h76l291 -924h-76z" />
    <glyph glyph-name="bracketright" unicode="]" horiz-adv-x="356" 
d="M44 -148v66h141v792h-141v66h224v-924h-224z" />
    <glyph glyph-name="asciicircum" unicode="^" horiz-adv-x="507" 
d="M44 408l167 307h85l167 -307h-84l-127 236l-126 -236h-82z" />
    <glyph glyph-name="underscore" unicode="_" horiz-adv-x="394" 
d="M-1 -158v66h396v-66h-396z" />
    <glyph glyph-name="grave" unicode="`" horiz-adv-x="400" 
d="M177 613l-104 147h104l62 -147h-62z" />
    <glyph glyph-name="a" unicode="a" horiz-adv-x="540" 
d="M223 57q97 0 136 60q19 29 19 66v65h-72q-181 -1 -182 -103q2 -87 99 -88zM215 -9q-115 0 -156 76q-18 34 -18 78q0 114 143 149q53 13 119 13h75v38q0 91 -60 111q-22 7 -52 7q-108 -2 -120 -94h-83q11 119 127 152q37 11 80 11q180 0 190 -167q1 -10 1 -20v-345h-83v66
q-56 -71 -149 -75h-14z" />
    <glyph glyph-name="b" unicode="b" horiz-adv-x="627" 
d="M344 -9q-103 0 -162 73q-9 11 -15 22v-86h-83v773h83v-338q33 57 105 84q36 13 72 13q121 0 187 -91q51 -70 51 -172v-8q0 -144 -89 -218q-62 -52 -149 -52zM336 60q125 0 153 125q7 33 7 72v8q0 128 -81 177q-36 21 -80 21q-104 0 -148 -86q-23 -47 -23 -112v-8
q0 -147 104 -186q31 -11 68 -11z" />
    <glyph glyph-name="c" unicode="c" horiz-adv-x="570" 
d="M301 -9q-126 0 -198 89q-58 71 -58 176v8q0 131 89 208q71 60 165 60q136 0 195 -90q25 -40 32 -93h-82q-17 106 -129 113q-8 1 -16 1q-88 0 -135 -74q-33 -52 -33 -125v-8q0 -131 88 -177q37 -19 83 -19q83 0 125 59q21 30 25 69h77q-10 -102 -93 -158q-59 -39 -135 -39
z" />
    <glyph glyph-name="d" unicode="d" horiz-adv-x="627" 
d="M290 60q103 0 148 83q25 48 25 115v8q0 162 -117 191q-23 6 -49 6q-111 0 -149 -99q-17 -44 -17 -101v-8q0 -132 85 -178q34 -17 74 -17zM281 -9q-123 0 -188 92q-48 68 -48 168v8q0 138 86 215q66 58 158 58q116 -1 171 -93v334h83v-773h-83v90q-33 -56 -104 -84
q-38 -15 -75 -15z" />
    <glyph glyph-name="e" unicode="e" horiz-adv-x="568" 
d="M298 -9q-129 0 -200 93q-53 70 -53 172v8q0 136 88 212q66 56 157 56q125 0 188 -89q47 -67 47 -171v-27h-394q5 -161 130 -182q19 -3 38 -3q122 1 139 91h83q-19 -109 -127 -146q-44 -14 -96 -14zM134 312h306q-13 150 -150 151q-96 0 -137 -87q-14 -29 -19 -64z" />
    <glyph glyph-name="f" unicode="f" horiz-adv-x="346" 
d="M102 0v453h-75v70h75v85q0 140 111 164q22 4 45 4q33 0 62 -10v-70q-28 11 -59 11q-75 -2 -76 -90v-94h128v-70h-128v-453h-83z" />
    <glyph glyph-name="g" unicode="g" horiz-adv-x="627" 
d="M292 86q94 0 141 73q30 47 30 112v7q0 124 -86 167q-35 18 -80 18q-100 0 -143 -83q-23 -45 -23 -104v-8q0 -106 73 -155q39 -27 88 -27zM293 -191q-174 0 -224 115q-9 22 -13 46h85q20 -90 151 -91q151 0 166 132q2 15 2 29v76q-33 -57 -104 -85q-37 -14 -73 -14
q-115 0 -183 84q-55 69 -55 164v7q0 118 78 194q69 66 166 66q116 -1 171 -93v84h83v-488q-1 -149 -122 -202q-56 -24 -128 -24z" />
    <glyph glyph-name="h" unicode="h" horiz-adv-x="598" 
d="M84 0v773h83v-333q32 64 110 85q28 7 58 7q157 0 180 -157q4 -26 4 -54v-321h-83v327q0 115 -90 130q-16 3 -33 3q-81 0 -122 -59q-24 -36 -24 -84v-317h-83z" />
    <glyph glyph-name="i" unicode="i" horiz-adv-x="255" 
d="M126 632q-34 0 -49 31q-6 12 -6 24q0 34 31 49q12 6 24 6q34 0 49 -31q6 -12 6 -24q0 -34 -31 -49q-12 -6 -24 -6zM86 0v523h83v-523h-83z" />
    <glyph glyph-name="j" unicode="j" horiz-adv-x="255" 
d="M126 632q-34 0 -49 31q-6 12 -6 24q0 34 31 49q12 6 24 6q34 0 49 -31q6 -12 6 -24q0 -34 -31 -49q-12 -6 -24 -6zM9 -191v70q70 6 76 66q1 8 1 15v563h83v-556q0 -121 -96 -149q-28 -8 -64 -9z" />
    <glyph glyph-name="k" unicode="k" horiz-adv-x="516" 
d="M84 0v773h83v-491l217 241h97l-224 -243l243 -280h-101l-232 271v-271h-83z" />
    <glyph glyph-name="l" unicode="l" horiz-adv-x="256" 
d="M86 0v773h84v-773h-84z" />
    <glyph glyph-name="m" unicode="m" horiz-adv-x="910" 
d="M84 0v523h83v-80q30 61 102 82q27 7 54 7q115 -1 153 -98q39 73 132 93q24 5 47 5q114 0 156 -97q20 -46 20 -111v-324h-83v330q-7 126 -111 130q-71 0 -111 -53q-27 -36 -27 -87v-320h-83v330q-7 126 -111 130q-71 0 -111 -53q-27 -36 -27 -87v-320h-83z" />
    <glyph glyph-name="n" unicode="n" horiz-adv-x="598" 
d="M84 0v523h83v-83q32 64 110 85q28 7 58 7q157 0 180 -157q4 -26 4 -54v-321h-83v327q0 115 -90 130q-16 3 -33 3q-81 0 -122 -59q-24 -36 -24 -84v-317h-83z" />
    <glyph glyph-name="o" unicode="o" 
d="M301 -9q-123 0 -197 90q-59 73 -59 176v8q0 132 90 208q70 59 167 59q123 0 197 -88q60 -74 60 -178v-8q0 -132 -90 -208q-70 -59 -168 -59zM302 60q100 0 145 84q26 48 26 113v7q0 121 -77 172q-41 27 -94 27q-101 0 -146 -85q-25 -49 -25 -113v-8q0 -121 78 -171
q40 -26 93 -26z" />
    <glyph glyph-name="p" unicode="p" horiz-adv-x="627" 
d="M336 60q125 0 153 125q7 33 7 72v8q0 128 -81 177q-36 21 -80 21q-104 0 -148 -86q-23 -47 -23 -112v-8q0 -147 104 -186q31 -11 68 -11zM84 -182v705h83v-88q33 57 105 84q36 13 72 13q121 0 187 -91q51 -70 51 -172v-8q0 -144 -89 -218q-62 -52 -149 -52
q-106 0 -164 75q-7 10 -13 20v-268h-83z" />
    <glyph glyph-name="q" unicode="q" horiz-adv-x="627" 
d="M460 -182v272q-33 -56 -104 -84q-38 -15 -75 -15q-123 0 -188 92q-48 68 -48 168v8q0 138 86 215q66 58 158 58q116 -1 171 -93v84h83v-705h-83zM290 60q103 0 148 83q25 48 25 115v8q0 162 -117 191q-23 6 -49 6q-111 0 -149 -99q-17 -44 -17 -101v-8q0 -132 85 -178
q34 -17 74 -17z" />
    <glyph glyph-name="r" unicode="r" horiz-adv-x="376" 
d="M84 0v523h83v-94q44 79 120 97q25 5 52 6v-78q-114 -5 -150 -65q-22 -39 -22 -102v-287h-83z" />
    <glyph glyph-name="s" unicode="s" horiz-adv-x="480" 
d="M246 -9q-139 0 -186 94q-17 34 -19 76h81q14 -99 123 -101q110 7 114 83q0 50 -54 71q-25 9 -68 17q-127 23 -161 73q-21 31 -21 81q0 82 80 124q46 23 97 23q156 0 185 -129q3 -11 4 -22h-80q-14 67 -74 79q-17 3 -36 3q-71 0 -92 -45q-7 -14 -7 -30q0 -42 39 -60
q27 -13 83 -23q108 -20 145 -54q39 -35 39 -101q0 -104 -93 -142q-42 -17 -99 -17z" />
    <glyph glyph-name="t" unicode="t" horiz-adv-x="355" 
d="M243 -7q-107 0 -134 87q-7 23 -7 51v322h-75v70h75v119h83v-119h122v-70h-122v-314q2 -75 65 -76q36 0 64 11v-70q-32 -11 -71 -11z" />
    <glyph glyph-name="u" unicode="u" horiz-adv-x="594" 
d="M261 -9q-134 0 -170 115q-12 38 -12 86v331h83v-327q0 -118 93 -131q14 -2 28 -2q77 0 118 56q26 37 26 87v317h83v-523h-83v83q-31 -63 -107 -84q-29 -8 -59 -8z" />
    <glyph glyph-name="v" unicode="v" horiz-adv-x="534" 
d="M215 0l-190 523h90l155 -439l153 439h86l-188 -523h-106z" />
    <glyph glyph-name="w" unicode="w" horiz-adv-x="794" 
d="M189 0l-161 523h90l122 -421l127 421h72l119 -421l123 421h85l-163 -523h-92l-109 392l-122 -392h-91z" />
    <glyph glyph-name="x" unicode="x" horiz-adv-x="528" 
d="M28 0l187 269l-175 254h97l128 -190l127 190h90l-173 -248l191 -275h-98l-141 211l-144 -211h-89z" />
    <glyph glyph-name="y" unicode="y" horiz-adv-x="529" 
d="M131 -182l99 236l-205 469h89l160 -375l145 375h85l-289 -705h-84z" />
    <glyph glyph-name="z" unicode="z" horiz-adv-x="483" 
d="M21 0v12l309 441h-279v70h407v-15l-302 -435h298v-73h-433z" />
    <glyph glyph-name="braceleft" unicode="{" horiz-adv-x="381" 
d="M337 -147q-195 0 -203 140q-2 31 5 68l19 104q13 71 -41 103q-31 17 -77 17v62q100 0 117 71q6 23 1 49l-19 104q-32 179 135 204q29 4 63 4v-63q-92 -1 -114 -48q-15 -35 -5 -99l19 -115q15 -91 -68 -128q-14 -6 -30 -10q86 -22 98 -93q4 -22 0 -45l-19 -115
q-16 -103 36 -131q29 -15 83 -16v-63z" />
    <glyph glyph-name="bar" unicode="|" horiz-adv-x="253" 
d="M93 -148v924h67v-924h-67z" />
    <glyph glyph-name="braceright" unicode="}" horiz-adv-x="381" 
d="M44 -147v63q92 1 114 48q15 35 5 99l-19 115q-15 91 68 128q14 6 30 10q-86 22 -98 93q-4 22 0 45l19 115q16 103 -36 131q-29 15 -83 16v63q195 0 203 -140q2 -31 -5 -68l-19 -104q-13 -71 41 -103q31 -17 77 -17v-62q-100 0 -117 -71q-6 -23 -1 -49l19 -104
q32 -179 -135 -204q-29 -4 -63 -4z" />
    <glyph glyph-name="asciitilde" unicode="~" horiz-adv-x="445" 
d="M44 223q7 91 67 119q19 9 39 9q39 0 95 -33q32 -18 45 -18q31 0 42 35q2 9 3 18h66q-6 -91 -66 -120q-18 -8 -37 -8q-41 0 -99 33q-30 18 -43 18q-33 0 -44 -42q-1 -6 -2 -11h-66z" />
    <glyph glyph-name="uni00A0" unicode="&#xa0;" horiz-adv-x="265" 
 />
    <glyph glyph-name="exclamdown" unicode="&#xa1;" horiz-adv-x="288" 
d="M144 475q-39 0 -57 35q-7 14 -7 29q0 39 35 57q14 7 29 7q39 0 57 -35q7 -14 7 -29q0 -39 -35 -57q-14 -7 -29 -7zM97 -117l14 513h64l14 -513h-92z" />
    <glyph glyph-name="cent" unicode="&#xa2;" horiz-adv-x="565" 
d="M267 -135v128q-119 12 -180 107q-42 67 -42 156v8q0 132 90 209q57 48 132 57v99h59v-99q132 -11 180 -110q15 -32 20 -71h-82q-17 97 -118 112v-399q80 11 112 77q11 23 14 49h77q-10 -100 -91 -156q-50 -33 -112 -39v-128h-59zM131 256q0 -137 93 -181q20 -9 43 -13
v398q-83 -16 -118 -99q-18 -44 -18 -97v-8z" />
    <glyph glyph-name="sterling" unicode="&#xa3;" horiz-adv-x="596" 
d="M48 315v62h65q-18 76 -18 141q0 105 82 164q59 42 138 42q132 0 187 -96q23 -41 27 -93h-84q-17 91 -79 111q-22 7 -51 7q-78 0 -114 -62q-18 -33 -18 -74q0 -61 17 -140h213v-62h-199q15 -76 15 -132q0 -34 -13 -65q20 -5 107 -38q43 -16 65 -16q79 0 90 72q1 7 1 14h73
q-7 -102 -79 -141q-33 -18 -75 -18q-49 0 -136 37q-61 26 -86 26q-52 0 -63 -46q-2 -4 -2 -8h-73q5 62 51 98q23 18 52 24q12 30 12 62q0 46 -23 131h-82z" />
    <glyph glyph-name="yen" unicode="&#xa5;" horiz-adv-x="576" 
d="M84 281v58h156l-212 376h94l175 -324l167 324h84l-200 -376h157v-58h-168v-78h168v-58h-168v-145h-85v145h-168v58h168v78h-168z" />
    <glyph glyph-name="brokenbar" unicode="&#xa6;" horiz-adv-x="260" 
d="M93 367v409h67v-409h-67zM93 -148v445h67v-445h-67z" />
    <glyph glyph-name="section" unicode="&#xa7;" horiz-adv-x="539" 
d="M326 185q88 23 89 94q0 53 -61 80q-24 10 -64 21l-79 21q-66 -14 -83 -67q-4 -14 -4 -28q0 -51 63 -78q25 -11 64 -22zM266 -137q-119 0 -166 79q-21 37 -22 84h85q7 -85 85 -92q8 -1 16 -1q80 0 98 61q4 14 4 29q0 46 -38 70q-32 19 -103 37q-132 34 -167 99
q-16 31 -16 70q0 83 80 122q16 8 33 13q-61 44 -61 127q0 80 70 129q49 34 108 34q123 0 165 -83q17 -33 18 -74h-84q-6 74 -70 85q-13 2 -27 2q-80 0 -97 -64q-3 -13 -3 -27q0 -46 36 -69q31 -19 98 -36q118 -30 157 -76q32 -38 32 -96q0 -68 -61 -111q-23 -15 -49 -23
q59 -45 59 -127q0 -77 -66 -126q-50 -36 -114 -36z" />
    <glyph glyph-name="dieresis" unicode="&#xa8;" horiz-adv-x="400" 
d="M294 634q-33 0 -48 30q-5 11 -5 23q0 33 30 48q11 5 23 5q33 0 48 -30q5 -11 5 -23q0 -33 -30 -48q-11 -5 -23 -5zM106 634q-33 0 -48 30q-5 11 -5 23q0 33 30 48q11 5 23 5q33 0 48 -30q5 -11 5 -23q0 -33 -30 -48q-11 -5 -23 -5z" />
    <glyph glyph-name="copyright" unicode="&#xa9;" horiz-adv-x="844" 
d="M421 -9q-149 0 -255 101q-106 102 -111 252v13q0 149 101 255q101 105 249 112h18q153 0 259 -104q103 -102 107 -250v-11q0 -153 -104 -259q-102 -104 -252 -109h-12zM421 33q130 0 223 90q97 94 97 236q0 145 -100 238q-91 85 -218 85q-135 0 -227 -92
q-93 -94 -93 -233q0 -145 102 -240q92 -84 216 -84zM423 155q-122 0 -169 93q-23 45 -23 105v8q0 108 77 164q50 35 115 35q107 0 149 -73q17 -29 20 -65h-76q-14 77 -93 78q-77 0 -103 -74q-10 -29 -10 -65v-7q0 -111 77 -133q17 -5 36 -5q80 0 98 69q2 7 3 14h72
q-11 -104 -105 -134q-32 -10 -68 -10z" />
    <glyph glyph-name="ordfeminine" unicode="&#xaa;" horiz-adv-x="419" 
d="M184 351q80 0 107 52q9 20 9 42v46h-56q-134 -1 -135 -75q2 -64 75 -65zM170 290q-96 0 -128 66q-12 26 -12 58q0 100 133 124q36 7 79 7h58v26q0 75 -54 87q-14 3 -31 3q-79 -1 -90 -68h-77q8 96 106 123q30 8 65 8q158 -2 159 -152v-274h-78v52q-47 -60 -130 -60z" />
    <glyph glyph-name="guillemotleft" unicode="&#xab;" horiz-adv-x="500" 
d="M367 83l-130 178l130 178h82l-125 -178l125 -178h-82zM189 83l-130 178l130 178h82l-125 -178l125 -178h-82z" />
    <glyph glyph-name="uni00AD" unicode="&#xad;" horiz-adv-x="334" 
d="M60 236v78h214v-78h-214z" />
    <glyph glyph-name="registered" unicode="&#xae;" horiz-adv-x="514" 
d="M257 282q-103 0 -169 75q-53 62 -53 145q0 102 76 168q63 54 146 54q104 0 170 -77q52 -62 52 -144q0 -104 -77 -169q-62 -52 -145 -52zM257 318q93 0 146 70q36 50 36 115q0 100 -73 152q-47 33 -109 33q-96 0 -148 -73q-34 -48 -34 -113q0 -98 73 -151q48 -33 109 -33z
M229 514h28q37 2 38 32v1q-2 30 -38 31h-28v-64zM181 396v219h77q81 -5 84 -66v-1q-1 -45 -45 -59l58 -93h-50l-53 85h-23v-85h-48z" />
    <glyph glyph-name="macron" unicode="&#xaf;" horiz-adv-x="400" 
d="M69 648v64h262v-64h-262z" />
    <glyph glyph-name="degree" unicode="&#xb0;" horiz-adv-x="427" 
d="M214 406q-80 0 -129 61q-35 44 -35 97q0 78 63 126q45 34 101 34q79 0 128 -61q35 -44 35 -99q0 -75 -61 -123q-45 -35 -102 -35zM214 464q55 0 79 51q10 23 10 49q0 64 -46 91q-20 11 -43 11q-55 0 -81 -50q-12 -24 -12 -52q0 -59 45 -87q22 -13 48 -13z" />
    <glyph glyph-name="plusminus" unicode="&#xb1;" horiz-adv-x="519" 
d="M223 145v182h-187v70h187v182h73v-182h187v-70h-187v-182h-73zM36 0v70h447v-70h-447z" />
    <glyph glyph-name="twosuperior" unicode="&#xb2;" horiz-adv-x="286" 
d="M8 373v11l128 136q53 56 54 97q-7 46 -50 50q-51 0 -60 -64v-2h-61q5 89 79 112q21 6 44 6q82 0 107 -60q7 -19 7 -41q-1 -58 -66 -122l-73 -72h142v-51h-251z" />
    <glyph glyph-name="threesuperior" unicode="&#xb3;" horiz-adv-x="311" 
d="M152 368q-97 0 -123 70q-7 19 -8 41h61q9 -60 68 -61q62 2 63 54q0 54 -60 54h-26v47h25q55 2 56 49q0 40 -41 46q-6 1 -11 1q-48 0 -60 -44q-1 -6 -2 -11h-61q4 68 66 94q26 11 58 11q79 0 106 -53q9 -19 9 -39q-1 -54 -57 -74q59 -13 66 -69q1 -7 1 -13q0 -70 -69 -94
q-28 -9 -61 -9z" />
    <glyph glyph-name="acute" unicode="&#xb4;" horiz-adv-x="400" 
d="M161 613l62 147h104l-104 -147h-62z" />
    <glyph glyph-name="paragraph" unicode="&#xb6;" horiz-adv-x="588" 
d="M276 -100v446h-14q-141 0 -193 86q-24 41 -24 95q0 122 107 168q48 20 110 20h232v-815h-69v758h-81v-758h-68z" />
    <glyph glyph-name="periodcentered" unicode="&#xb7;" horiz-adv-x="282" 
d="M141 263q-39 0 -57 35q-7 14 -7 29q0 39 35 57q14 7 29 7q39 0 57 -35q7 -14 7 -29q0 -39 -35 -57q-14 -7 -29 -7z" />
    <glyph glyph-name="cedilla" unicode="&#xb8;" horiz-adv-x="400" 
d="M208 -214q-68 0 -92 52q-7 15 -8 32h54q11 -34 43 -36q34 0 39 28q1 5 1 8q0 28 -28 33q-4 1 -8 1q-15 0 -28 -8l-32 28l42 76h53l-29 -53q52 7 79 -31q15 -21 15 -50q0 -57 -60 -74q-19 -6 -41 -6z" />
    <glyph glyph-name="onesuperior" unicode="&#xb9;" horiz-adv-x="231" 
d="M105 373v276l-81 -54v59l89 61h60v-342h-68z" />
    <glyph glyph-name="ordmasculine" unicode="&#xba;" horiz-adv-x="493" 
d="M246 290q-106 0 -166 79q-43 57 -43 134v6q0 113 80 174q56 41 130 41q106 0 166 -77q43 -57 43 -136v-6q0 -114 -81 -175q-55 -40 -129 -40zM247 354q81 0 113 74q14 34 14 76v6q0 98 -65 135q-28 15 -62 15q-82 0 -114 -73q-14 -34 -14 -77v-6q0 -101 67 -136
q28 -14 61 -14z" />
    <glyph glyph-name="guillemotright" unicode="&#xbb;" horiz-adv-x="500" 
d="M229 83l125 178l-125 178h82l130 -178l-130 -178h-82zM51 83l125 178l-125 178h82l130 -178l-130 -178h-82z" />
    <glyph glyph-name="onequarter" unicode="&#xbc;" horiz-adv-x="678" 
d="M108 373v276l-81 -54v59l89 61h60v-342h-68zM49 0l507 715h66l-507 -715h-66zM546 0v69h-172v24l153 249h83v-224h45v-49h-45v-69h-64zM446 118h101v173z" />
    <glyph glyph-name="onehalf" unicode="&#xbd;" horiz-adv-x="677" 
d="M108 373v276l-81 -54v59l89 61h60v-342h-68zM36 0l507 715h66l-507 -715h-66zM395 0v11l128 136q53 56 54 97q-7 46 -50 50q-51 0 -60 -64v-2h-61q5 89 79 112q21 6 44 6q82 0 107 -60q7 -19 7 -41q-1 -58 -66 -122l-73 -72h142v-51h-251z" />
    <glyph glyph-name="threequarters" unicode="&#xbe;" horiz-adv-x="681" 
d="M155 368q-97 0 -123 70q-7 19 -8 41h61q9 -60 68 -61q62 2 63 54q0 54 -60 54h-26v47h25q55 2 56 49q0 40 -41 46q-6 1 -11 1q-48 0 -60 -44q-1 -6 -2 -11h-61q4 68 66 94q26 11 58 11q79 0 106 -53q9 -19 9 -39q-1 -54 -57 -74q59 -13 66 -69q1 -7 1 -13q0 -70 -69 -94
q-28 -9 -61 -9zM85 0l507 715h66l-507 -715h-66zM546 0v69h-172v24l153 249h83v-224h45v-49h-45v-69h-64zM446 118h101v173z" />
    <glyph glyph-name="questiondown" unicode="&#xbf;" horiz-adv-x="489" 
d="M275 603q39 0 57 -35q7 -14 7 -29q0 -39 -35 -57q-14 -7 -29 -7q-39 0 -57 35q-7 14 -7 29q0 39 35 57q14 7 29 7zM310 396v-50q0 -73 -67 -144l-36 -36q-57 -57 -68 -92q-5 -16 -5 -31q0 -83 77 -97q14 -3 30 -3q82 0 117 70q13 27 16 60h78q-7 -109 -89 -164
q-53 -35 -123 -35q-130 0 -174 91q-16 34 -16 75q0 68 66 136q11 11 32 31q61 58 77 94q11 26 11 52v43h74z" />
    <glyph glyph-name="Agrave" unicode="&#xc0;" horiz-adv-x="674" 
d="M335 643l-124 -368h248zM36 0l246 715h114l242 -715h-86l-70 206h-295l-69 -206h-82zM312 771l-98 127h104l56 -127h-62z" />
    <glyph glyph-name="Aacute" unicode="&#xc1;" horiz-adv-x="674" 
d="M335 643l-124 -368h248zM36 0l246 715h114l242 -715h-86l-70 206h-295l-69 -206h-82zM300 771l56 127h104l-98 -127h-62z" />
    <glyph glyph-name="Acircumflex" unicode="&#xc2;" horiz-adv-x="674" 
d="M335 643l-124 -368h248zM36 0l246 715h114l242 -715h-86l-70 206h-295l-69 -206h-82zM192 771l108 127h75l107 -127h-61l-85 58l-85 -58h-59z" />
    <glyph glyph-name="Atilde" unicode="&#xc3;" horiz-adv-x="674" 
d="M335 643l-124 -368h248zM36 0l246 715h114l242 -715h-86l-70 206h-295l-69 -206h-82zM391 774q-23 0 -69 27q-26 16 -39 16q-25 0 -37 -33q-2 -7 -3 -12h-60q9 80 62 107q19 9 39 9q23 0 68 -27q26 -16 39 -16q25 0 37 33q2 7 3 12h60q-9 -80 -62 -107q-18 -9 -38 -9z
" />
    <glyph glyph-name="Adieresis" unicode="&#xc4;" horiz-adv-x="674" 
d="M335 643l-124 -368h248zM36 0l246 715h114l242 -715h-86l-70 206h-295l-69 -206h-82zM438 789q-33 0 -48 30q-5 11 -5 23q0 33 30 48q11 5 23 5q33 0 48 -30q5 -11 5 -23q0 -33 -30 -48q-11 -5 -23 -5zM235 789q-33 0 -48 30q-5 11 -5 23q0 33 30 48q11 5 23 5
q33 0 48 -30q5 -11 5 -23q0 -33 -30 -48q-11 -5 -23 -5z" />
    <glyph glyph-name="Aring" unicode="&#xc5;" horiz-adv-x="674" 
d="M335 643l-124 -368h248zM36 0l246 715h114l242 -715h-86l-70 206h-295l-69 -206h-82zM337 759q-58 0 -90 47q-17 27 -17 57q0 55 47 86q28 18 60 18q58 0 90 -47q17 -27 17 -57q0 -55 -47 -86q-28 -18 -60 -18zM337 805q36 0 49 34q4 12 4 24q0 40 -32 54q-11 4 -21 4
q-36 0 -49 -34q-4 -12 -4 -24q0 -40 32 -54q11 -4 21 -4z" />
    <glyph glyph-name="AE" unicode="&#xc6;" horiz-adv-x="950" 
d="M443 644l-187 -369h218v369h-31zM29 0l370 715h492v-71h-330v-243h266v-71h-266v-259h348v-71h-435v207h-252l-105 -207h-88z" />
    <glyph glyph-name="Ccedilla" unicode="&#xc7;" horiz-adv-x="730" 
d="M381 -214q-68 0 -92 52q-7 15 -8 32h54q11 -34 43 -36q34 0 39 28q1 5 1 8q0 28 -28 33q-4 1 -8 1q-15 0 -28 -8l-32 28l37 68q-168 12 -249 143q-55 90 -55 218v8q0 166 103 270q94 95 233 95q146 0 227 -88q54 -59 63 -146h-86q-25 153 -177 164q-13 1 -26 1
q-129 0 -197 -104q-50 -77 -50 -191v-8q0 -179 107 -253q59 -39 139 -39q144 0 196 109q14 30 20 66h81q-26 -173 -174 -226q-47 -16 -102 -19l-24 -45q52 7 79 -31q15 -21 15 -50q0 -57 -60 -74q-19 -6 -41 -6z" />
    <glyph glyph-name="Egrave" unicode="&#xc8;" horiz-adv-x="566" 
d="M90 0v715h417v-71h-330v-243h266v-71h-266v-259h348v-71h-435zM281 771l-98 127h104l56 -127h-62z" />
    <glyph glyph-name="Eacute" unicode="&#xc9;" horiz-adv-x="566" 
d="M90 0v715h417v-71h-330v-243h266v-71h-266v-259h348v-71h-435zM269 771l56 127h104l-98 -127h-62z" />
    <glyph glyph-name="Ecircumflex" unicode="&#xca;" horiz-adv-x="566" 
d="M90 0v715h417v-71h-330v-243h266v-71h-266v-259h348v-71h-435zM161 771l108 127h75l107 -127h-61l-85 58l-85 -58h-59z" />
    <glyph glyph-name="Edieresis" unicode="&#xcb;" horiz-adv-x="566" 
d="M90 0v715h417v-71h-330v-243h266v-71h-266v-259h348v-71h-435zM407 789q-33 0 -48 30q-5 11 -5 23q0 33 30 48q11 5 23 5q33 0 48 -30q5 -11 5 -23q0 -33 -30 -48q-11 -5 -23 -5zM204 789q-33 0 -48 30q-5 11 -5 23q0 33 30 48q11 5 23 5q33 0 48 -30q5 -11 5 -23
q0 -33 -30 -48q-11 -5 -23 -5z" />
    <glyph glyph-name="Igrave" unicode="&#xcc;" horiz-adv-x="277" 
d="M95 0v715h87v-715h-87zM113 771l-98 127h104l56 -127h-62z" />
    <glyph glyph-name="Iacute" unicode="&#xcd;" horiz-adv-x="277" 
d="M95 0v715h87v-715h-87zM101 771l56 127h104l-98 -127h-62z" />
    <glyph glyph-name="Icircumflex" unicode="&#xce;" horiz-adv-x="277" 
d="M95 0v715h87v-715h-87zM-7 771l108 127h75l107 -127h-61l-85 58l-85 -58h-59z" />
    <glyph glyph-name="Idieresis" unicode="&#xcf;" horiz-adv-x="277" 
d="M95 0v715h87v-715h-87zM239 789q-33 0 -48 30q-5 11 -5 23q0 33 30 48q11 5 23 5q33 0 48 -30q5 -11 5 -23q0 -33 -30 -48q-11 -5 -23 -5zM36 789q-33 0 -48 30q-5 11 -5 23q0 33 30 48q11 5 23 5q33 0 48 -30q5 -11 5 -23q0 -33 -30 -48q-11 -5 -23 -5z" />
    <glyph glyph-name="Eth" unicode="&#xd0;" horiz-adv-x="716" 
d="M34 325v67h76v323h189q216 0 308 -146q54 -86 54 -205v-9q0 -184 -118 -279q-95 -76 -246 -76h-187v325h-76zM197 71h98q189 0 250 144q26 61 26 141v8q0 207 -157 263q-53 18 -120 18h-97v-253h207v-67h-207v-254z" />
    <glyph glyph-name="Ntilde" unicode="&#xd1;" horiz-adv-x="724" 
d="M90 0v715h113l348 -591v591h83v-715h-100l-361 613v-613h-83zM426 774q-23 0 -69 27q-26 16 -39 16q-25 0 -37 -33q-2 -7 -3 -12h-60q9 80 62 107q19 9 39 9q23 0 68 -27q26 -16 39 -16q25 0 37 33q2 7 3 12h60q-9 -80 -62 -107q-18 -9 -38 -9z" />
    <glyph glyph-name="Ograve" unicode="&#xd2;" horiz-adv-x="811" 
d="M409 -9q-159 0 -260 110q-94 104 -94 252v8q0 157 100 260t252 103q161 0 260 -112q89 -102 89 -249v-8q0 -157 -99 -261q-98 -103 -248 -103zM409 63q137 0 207 107q50 77 50 186v8q0 142 -85 224q-70 66 -174 66q-145 0 -215 -112q-47 -75 -47 -180v-8q0 -143 92 -226
q72 -65 172 -65zM380 771l-98 127h104l56 -127h-62z" />
    <glyph glyph-name="Oacute" unicode="&#xd3;" horiz-adv-x="811" 
d="M409 -9q-159 0 -260 110q-94 104 -94 252v8q0 157 100 260t252 103q161 0 260 -112q89 -102 89 -249v-8q0 -157 -99 -261q-98 -103 -248 -103zM409 63q137 0 207 107q50 77 50 186v8q0 142 -85 224q-70 66 -174 66q-145 0 -215 -112q-47 -75 -47 -180v-8q0 -143 92 -226
q72 -65 172 -65zM368 771l56 127h104l-98 -127h-62z" />
    <glyph glyph-name="Ocircumflex" unicode="&#xd4;" horiz-adv-x="811" 
d="M409 -9q-159 0 -260 110q-94 104 -94 252v8q0 157 100 260t252 103q161 0 260 -112q89 -102 89 -249v-8q0 -157 -99 -261q-98 -103 -248 -103zM409 63q137 0 207 107q50 77 50 186v8q0 142 -85 224q-70 66 -174 66q-145 0 -215 -112q-47 -75 -47 -180v-8q0 -143 92 -226
q72 -65 172 -65zM260 771l108 127h75l107 -127h-61l-85 58l-85 -58h-59z" />
    <glyph glyph-name="Otilde" unicode="&#xd5;" horiz-adv-x="811" 
d="M409 -9q-159 0 -260 110q-94 104 -94 252v8q0 157 100 260t252 103q161 0 260 -112q89 -102 89 -249v-8q0 -157 -99 -261q-98 -103 -248 -103zM409 63q137 0 207 107q50 77 50 186v8q0 142 -85 224q-70 66 -174 66q-145 0 -215 -112q-47 -75 -47 -180v-8q0 -143 92 -226
q72 -65 172 -65zM459 774q-23 0 -69 27q-26 16 -39 16q-25 0 -37 -33q-2 -7 -3 -12h-60q9 80 62 107q19 9 39 9q23 0 68 -27q26 -16 39 -16q25 0 37 33q2 7 3 12h60q-9 -80 -62 -107q-18 -9 -38 -9z" />
    <glyph glyph-name="Odieresis" unicode="&#xd6;" horiz-adv-x="811" 
d="M409 -9q-159 0 -260 110q-94 104 -94 252v8q0 157 100 260t252 103q161 0 260 -112q89 -102 89 -249v-8q0 -157 -99 -261q-98 -103 -248 -103zM409 63q137 0 207 107q50 77 50 186v8q0 142 -85 224q-70 66 -174 66q-145 0 -215 -112q-47 -75 -47 -180v-8q0 -143 92 -226
q72 -65 172 -65zM506 789q-33 0 -48 30q-5 11 -5 23q0 33 30 48q11 5 23 5q33 0 48 -30q5 -11 5 -23q0 -33 -30 -48q-11 -5 -23 -5zM303 789q-33 0 -48 30q-5 11 -5 23q0 33 30 48q11 5 23 5q33 0 48 -30q5 -11 5 -23q0 -33 -30 -48q-11 -5 -23 -5z" />
    <glyph glyph-name="multiply" unicode="&#xd7;" horiz-adv-x="469" 
d="M80 131l-47 48l154 154l-154 154l47 48l154 -155l154 155l48 -48l-154 -154l154 -154l-48 -48l-154 155z" />
    <glyph glyph-name="Oslash" unicode="&#xd8;" horiz-adv-x="811" 
d="M145 354q0 -101 44 -173l382 418q-67 55 -164 55q-145 0 -215 -112q-47 -75 -47 -180v-8zM409 63q137 0 207 107q50 77 50 186v8q-1 112 -52 188l-384 -421q70 -68 179 -68zM80 -33l-45 45l98 107q-78 99 -78 234v8q0 157 100 260t252 103q124 -1 214 -70l81 88l45 -45
l-79 -87q88 -101 88 -247v-8q0 -157 -99 -261q-98 -103 -248 -103q-136 1 -232 82z" />
    <glyph glyph-name="Ugrave" unicode="&#xd9;" horiz-adv-x="696" 
d="M341 -9q-176 0 -233 136q-24 58 -24 134v454h87v-444q0 -152 82 -191q36 -17 90 -17q115 0 154 74q28 53 28 147v431h87v-443q0 -207 -154 -263q-52 -18 -117 -18zM323 771l-98 127h104l56 -127h-62z" />
    <glyph glyph-name="Uacute" unicode="&#xda;" horiz-adv-x="696" 
d="M341 -9q-176 0 -233 136q-24 58 -24 134v454h87v-444q0 -152 82 -191q36 -17 90 -17q115 0 154 74q28 53 28 147v431h87v-443q0 -207 -154 -263q-52 -18 -117 -18zM311 771l56 127h104l-98 -127h-62z" />
    <glyph glyph-name="Ucircumflex" unicode="&#xdb;" horiz-adv-x="696" 
d="M341 -9q-176 0 -233 136q-24 58 -24 134v454h87v-444q0 -152 82 -191q36 -17 90 -17q115 0 154 74q28 53 28 147v431h87v-443q0 -207 -154 -263q-52 -18 -117 -18zM203 771l108 127h75l107 -127h-61l-85 58l-85 -58h-59z" />
    <glyph glyph-name="Udieresis" unicode="&#xdc;" horiz-adv-x="696" 
d="M341 -9q-176 0 -233 136q-24 58 -24 134v454h87v-444q0 -152 82 -191q36 -17 90 -17q115 0 154 74q28 53 28 147v431h87v-443q0 -207 -154 -263q-52 -18 -117 -18zM449 789q-33 0 -48 30q-5 11 -5 23q0 33 30 48q11 5 23 5q33 0 48 -30q5 -11 5 -23q0 -33 -30 -48
q-11 -5 -23 -5zM246 789q-33 0 -48 30q-5 11 -5 23q0 33 30 48q11 5 23 5q33 0 48 -30q5 -11 5 -23q0 -33 -30 -48q-11 -5 -23 -5z" />
    <glyph glyph-name="Yacute" unicode="&#xdd;" horiz-adv-x="598" 
d="M262 0v312l-239 403h98l187 -332l180 332h87l-226 -404v-311h-87zM262 771l56 127h104l-98 -127h-62z" />
    <glyph glyph-name="Thorn" unicode="&#xde;" horiz-adv-x="581" 
d="M90 0v715h87v-134h116q171 0 227 -103q23 -44 23 -102v-4q0 -154 -149 -195q-45 -12 -101 -12h-116v-165h-87zM177 234h122q156 2 157 138v4q0 117 -114 132q-20 3 -43 3h-122v-277z" />
    <glyph glyph-name="germandbls" unicode="&#xdf;" horiz-adv-x="590" 
d="M335 -9q-52 0 -92 16v71q39 -18 88 -18q129 2 130 150v7q0 103 -81 149q-49 27 -115 25v71q109 -3 140 80q9 24 9 51v4q0 92 -88 108q-16 3 -34 3q-79 0 -111 -68q-14 -31 -14 -70v-570h-83v566q0 108 81 169q56 41 128 41q114 0 168 -75q32 -45 32 -104v-4
q0 -72 -55 -123q-28 -26 -64 -38q101 -26 148 -111q25 -48 25 -103v-6q0 -173 -138 -212q-34 -9 -74 -9z" />
    <glyph glyph-name="agrave" unicode="&#xe0;" horiz-adv-x="540" 
d="M223 57q97 0 136 60q19 29 19 66v65h-72q-181 -1 -182 -103q2 -87 99 -88zM215 -9q-115 0 -156 76q-18 34 -18 78q0 114 143 149q53 13 119 13h75v38q0 91 -60 111q-22 7 -52 7q-108 -2 -120 -94h-83q11 119 127 152q37 11 80 11q180 0 190 -167q1 -10 1 -20v-345h-83v66
q-56 -71 -149 -75h-14zM246 613l-104 147h104l62 -147h-62z" />
    <glyph glyph-name="aacute" unicode="&#xe1;" horiz-adv-x="540" 
d="M223 57q97 0 136 60q19 29 19 66v65h-72q-181 -1 -182 -103q2 -87 99 -88zM215 -9q-115 0 -156 76q-18 34 -18 78q0 114 143 149q53 13 119 13h75v38q0 91 -60 111q-22 7 -52 7q-108 -2 -120 -94h-83q11 119 127 152q37 11 80 11q180 0 190 -167q1 -10 1 -20v-345h-83v66
q-56 -71 -149 -75h-14zM234 613l62 147h104l-104 -147h-62z" />
    <glyph glyph-name="acircumflex" unicode="&#xe2;" horiz-adv-x="540" 
d="M223 57q97 0 136 60q19 29 19 66v65h-72q-181 -1 -182 -103q2 -87 99 -88zM215 -9q-115 0 -156 76q-18 34 -18 78q0 114 143 149q53 13 119 13h75v38q0 91 -60 111q-22 7 -52 7q-108 -2 -120 -94h-83q11 119 127 152q37 11 80 11q180 0 190 -167q1 -10 1 -20v-345h-83v66
q-56 -71 -149 -75h-14zM115 613l108 144h75l107 -144h-61l-85 75l-85 -75h-59z" />
    <glyph glyph-name="atilde" unicode="&#xe3;" horiz-adv-x="540" 
d="M223 57q97 0 136 60q19 29 19 66v65h-72q-181 -1 -182 -103q2 -87 99 -88zM215 -9q-115 0 -156 76q-18 34 -18 78q0 114 143 149q53 13 119 13h75v38q0 91 -60 111q-22 7 -52 7q-108 -2 -120 -94h-83q11 119 127 152q37 11 80 11q180 0 190 -167q1 -10 1 -20v-345h-83v66
q-56 -71 -149 -75h-14zM325 619q-23 0 -69 27q-26 16 -39 16q-25 0 -37 -33q-2 -7 -3 -12h-60q9 80 62 107q19 9 39 9q23 0 68 -27q26 -16 39 -16q25 0 37 33q2 7 3 12h60q-9 -80 -62 -107q-18 -9 -38 -9z" />
    <glyph glyph-name="adieresis" unicode="&#xe4;" horiz-adv-x="540" 
d="M223 57q97 0 136 60q19 29 19 66v65h-72q-181 -1 -182 -103q2 -87 99 -88zM215 -9q-115 0 -156 76q-18 34 -18 78q0 114 143 149q53 13 119 13h75v38q0 91 -60 111q-22 7 -52 7q-108 -2 -120 -94h-83q11 119 127 152q37 11 80 11q180 0 190 -167q1 -10 1 -20v-345h-83v66
q-56 -71 -149 -75h-14zM365 634q-33 0 -48 30q-5 11 -5 23q0 33 30 48q11 5 23 5q33 0 48 -30q5 -11 5 -23q0 -33 -30 -48q-11 -5 -23 -5zM177 634q-33 0 -48 30q-5 11 -5 23q0 33 30 48q11 5 23 5q33 0 48 -30q5 -11 5 -23q0 -33 -30 -48q-11 -5 -23 -5z" />
    <glyph glyph-name="aring" unicode="&#xe5;" horiz-adv-x="540" 
d="M223 57q97 0 136 60q19 29 19 66v65h-72q-181 -1 -182 -103q2 -87 99 -88zM215 -9q-115 0 -156 76q-18 34 -18 78q0 114 143 149q53 13 119 13h75v38q0 91 -60 111q-22 7 -52 7q-108 -2 -120 -94h-83q11 119 127 152q37 11 80 11q180 0 190 -167q1 -10 1 -20v-345h-83v66
q-56 -71 -149 -75h-14zM271 598q-58 0 -90 47q-17 27 -17 57q0 55 47 86q28 18 60 18q58 0 90 -47q17 -27 17 -57q0 -55 -47 -86q-28 -18 -60 -18zM271 644q36 0 49 34q4 12 4 24q0 40 -32 54q-11 4 -21 4q-36 0 -49 -34q-4 -12 -4 -24q0 -40 32 -54q11 -4 21 -4z" />
    <glyph glyph-name="ae" unicode="&#xe6;" horiz-adv-x="880" 
d="M616 -9q-127 0 -191 99q-4 5 -6 9q-58 -91 -156 -105q-23 -3 -48 -3q-115 0 -156 76q-18 34 -18 78q0 115 139 151q54 14 120 14h78v34q0 101 -77 116q-16 3 -35 3q-108 -2 -120 -94h-83q11 119 127 152q37 11 80 11q124 -1 164 -89q64 88 176 89q122 0 183 -90
q44 -67 44 -170v-25h-379q6 -173 138 -186q11 -1 21 -1q116 1 133 91h83q-18 -108 -123 -145q-43 -15 -94 -15zM461 310h291q-11 147 -131 153h-11q-90 0 -130 -85q-14 -31 -19 -68zM223 57q97 0 136 60q19 29 19 66v64h-75q-178 -1 -179 -102q2 -87 99 -88z" />
    <glyph glyph-name="ccedilla" unicode="&#xe7;" horiz-adv-x="570" 
d="M286 -214q-68 0 -92 52q-7 15 -8 32h54q11 -34 43 -36q34 0 39 28q1 5 1 8q0 28 -28 33q-4 1 -8 1q-15 0 -28 -8l-32 28l38 69q-119 14 -179 109q-41 66 -41 154v8q0 131 89 208q71 60 165 60q136 0 195 -90q25 -40 32 -93h-82q-17 106 -129 113q-8 1 -16 1
q-88 0 -135 -74q-33 -52 -33 -125v-8q0 -131 88 -177q37 -19 83 -19q83 0 125 59q21 30 25 69h77q-10 -103 -94 -158q-52 -34 -118 -38l-24 -45q52 7 79 -31q15 -21 15 -50q0 -57 -60 -74q-19 -6 -41 -6z" />
    <glyph glyph-name="egrave" unicode="&#xe8;" horiz-adv-x="568" 
d="M298 -9q-129 0 -200 93q-53 70 -53 172v8q0 136 88 212q66 56 157 56q125 0 188 -89q47 -67 47 -171v-27h-394q5 -161 130 -182q19 -3 38 -3q122 1 139 91h83q-19 -109 -127 -146q-44 -14 -96 -14zM134 312h306q-13 150 -150 151q-96 0 -137 -87q-14 -29 -19 -64z
M265 613l-104 147h104l62 -147h-62z" />
    <glyph glyph-name="eacute" unicode="&#xe9;" horiz-adv-x="568" 
d="M298 -9q-129 0 -200 93q-53 70 -53 172v8q0 136 88 212q66 56 157 56q125 0 188 -89q47 -67 47 -171v-27h-394q5 -161 130 -182q19 -3 38 -3q122 1 139 91h83q-19 -109 -127 -146q-44 -14 -96 -14zM134 312h306q-13 150 -150 151q-96 0 -137 -87q-14 -29 -19 -64z
M253 613l62 147h104l-104 -147h-62z" />
    <glyph glyph-name="ecircumflex" unicode="&#xea;" horiz-adv-x="568" 
d="M298 -9q-129 0 -200 93q-53 70 -53 172v8q0 136 88 212q66 56 157 56q125 0 188 -89q47 -67 47 -171v-27h-394q5 -161 130 -182q19 -3 38 -3q122 1 139 91h83q-19 -109 -127 -146q-44 -14 -96 -14zM134 312h306q-13 150 -150 151q-96 0 -137 -87q-14 -29 -19 -64z
M145 613l108 144h75l107 -144h-61l-85 75l-85 -75h-59z" />
    <glyph glyph-name="edieresis" unicode="&#xeb;" horiz-adv-x="568" 
d="M384 634q-33 0 -48 30q-5 11 -5 23q0 33 30 48q11 5 23 5q33 0 48 -30q5 -11 5 -23q0 -33 -30 -48q-11 -5 -23 -5zM196 634q-33 0 -48 30q-5 11 -5 23q0 33 30 48q11 5 23 5q33 0 48 -30q5 -11 5 -23q0 -33 -30 -48q-11 -5 -23 -5zM298 -9q-129 0 -200 93q-53 70 -53 172
v8q0 136 88 212q66 56 157 56q125 0 188 -89q47 -67 47 -171v-27h-394q5 -161 130 -182q19 -3 38 -3q122 1 139 91h83q-19 -109 -127 -146q-44 -14 -96 -14zM134 312h306q-13 150 -150 151q-96 0 -137 -87q-14 -29 -19 -64z" />
    <glyph glyph-name="igrave" unicode="&#xec;" horiz-adv-x="255" 
d="M86 0v523h83v-523h-83zM102 613l-104 147h104l62 -147h-62z" />
    <glyph glyph-name="iacute" unicode="&#xed;" horiz-adv-x="255" 
d="M86 0v523h83v-523h-83zM90 613l62 147h104l-104 -147h-62z" />
    <glyph glyph-name="icircumflex" unicode="&#xee;" horiz-adv-x="255" 
d="M86 0v523h83v-523h-83zM-18 613l108 144h75l107 -144h-61l-85 75l-85 -75h-59z" />
    <glyph glyph-name="idieresis" unicode="&#xef;" horiz-adv-x="255" 
d="M217 634q-33 0 -48 30q-5 11 -5 23q0 33 30 48q11 5 23 5q33 0 48 -30q5 -11 5 -23q0 -33 -30 -48q-11 -5 -23 -5zM37 634q-33 0 -48 30q-5 11 -5 23q0 33 30 48q11 5 23 5q33 0 48 -30q5 -11 5 -23q0 -33 -30 -48q-11 -5 -23 -5zM86 0v523h83v-523h-83z" />
    <glyph glyph-name="eth" unicode="&#xf0;" 
d="M185 573l-29 48l97 57q-54 47 -124 95h107q46 -26 84 -55l83 49l29 -49l-67 -39q155 -144 187 -316q7 -40 7 -79v-22q0 -132 -88 -209q-71 -62 -170 -62q-123 0 -197 90q-59 73 -59 176v8q0 128 85 206q66 61 153 61q93 -1 151 -72q-46 91 -137 179zM302 60q100 0 145 84
q26 48 26 113v7q0 122 -78 173q-40 26 -92 26q-101 0 -146 -84q-26 -49 -26 -114v-8q0 -121 78 -171q40 -26 93 -26z" />
    <glyph glyph-name="ntilde" unicode="&#xf1;" horiz-adv-x="598" 
d="M84 0v523h83v-83q32 64 110 85q28 7 58 7q157 0 180 -157q4 -26 4 -54v-321h-83v327q0 115 -90 130q-16 3 -33 3q-81 0 -122 -59q-24 -36 -24 -84v-317h-83zM352 619q-23 0 -69 27q-26 16 -39 16q-25 0 -37 -33q-2 -7 -3 -12h-60q9 80 62 107q19 9 39 9q23 0 68 -27
q26 -16 39 -16q25 0 37 33q2 7 3 12h60q-9 -80 -62 -107q-18 -9 -38 -9z" />
    <glyph glyph-name="ograve" unicode="&#xf2;" 
d="M301 -9q-123 0 -197 90q-59 73 -59 176v8q0 132 90 208q70 59 167 59q123 0 197 -88q60 -74 60 -178v-8q0 -132 -90 -208q-70 -59 -168 -59zM302 60q100 0 145 84q26 48 26 113v7q0 121 -77 172q-41 27 -94 27q-101 0 -146 -85q-25 -49 -25 -113v-8q0 -121 78 -171
q40 -26 93 -26zM277 613l-104 147h104l62 -147h-62z" />
    <glyph glyph-name="oacute" unicode="&#xf3;" 
d="M301 -9q-123 0 -197 90q-59 73 -59 176v8q0 132 90 208q70 59 167 59q123 0 197 -88q60 -74 60 -178v-8q0 -132 -90 -208q-70 -59 -168 -59zM302 60q100 0 145 84q26 48 26 113v7q0 121 -77 172q-41 27 -94 27q-101 0 -146 -85q-25 -49 -25 -113v-8q0 -121 78 -171
q40 -26 93 -26zM265 613l62 147h104l-104 -147h-62z" />
    <glyph glyph-name="ocircumflex" unicode="&#xf4;" 
d="M301 -9q-123 0 -197 90q-59 73 -59 176v8q0 132 90 208q70 59 167 59q123 0 197 -88q60 -74 60 -178v-8q0 -132 -90 -208q-70 -59 -168 -59zM302 60q100 0 145 84q26 48 26 113v7q0 121 -77 172q-41 27 -94 27q-101 0 -146 -85q-25 -49 -25 -113v-8q0 -121 78 -171
q40 -26 93 -26zM157 613l108 144h75l107 -144h-61l-85 75l-85 -75h-59z" />
    <glyph glyph-name="otilde" unicode="&#xf5;" 
d="M301 -9q-123 0 -197 90q-59 73 -59 176v8q0 132 90 208q70 59 167 59q123 0 197 -88q60 -74 60 -178v-8q0 -132 -90 -208q-70 -59 -168 -59zM302 60q100 0 145 84q26 48 26 113v7q0 121 -77 172q-41 27 -94 27q-101 0 -146 -85q-25 -49 -25 -113v-8q0 -121 78 -171
q40 -26 93 -26zM356 619q-23 0 -69 27q-26 16 -39 16q-25 0 -37 -33q-2 -7 -3 -12h-60q9 80 62 107q19 9 39 9q23 0 68 -27q26 -16 39 -16q25 0 37 33q2 7 3 12h60q-9 -80 -62 -107q-18 -9 -38 -9z" />
    <glyph glyph-name="odieresis" unicode="&#xf6;" 
d="M301 -9q-123 0 -197 90q-59 73 -59 176v8q0 132 90 208q70 59 167 59q123 0 197 -88q60 -74 60 -178v-8q0 -132 -90 -208q-70 -59 -168 -59zM302 60q100 0 145 84q26 48 26 113v7q0 121 -77 172q-41 27 -94 27q-101 0 -146 -85q-25 -49 -25 -113v-8q0 -121 78 -171
q40 -26 93 -26zM396 634q-33 0 -48 30q-5 11 -5 23q0 33 30 48q11 5 23 5q33 0 48 -30q5 -11 5 -23q0 -33 -30 -48q-11 -5 -23 -5zM208 634q-33 0 -48 30q-5 11 -5 23q0 33 30 48q11 5 23 5q33 0 48 -30q5 -11 5 -23q0 -33 -30 -48q-11 -5 -23 -5z" />
    <glyph glyph-name="divide" unicode="&#xf7;" horiz-adv-x="519" 
d="M259 467q-39 0 -57 35q-7 14 -7 29q0 39 35 57q14 7 29 7q39 0 57 -35q7 -14 7 -29q0 -39 -35 -57q-14 -7 -29 -7zM36 307v70h447v-70h-447zM259 89q-39 0 -57 35q-7 14 -7 29q0 39 35 57q14 7 29 7q39 0 57 -35q7 -14 7 -29q0 -39 -35 -57q-14 -7 -29 -7z" />
    <glyph glyph-name="oslash" unicode="&#xf8;" 
d="M131 257q0 -65 24 -111l253 280q-44 37 -106 37q-101 0 -146 -85q-25 -49 -25 -113v-8zM302 60q100 0 145 84q26 48 26 113v7q0 66 -27 117l-256 -281q45 -40 112 -40zM67 -37l-44 38l77 85q-55 71 -55 171v8q0 132 90 208q70 59 167 59q91 -1 156 -50l68 74l44 -38
l-70 -77q59 -74 59 -175v-8q0 -132 -90 -208q-70 -59 -168 -59q-92 1 -160 54z" />
    <glyph glyph-name="ugrave" unicode="&#xf9;" horiz-adv-x="594" 
d="M261 -9q-134 0 -170 115q-12 38 -12 86v331h83v-327q0 -118 93 -131q14 -2 28 -2q77 0 118 56q26 37 26 87v317h83v-523h-83v83q-31 -63 -107 -84q-29 -8 -59 -8zM272 613l-104 147h104l62 -147h-62z" />
    <glyph glyph-name="uacute" unicode="&#xfa;" horiz-adv-x="594" 
d="M261 -9q-134 0 -170 115q-12 38 -12 86v331h83v-327q0 -118 93 -131q14 -2 28 -2q77 0 118 56q26 37 26 87v317h83v-523h-83v83q-31 -63 -107 -84q-29 -8 -59 -8zM260 613l62 147h104l-104 -147h-62z" />
    <glyph glyph-name="ucircumflex" unicode="&#xfb;" horiz-adv-x="594" 
d="M261 -9q-134 0 -170 115q-12 38 -12 86v331h83v-327q0 -118 93 -131q14 -2 28 -2q77 0 118 56q26 37 26 87v317h83v-523h-83v83q-31 -63 -107 -84q-29 -8 -59 -8zM152 613l108 144h75l107 -144h-61l-85 75l-85 -75h-59z" />
    <glyph glyph-name="udieresis" unicode="&#xfc;" horiz-adv-x="594" 
d="M261 -9q-134 0 -170 115q-12 38 -12 86v331h83v-327q0 -118 93 -131q14 -2 28 -2q77 0 118 56q26 37 26 87v317h83v-523h-83v83q-31 -63 -107 -84q-29 -8 -59 -8zM391 634q-33 0 -48 30q-5 11 -5 23q0 33 30 48q11 5 23 5q33 0 48 -30q5 -11 5 -23q0 -33 -30 -48
q-11 -5 -23 -5zM203 634q-33 0 -48 30q-5 11 -5 23q0 33 30 48q11 5 23 5q33 0 48 -30q5 -11 5 -23q0 -33 -30 -48q-11 -5 -23 -5z" />
    <glyph glyph-name="yacute" unicode="&#xfd;" horiz-adv-x="529" 
d="M131 -182l99 236l-205 469h89l160 -375l145 375h85l-289 -705h-84zM235 613l62 147h104l-104 -147h-62z" />
    <glyph glyph-name="thorn" unicode="&#xfe;" horiz-adv-x="627" 
d="M336 60q125 0 153 125q7 33 7 72v8q0 128 -81 177q-36 21 -80 21q-104 0 -148 -86q-23 -47 -23 -112v-8q0 -147 104 -186q31 -11 68 -11zM84 -182v955h83v-338q33 57 105 84q36 13 72 13q121 0 187 -91q51 -70 51 -172v-8q0 -144 -89 -218q-62 -52 -149 -52
q-106 0 -164 75q-7 10 -13 20v-268h-83z" />
    <glyph glyph-name="uni0401" unicode="&#x401;" horiz-adv-x="566" 
d="M90 0v715h417v-71h-330v-243h266v-71h-266v-259h348v-71h-435zM407 789q-33 0 -48 30q-5 11 -5 23q0 33 30 48q11 5 23 5q33 0 48 -30q5 -11 5 -23q0 -33 -30 -48q-11 -5 -23 -5zM204 789q-33 0 -48 30q-5 11 -5 23q0 33 30 48q11 5 23 5q33 0 48 -30q5 -11 5 -23
q0 -33 -30 -48q-11 -5 -23 -5z" />
    <glyph glyph-name="uni0402" unicode="&#x402;" horiz-adv-x="771" 
d="M324 372q67 62 174 62q159 0 207 -120q18 -46 18 -103q0 -159 -103 -205q-33 -15 -72 -15q-54 0 -84 19v72q37 -20 73 -20q79 0 96 96q4 24 4 52q0 137 -114 154q-18 2 -37 2q-92 -1 -162 -81v-285h-87v644h-208v71h513v-71h-218v-272z" />
    <glyph glyph-name="uni0403" unicode="&#x403;" horiz-adv-x="536" 
d="M90 0v715h408v-74h-321v-641h-87zM261 771l56 127h104l-98 -127h-62z" />
    <glyph glyph-name="uni0404" unicode="&#x404;" horiz-adv-x="730" 
d="M688 237q-26 -173 -173 -226q-57 -20 -126 -20q-176 0 -266 125q-68 95 -68 237v8q0 166 103 270q94 95 233 95q146 0 227 -88q54 -59 63 -146h-86q-25 153 -177 164q-13 1 -26 1q-128 0 -195 -102q-42 -64 -50 -154h346v-71h-347q7 -170 117 -235q55 -33 128 -33
q144 0 196 109q14 30 20 66h81z" />
    <glyph glyph-name="uni0405" unicode="&#x405;" horiz-adv-x="627" 
d="M321 -9q-230 0 -268 195q-3 16 -5 32h84q13 -101 78 -135q44 -22 111 -22q91 0 137 58q26 34 26 77q0 69 -47 99q-39 24 -126 38q-162 25 -211 95q-28 42 -28 102q0 94 80 150q63 44 150 44q166 0 223 -116q18 -36 23 -81h-78q-19 100 -105 120q-28 7 -63 7
q-106 0 -139 -68q-10 -22 -10 -48q0 -61 39 -88q39 -26 133 -40q156 -25 207 -89q36 -45 36 -119q0 -99 -83 -161q-69 -50 -164 -50z" />
    <glyph glyph-name="uni0406" unicode="&#x406;" horiz-adv-x="277" 
d="M95 0v715h87v-715h-87z" />
    <glyph glyph-name="uni0407" unicode="&#x407;" horiz-adv-x="277" 
d="M95 0v715h87v-715h-87zM239 789q-33 0 -48 30q-5 11 -5 23q0 33 30 48q11 5 23 5q33 0 48 -30q5 -11 5 -23q0 -33 -30 -48q-11 -5 -23 -5zM36 789q-33 0 -48 30q-5 11 -5 23q0 33 30 48q11 5 23 5q33 0 48 -30q5 -11 5 -23q0 -33 -30 -48q-11 -5 -23 -5z" />
    <glyph glyph-name="uni0408" unicode="&#x408;" horiz-adv-x="420" 
d="M138 -9q-64 0 -100 19v72q48 -20 95 -20q115 2 116 136v517h87v-521q0 -143 -110 -187q-40 -16 -88 -16z" />
    <glyph glyph-name="uni0409" unicode="&#x409;" horiz-adv-x="983" 
d="M502 0v642h-253q-5 -221 -16 -391q-14 -245 -152 -258q-9 -1 -17 -1l-39 8v84q6 0 39 -4q52 0 72 73q10 39 16 105q15 198 17 457h420v-291h106q174 0 228 -107q22 -43 22 -100v-4q0 -140 -123 -191q-56 -22 -127 -22h-193zM589 70h112q156 2 157 143v4q-4 136 -157 138
h-112v-285z" />
    <glyph glyph-name="uni040A" unicode="&#x40a;" horiz-adv-x="1023" 
d="M629 70h112q156 2 157 143v4q-4 136 -157 138h-112v-285zM542 0v318h-365v-318h-87v715h87v-324h365v324h87v-291h106q174 0 228 -107q22 -43 22 -100v-4q0 -140 -123 -191q-56 -22 -127 -22h-193z" />
    <glyph glyph-name="uni040B" unicode="&#x40b;" horiz-adv-x="781" 
d="M324 373l21 19q60 42 145 42q192 0 219 -185q5 -33 5 -71v-178h-87v187q0 124 -60 160q-33 19 -86 19q-98 0 -150 -64l-7 -10v-292h-87v644h-208v71h513v-71h-218v-271z" />
    <glyph glyph-name="uni040C" unicode="&#x40c;" horiz-adv-x="616" 
d="M281 771l56 127h104l-98 -127h-62zM90 0v715h87v-344l311 345h97l-318 -348l334 -368h-105l-319 349v-349h-87z" />
    <glyph glyph-name="uni040D" unicode="&#x40d;" horiz-adv-x="740" 
d="M177 0h-87v715h87v-595l386 595h87v-715h-87v595zM348 771l-98 127h104l56 -127h-62z" />
    <glyph glyph-name="uni040E" unicode="&#x40e;" horiz-adv-x="588" 
d="M309 767q-70 0 -109 59q-21 33 -23 73h72q13 -68 60 -74q51 0 64 60l2 14h70q-4 -72 -62 -110q-34 -22 -74 -22zM131 -8l-39 8v79q6 0 39 -4q73 0 115 71q6 11 12 23l-238 546h91l191 -446l194 446h82l-241 -546q-48 -108 -100 -146q-45 -31 -106 -31z" />
    <glyph glyph-name="uni040F" unicode="&#x40f;" horiz-adv-x="720" 
d="M322 0h-232v715h87v-642h366v642h87v-715h-232l-2 -130h-72z" />
    <glyph glyph-name="uni0410" unicode="&#x410;" horiz-adv-x="674" 
d="M335 643l-124 -368h248zM36 0l246 715h114l242 -715h-86l-70 206h-295l-69 -206h-82z" />
    <glyph glyph-name="uni0411" unicode="&#x411;" horiz-adv-x="622" 
d="M570 206q0 -137 -116 -185q-52 -21 -119 -21h-245v715h422v-71h-337v-231h159q217 0 235 -173q1 -15 1 -30v-4zM175 68h158q148 7 152 138v4q-2 134 -160 135h-150v-277z" />
    <glyph glyph-name="uni0412" unicode="&#x412;" horiz-adv-x="622" 
d="M90 0v715h215q228 -4 230 -185v-4q-2 -114 -108 -151q111 -27 135 -107q8 -28 8 -64v-4q0 -146 -133 -186q-46 -14 -102 -14h-245zM175 403h130q110 0 135 64q10 26 10 62v4q0 90 -86 109q-27 5 -61 5h-128v-244zM175 68h158q151 2 152 133v4q0 104 -101 125q-28 5 -63 5
h-146v-267z" />
    <glyph glyph-name="uni0413" unicode="&#x413;" horiz-adv-x="536" 
d="M90 0v715h408v-74h-321v-641h-87z" />
    <glyph glyph-name="uni0414" unicode="&#x414;" horiz-adv-x="697" 
d="M211 251q-9 -124 -47 -178h348v571h-280q-12 -263 -21 -393zM87 0l-5 -130h-72v203h45q49 15 67 106q6 32 11 79q8 88 13.5 202t7.5 184l1 71h442v-642h80v-203h-72l-5 130h-513z" />
    <glyph glyph-name="uni0415" unicode="&#x415;" horiz-adv-x="566" 
d="M90 0v715h417v-71h-330v-243h266v-71h-266v-259h348v-71h-435z" />
    <glyph glyph-name="uni0416" unicode="&#x416;" horiz-adv-x="879" 
d="M395 0v351l-279 -351h-97l291 363l-283 352h97l271 -346v346h85v-346l271 346h95l-279 -347l293 -368h-101l-279 351v-351h-85z" />
    <glyph glyph-name="uni0417" unicode="&#x417;" horiz-adv-x="595" 
d="M293 -9q-179 0 -235 147q-13 37 -18 80h84q15 -118 99 -147q31 -10 70 -10q123 0 155 90q9 27 9 59q0 85 -64 110q-39 15 -105 15h-91v66h91q136 3 138 131q0 102 -96 119q-17 3 -37 3q-97 0 -130 -69q-12 -25 -18 -58h-78q17 157 160 190q34 7 72 7q122 0 179 -80
q33 -48 33 -112q0 -89 -67 -136q-23 -16 -51 -24q120 -17 145 -115q5 -23 5 -47q0 -109 -86 -171q-68 -48 -164 -48z" />
    <glyph glyph-name="uni0418" unicode="&#x418;" horiz-adv-x="740" 
d="M177 0h-87v715h87v-595l386 595h87v-715h-87v595z" />
    <glyph glyph-name="uni0419" unicode="&#x419;" horiz-adv-x="740" 
d="M370 767q-70 0 -109 59q-21 33 -23 73h72q13 -68 60 -74q51 0 64 60l2 14h70q-4 -72 -62 -110q-34 -22 -74 -22zM177 0h-87v715h87v-595l386 595h87v-715h-87v595z" />
    <glyph glyph-name="uni041A" unicode="&#x41a;" horiz-adv-x="616" 
d="M90 0v715h87v-344l311 345h97l-318 -348l334 -368h-105l-319 349v-349h-87z" />
    <glyph glyph-name="uni041B" unicode="&#x41b;" horiz-adv-x="689" 
d="M233 251q-14 -245 -152 -258q-9 -1 -17 -1l-39 8v84q6 0 39 -4q52 0 72 73q10 39 16 105q15 198 17 457h430v-715h-87v642h-263q-5 -221 -16 -391z" />
    <glyph glyph-name="uni041C" unicode="&#x41c;" horiz-adv-x="856" 
d="M90 0v715h121l221 -557l214 557h120v-715h-87v602l-237 -602h-27l-245 602v-602h-80z" />
    <glyph glyph-name="uni041D" unicode="&#x41d;" horiz-adv-x="730" 
d="M90 0v715h87v-324h376v324h87v-715h-87v318h-376v-318h-87z" />
    <glyph glyph-name="uni041E" unicode="&#x41e;" horiz-adv-x="811" 
d="M409 -9q-159 0 -260 110q-94 104 -94 252v8q0 157 100 260t252 103q161 0 260 -112q89 -102 89 -249v-8q0 -157 -99 -261q-98 -103 -248 -103zM409 63q137 0 207 107q50 77 50 186v8q0 142 -85 224q-70 66 -174 66q-145 0 -215 -112q-47 -75 -47 -180v-8q0 -143 92 -226
q72 -65 172 -65z" />
    <glyph glyph-name="uni041F" unicode="&#x41f;" horiz-adv-x="720" 
d="M543 0v642h-366v-642h-87v715h540v-715h-87z" />
    <glyph glyph-name="uni0420" unicode="&#x420;" horiz-adv-x="581" 
d="M90 0v715h203q159 0 220 -95q30 -48 30 -114v-4q0 -148 -135 -194q-51 -17 -115 -17h-116v-291h-87zM177 360h122q134 0 154 106q3 17 3 36v4q-2 138 -157 139h-122v-285z" />
    <glyph glyph-name="uni0421" unicode="&#x421;" horiz-adv-x="730" 
d="M389 -9q-176 0 -266 125q-68 95 -68 237v8q0 166 103 270q94 95 233 95q146 0 227 -88q54 -59 63 -146h-86q-25 153 -177 164q-13 1 -26 1q-129 0 -197 -104q-50 -77 -50 -191v-8q0 -179 107 -253q59 -39 139 -39q144 0 196 109q14 30 20 66h81q-26 -173 -173 -226
q-57 -20 -126 -20z" />
    <glyph glyph-name="uni0422" unicode="&#x422;" horiz-adv-x="561" 
d="M237 0v644h-208v71h503v-71h-208v-644h-87z" />
    <glyph glyph-name="uni0423" unicode="&#x423;" horiz-adv-x="588" 
d="M131 -8l-39 8v79q6 0 39 -4q73 0 115 71q6 11 12 23l-238 546h91l191 -446l194 446h82l-241 -546q-48 -108 -100 -146q-45 -31 -106 -31z" />
    <glyph glyph-name="uni0424" unicode="&#x424;" horiz-adv-x="821" 
d="M453 623q254 -6 306 -170q13 -41 13 -89v-8q-4 -197 -198 -248q-55 -14 -121 -16v-102h-85v102q-254 6 -306 170q-13 41 -13 89v5q2 200 199 252q54 13 120 15v102h85v-102zM453 559v-401q149 5 199 80q29 46 31 119v8q0 155 -153 186q-35 7 -77 8zM368 156v401
q-147 -5 -197 -77q-32 -47 -33 -125v-5q0 -155 153 -186q35 -7 77 -8z" />
    <glyph glyph-name="uni0425" unicode="&#x425;" horiz-adv-x="657" 
d="M45 0l236 367l-220 348h96l178 -281l177 281h89l-222 -348l233 -367h-98l-191 301l-191 -301h-87z" />
    <glyph glyph-name="uni0426" unicode="&#x426;" horiz-adv-x="730" 
d="M710 -130h-72l-5 130h-543v715h87v-642h366v642h87v-642h80v-203z" />
    <glyph glyph-name="uni0427" unicode="&#x427;" horiz-adv-x="672" 
d="M582 0h-87v346l-31 -22q-75 -43 -166 -43q-146 0 -204 112q-30 60 -30 144v178h87v-187q0 -160 124 -177q15 -2 29 -2q41 0 75.5 9t55 21.5t35 24.5t20.5 21l5 9v281h87v-715z" />
    <glyph glyph-name="uni0428" unicode="&#x428;" horiz-adv-x="973" 
d="M90 0v715h87v-642h266v642h87v-642h266v642h87v-715h-793z" />
    <glyph glyph-name="uni0429" unicode="&#x429;" horiz-adv-x="983" 
d="M963 -130h-72l-5 130h-796v715h87v-642h266v642h87v-642h266v642h87v-642h80v-203z" />
    <glyph glyph-name="uni042A" unicode="&#x42a;" horiz-adv-x="716" 
d="M225 0v642h-196v73h283v-291h116q174 0 228 -107q22 -43 22 -100v-4q0 -140 -123 -191q-56 -22 -127 -22h-203zM312 70h122q156 2 157 143v4q-4 136 -157 138h-122v-285z" />
    <glyph glyph-name="uni042B" unicode="&#x42b;" horiz-adv-x="805" 
d="M715 715v-715h-87v715h87zM90 0v715h87v-291h111q174 0 228 -107q22 -43 22 -100v-4q0 -140 -123 -191q-56 -22 -127 -22h-198zM177 70h117q156 2 157 143v4q-4 136 -157 138h-117v-285z" />
    <glyph glyph-name="uni042C" unicode="&#x42c;" horiz-adv-x="581" 
d="M90 0v715h87v-291h116q174 0 228 -107q22 -43 22 -100v-4q0 -140 -123 -191q-56 -22 -127 -22h-203zM177 70h122q156 2 157 143v4q-4 136 -157 138h-122v-285z" />
    <glyph glyph-name="uni042D" unicode="&#x42d;" horiz-adv-x="730" 
d="M339 -9q-143 0 -227 83q-61 61 -70 151h86q29 -164 210 -165q128 0 196 102q45 69 50 168h-347v71h347q-13 173 -130 231q-49 23 -110 23q-156 0 -200 -129q-7 -22 -11 -46h-81q28 184 186 231q50 15 108 15q180 0 267 -131q62 -93 62 -231v-8q0 -166 -103 -270
q-94 -95 -233 -95z" />
    <glyph glyph-name="uni042E" unicode="&#x42e;" horiz-adv-x="1028" 
d="M636 -9q-163 0 -261 117q-72 87 -82 210h-116v-318h-87v715h87v-324h116q10 159 115 252q93 81 226 81q164 0 259 -118q80 -100 80 -243v-8q0 -162 -97 -265q-94 -99 -240 -99zM636 63q143 0 207 118q40 73 40 175v8q0 151 -87 231q-65 59 -162 59q-150 0 -215 -123
q-37 -71 -37 -169v-8q0 -149 91 -231q68 -60 163 -60z" />
    <glyph glyph-name="uni042F" unicode="&#x42f;" horiz-adv-x="626" 
d="M449 645h-122q-117 0 -146 -65q-11 -27 -11 -64v-4q2 -131 157 -132h122v265zM344 311l-226 -311h-98l234 317q-170 33 -171 195v4q0 164 174 193q36 6 76 6h203v-715h-87v311h-105z" />
    <glyph glyph-name="uni0430" unicode="&#x430;" horiz-adv-x="540" 
d="M223 57q97 0 136 60q19 29 19 66v65h-72q-181 -1 -182 -103q2 -87 99 -88zM215 -9q-115 0 -156 76q-18 34 -18 78q0 114 143 149q53 13 119 13h75v38q0 91 -60 111q-22 7 -52 7q-108 -2 -120 -94h-83q11 119 127 152q37 11 80 11q180 0 190 -167q1 -10 1 -20v-345h-83v66
q-56 -71 -149 -75h-14z" />
    <glyph glyph-name="uni0431" unicode="&#x431;" horiz-adv-x="612" 
d="M309 -9q-143 0 -210 113q-46 77 -46 194v42q0 263 109 362q70 62 183 68l20 1q122 7 160 21v-72q-43 -17 -159 -24l-15 -1q-150 -10 -201 -132q-25 -61 -32 -161h4q45 97 144 122q30 8 61 8q125 0 192 -96q48 -70 48 -167v-4q0 -149 -99 -224q-67 -50 -159 -50zM310 60
q109 0 151 95q20 46 20 109v2q0 151 -101 187q-28 10 -61 10q-109 0 -155 -89q-25 -49 -25 -115v-2q0 -119 77 -170q41 -27 94 -27z" />
    <glyph glyph-name="uni0432" unicode="&#x432;" horiz-adv-x="524" 
d="M84 0v523h183q183 -2 184 -133v-3q0 -66 -51 -98q-15 -9 -33 -14q108 -25 109 -118v-3q0 -118 -117 -146q-32 -8 -70 -8h-205zM266 457h-99v-155h100q80 0 94 51q3 14 3 30v3q0 58 -60 68q-17 3 -38 3zM281 236h-114v-170h114q101 0 107 71q1 6 1 12v3q0 77 -89 83
q-10 1 -19 1z" />
    <glyph glyph-name="uni0433" unicode="&#x433;" horiz-adv-x="446" 
d="M416 453h-249v-453h-83v523h332v-70z" />
    <glyph glyph-name="uni0434" unicode="&#x434;" horiz-adv-x="578" 
d="M186 202q-11 -92 -34 -132h245v385h-192q-6 -142 -19 -253zM88 0l-6 -127h-67v197h37q37 10 50 84q3 16 8 53q7 54 12.5 133t7.5 131l3 52h345v-453h80v-197h-67l-6 127h-397z" />
    <glyph glyph-name="uni0435" unicode="&#x435;" horiz-adv-x="568" 
d="M298 -9q-129 0 -200 93q-53 70 -53 172v8q0 136 88 212q66 56 157 56q125 0 188 -89q47 -67 47 -171v-27h-394q5 -161 130 -182q19 -3 38 -3q122 1 139 91h83q-19 -109 -127 -146q-44 -14 -96 -14zM134 312h306q-13 150 -150 151q-96 0 -137 -87q-14 -29 -19 -64z" />
    <glyph glyph-name="uni0436" unicode="&#x436;" horiz-adv-x="709" 
d="M314 0v269l-202 -269h-93l213 278l-194 245h89l187 -246v246h81v-246l187 246h90l-194 -245l213 -278h-94l-202 269v-269h-81z" />
    <glyph glyph-name="uni0437" unicode="&#x437;" horiz-adv-x="494" 
d="M421 390v-3q0 -59 -42 -92q-20 -15 -44 -20q89 -15 107 -86q4 -16 4 -32v-3q0 -93 -81 -137q-50 -26 -118 -26q-141 0 -188 95q-16 34 -18 75h81q9 -93 107 -100q9 -1 18 -1q111 1 112 89v3q0 77 -89 83q-10 1 -19 1h-79v66h65q80 0 94 51q3 14 3 30v3q0 70 -76 76
q-7 1 -14 1q-86 -2 -104 -82h-80q17 139 165 150q12 1 24 1q101 0 147 -62q25 -34 25 -80z" />
    <glyph glyph-name="uni0438" unicode="&#x438;" horiz-adv-x="591" 
d="M167 0h-83v523h83v-403l267 403h83v-523h-83v403z" />
    <glyph glyph-name="uni0439" unicode="&#x439;" horiz-adv-x="591" 
d="M299 619q-70 0 -109 59q-21 33 -23 73h72q13 -68 60 -74q51 0 64 60l2 14h70q-4 -72 -62 -110q-34 -22 -74 -22zM167 0h-83v523h83v-403l267 403h83v-523h-83v403z" />
    <glyph glyph-name="uni043A" unicode="&#x43a;" horiz-adv-x="516" 
d="M399 0l-232 267v-267h-83v523h83v-244l217 244h97l-224 -246l243 -277h-101z" />
    <glyph glyph-name="uni043B" unicode="&#x43b;" horiz-adv-x="552" 
d="M184 202q-13 -153 -69 -191q-25 -16 -60 -16q-12 0 -20.5 1.5t-11.5 2.5l-3 1v79q4 0 28 -4q40 0 53 79q4 21 7 53q12 122 15 316h345v-523h-83v453h-188q-5 -159 -13 -251z" />
    <glyph glyph-name="uni043C" unicode="&#x43c;" horiz-adv-x="705" 
d="M327 0l-171 441v-441h-71v523h119l148 -391l152 391h116v-523h-82v441l-173 -441h-38z" />
    <glyph glyph-name="uni043D" unicode="&#x43d;" horiz-adv-x="591" 
d="M424 0v233h-257v-233h-83v523h83v-220h257v220h83v-523h-83z" />
    <glyph glyph-name="uni043E" unicode="&#x43e;" 
d="M301 -9q-123 0 -197 90q-59 73 -59 176v8q0 132 90 208q70 59 167 59q123 0 197 -88q60 -74 60 -178v-8q0 -132 -90 -208q-70 -59 -168 -59zM302 60q100 0 145 84q26 48 26 113v7q0 121 -77 172q-41 27 -94 27q-101 0 -146 -85q-25 -49 -25 -113v-8q0 -121 78 -171
q40 -26 93 -26z" />
    <glyph glyph-name="uni043F" unicode="&#x43f;" horiz-adv-x="581" 
d="M414 0v453h-247v-453h-83v523h413v-523h-83z" />
    <glyph glyph-name="uni0440" unicode="&#x440;" horiz-adv-x="627" 
d="M336 60q125 0 153 125q7 33 7 72v8q0 128 -81 177q-36 21 -80 21q-104 0 -148 -86q-23 -47 -23 -112v-8q0 -147 104 -186q31 -11 68 -11zM84 -182v705h83v-88q33 57 105 84q36 13 72 13q121 0 187 -91q51 -70 51 -172v-8q0 -144 -89 -218q-62 -52 -149 -52
q-106 0 -164 75q-7 10 -13 20v-268h-83z" />
    <glyph glyph-name="uni0441" unicode="&#x441;" horiz-adv-x="570" 
d="M301 -9q-126 0 -198 89q-58 71 -58 176v8q0 131 89 208q71 60 165 60q136 0 195 -90q25 -40 32 -93h-82q-17 106 -129 113q-8 1 -16 1q-88 0 -135 -74q-33 -52 -33 -125v-8q0 -131 88 -177q37 -19 83 -19q83 0 125 59q21 30 25 69h77q-10 -102 -93 -158q-59 -39 -135 -39
z" />
    <glyph glyph-name="uni0442" unicode="&#x442;" horiz-adv-x="481" 
d="M451 523v-70h-169v-453h-83v453h-169v70h421z" />
    <glyph glyph-name="uni0443" unicode="&#x443;" horiz-adv-x="529" 
d="M131 -182l99 236l-205 469h89l160 -375l145 375h85l-289 -705h-84z" />
    <glyph glyph-name="uni0444" unicode="&#x444;" horiz-adv-x="708" 
d="M395 531q139 -7 213 -97q55 -69 55 -168v-8q0 -149 -113 -220q-66 -42 -155 -46v-174h-82v174q-139 7 -213 97q-55 69 -55 168v8q0 149 113 220q66 42 155 46v242h82v-242zM313 56v412q-108 -4 -156 -88q-27 -48 -27 -114v-7q0 -130 94 -180q40 -21 89 -23zM395 467v-412
q108 4 156 88q27 48 27 114v7q0 130 -94 180q-40 21 -89 23z" />
    <glyph glyph-name="uni0445" unicode="&#x445;" horiz-adv-x="528" 
d="M28 0l187 269l-175 254h97l128 -190l127 190h90l-173 -248l191 -275h-98l-141 211l-144 -211h-89z" />
    <glyph glyph-name="uni0446" unicode="&#x446;" horiz-adv-x="597" 
d="M577 -127h-67l-6 127h-420v523h83v-453h247v453h83v-453h80v-197z" />
    <glyph glyph-name="uni0447" unicode="&#x447;" horiz-adv-x="556" 
d="M472 0h-83v244q-55 -58 -150 -58q-108 0 -152 88q-23 47 -23 113v136h83v-132q2 -132 114 -133q84 1 128 58v207h83v-523z" />
    <glyph glyph-name="uni0448" unicode="&#x448;" horiz-adv-x="811" 
d="M84 0v523h83v-453h197v453h83v-453h197v453h83v-523h-643z" />
    <glyph glyph-name="uni0449" unicode="&#x449;" horiz-adv-x="827" 
d="M807 -127h-67l-6 127h-650v523h83v-453h197v453h83v-453h197v453h83v-453h80v-197z" />
    <glyph glyph-name="uni044A" unicode="&#x44a;" horiz-adv-x="589" 
d="M179 0v453h-149v70h232v-183h93q149 0 188 -98q12 -30 12 -68v-3q0 -119 -108 -157q-42 -14 -92 -14h-176zM262 66h98q101 0 111 83q1 11 1 22v3q0 91 -89 100q-12 1 -23 1h-98v-209z" />
    <glyph glyph-name="uni044B" unicode="&#x44b;" horiz-adv-x="701" 
d="M534 0v523h83v-523h-83zM84 0v523h83v-183h93q149 0 188 -98q12 -30 12 -68v-3q0 -119 -108 -157q-42 -14 -92 -14h-176zM167 66h98q101 0 111 83q1 11 1 22v3q0 91 -89 100q-12 1 -23 1h-98v-209z" />
    <glyph glyph-name="uni044C" unicode="&#x44c;" horiz-adv-x="494" 
d="M84 0v523h83v-183h93q129 0 178 -81q22 -39 22 -90v-3q0 -129 -129 -159q-33 -7 -71 -7h-176zM167 65h98q104 0 111 86q1 8 1 15v3q0 93 -85 103q-13 2 -27 2h-98v-209z" />
    <glyph glyph-name="uni044D" unicode="&#x44d;" horiz-adv-x="570" 
d="M277 -9q-149 0 -206 99q-21 37 -27 84h82q19 -113 151 -114q84 0 130 76q26 43 31 99h-265v65h265q-12 127 -114 156q-26 7 -56 7q-87 0 -128 -68q-16 -27 -22 -60h-77q10 102 93 158q59 39 135 39q141 0 210 -98q46 -67 46 -162v-8q0 -129 -87 -209q-69 -64 -161 -64z
" />
    <glyph glyph-name="uni044E" unicode="&#x44e;" horiz-adv-x="784" 
d="M491 -9q-125 0 -194 94q-40 56 -49 131q-2 10 -2 17h-79v-233h-83v523h83v-220h80q14 130 109 191q59 38 136 38q127 0 196 -95q51 -71 51 -171v-8q0 -140 -91 -214q-65 -53 -157 -53zM492 60q107 0 145 98q16 44 16 99v7q0 135 -83 181q-35 18 -78 18q-109 0 -146 -101
q-15 -43 -15 -97v-8q0 -137 87 -181q33 -16 74 -16z" />
    <glyph glyph-name="uni044F" unicode="&#x44f;" horiz-adv-x="523" 
d="M356 457h-98q-111 -2 -112 -95v-3q0 -85 97 -91h15h98v189zM266 205l-146 -205h-95l159 219q-115 23 -121 129v11v3q0 117 115 150q39 11 85 11h176v-523h-83v205h-90z" />
    <glyph glyph-name="uni0451" unicode="&#x451;" horiz-adv-x="568" 
d="M384 634q-33 0 -48 30q-5 11 -5 23q0 33 30 48q11 5 23 5q33 0 48 -30q5 -11 5 -23q0 -33 -30 -48q-11 -5 -23 -5zM196 634q-33 0 -48 30q-5 11 -5 23q0 33 30 48q11 5 23 5q33 0 48 -30q5 -11 5 -23q0 -33 -30 -48q-11 -5 -23 -5zM298 -9q-129 0 -200 93q-53 70 -53 172
v8q0 136 88 212q66 56 157 56q125 0 188 -89q47 -67 47 -171v-27h-394q5 -161 130 -182q19 -3 38 -3q122 1 139 91h83q-19 -109 -127 -146q-44 -14 -96 -14zM134 312h306q-13 150 -150 151q-96 0 -137 -87q-14 -29 -19 -64z" />
    <glyph glyph-name="uni0452" unicode="&#x452;" horiz-adv-x="598" 
d="M436 -40v367q0 115 -90 130q-16 3 -33 3q-81 0 -122 -59q-24 -36 -24 -84v-317h-83v615h-75v61h75v97h83v-97h178v-61h-178v-175q32 64 110 85q28 7 58 7q157 0 180 -157q4 -26 4 -54v-354q0 -121 -96 -149q-28 -8 -64 -9v70q70 6 76 66q1 8 1 15z" />
    <glyph glyph-name="uni0453" unicode="&#x453;" horiz-adv-x="446" 
d="M416 453h-249v-453h-83v523h332v-70zM211 613l62 147h104l-104 -147h-62z" />
    <glyph glyph-name="uni0454" unicode="&#x454;" horiz-adv-x="570" 
d="M529 188q-10 -102 -93 -158q-59 -39 -135 -39q-126 0 -198 89q-58 71 -58 176v8q0 131 89 208q71 60 165 60q136 0 195 -90q25 -40 32 -93h-82q-17 106 -129 113q-8 1 -16 1q-89 0 -136 -76q-23 -37 -30 -86h263v-65h-264q8 -124 99 -163q32 -13 71 -13q83 0 125 59
q21 30 25 69h77z" />
    <glyph glyph-name="uni0455" unicode="&#x455;" horiz-adv-x="480" 
d="M246 -9q-139 0 -186 94q-17 34 -19 76h81q14 -99 123 -101q110 7 114 83q0 50 -54 71q-25 9 -68 17q-127 23 -161 73q-21 31 -21 81q0 82 80 124q46 23 97 23q156 0 185 -129q3 -11 4 -22h-80q-14 67 -74 79q-17 3 -36 3q-71 0 -92 -45q-7 -14 -7 -30q0 -42 39 -60
q27 -13 83 -23q108 -20 145 -54q39 -35 39 -101q0 -104 -93 -142q-42 -17 -99 -17z" />
    <glyph glyph-name="uni0456" unicode="&#x456;" horiz-adv-x="255" 
d="M126 632q-34 0 -49 31q-6 12 -6 24q0 34 31 49q12 6 24 6q34 0 49 -31q6 -12 6 -24q0 -34 -31 -49q-12 -6 -24 -6zM86 0v523h83v-523h-83z" />
    <glyph glyph-name="uni0457" unicode="&#x457;" horiz-adv-x="255" 
d="M217 634q-33 0 -48 30q-5 11 -5 23q0 33 30 48q11 5 23 5q33 0 48 -30q5 -11 5 -23q0 -33 -30 -48q-11 -5 -23 -5zM37 634q-33 0 -48 30q-5 11 -5 23q0 33 30 48q11 5 23 5q33 0 48 -30q5 -11 5 -23q0 -33 -30 -48q-11 -5 -23 -5zM86 0v523h83v-523h-83z" />
    <glyph glyph-name="uni0458" unicode="&#x458;" horiz-adv-x="255" 
d="M126 632q-34 0 -49 31q-6 12 -6 24q0 34 31 49q12 6 24 6q34 0 49 -31q6 -12 6 -24q0 -34 -31 -49q-12 -6 -24 -6zM9 -191v70q70 6 76 66q1 8 1 15v563h83v-556q0 -121 -96 -149q-28 -8 -64 -9z" />
    <glyph glyph-name="uni0459" unicode="&#x459;" horiz-adv-x="774" 
d="M374 0v453h-177q-5 -159 -13 -251q-13 -153 -69 -191q-25 -16 -60 -16q-12 0 -20.5 1.5t-11.5 2.5l-3 1v79q4 0 28 -4q40 0 53 79q4 21 7 53q12 122 15 316h334v-183h83q149 0 188 -98q12 -30 12 -68v-3q0 -119 -108 -157q-42 -14 -92 -14h-166zM457 66h88q101 0 111 83
q1 11 1 22v3q0 91 -89 100q-12 1 -23 1h-88v-209z" />
    <glyph glyph-name="uni045A" unicode="&#x45a;" horiz-adv-x="814" 
d="M497 66h88q101 0 111 83q1 11 1 22v3q0 91 -89 100q-12 1 -23 1h-88v-209zM414 0v233h-247v-233h-83v523h83v-220h247v220h83v-183h83q149 0 188 -98q12 -30 12 -68v-3q0 -119 -108 -157q-42 -14 -92 -14h-166z" />
    <glyph glyph-name="uni045B" unicode="&#x45b;" horiz-adv-x="598" 
d="M9 615v61h75v97h83v-97h178v-61h-178v-175q32 64 110 85q28 7 58 7q157 0 180 -157q4 -26 4 -54v-321h-83v327q0 115 -90 130q-16 3 -33 3q-81 0 -122 -59q-24 -36 -24 -84v-317h-83v615h-75z" />
    <glyph glyph-name="uni045C" unicode="&#x45c;" horiz-adv-x="516" 
d="M241 613l62 147h104l-104 -147h-62zM399 0l-232 267v-267h-83v523h83v-244l217 244h97l-224 -246l243 -277h-101z" />
    <glyph glyph-name="uni045D" unicode="&#x45d;" horiz-adv-x="601" 
d="M167 0h-83v523h83v-403l267 403h83v-523h-83v403zM277 613l-104 147h104l62 -147h-62z" />
    <glyph glyph-name="uni045E" unicode="&#x45e;" horiz-adv-x="529" 
d="M274 619q-70 0 -109 59q-21 33 -23 73h72q13 -68 60 -74q51 0 64 60l2 14h70q-4 -72 -62 -110q-34 -22 -74 -22zM131 -182l99 236l-205 469h89l160 -375l145 375h85l-289 -705h-84z" />
    <glyph glyph-name="uni045F" unicode="&#x45f;" horiz-adv-x="581" 
d="M255 0h-171v523h83v-453h247v453h83v-523h-171l-2 -127h-66z" />
    <glyph glyph-name="uni0490" unicode="&#x490;" horiz-adv-x="536" 
d="M498 642h-321v-642h-87v715h331l5 134h72v-207z" />
    <glyph glyph-name="uni0491" unicode="&#x491;" horiz-adv-x="429" 
d="M396 453h-229v-453h-83v523h239l6 134h67v-204z" />
    </font>
</defs>
</svg>
