<?xml version="1.0" standalone="no"?>
<!DOCTYPE svg PUBLIC "-//W3C//DTD SVG 1.1//EN" "http://www.w3.org/Graphics/SVG/1.1/DTD/svg11.dtd" >
<svg xmlns="http://www.w3.org/2000/svg" xmlns:xlink="http://www.w3.org/1999/xlink" version="1.1">
<metadata>
Created by FontForge 20170731 at Thu Apr 21 23:02:53 2016
 By Aleksey,,,
Copyright (C)2015 Commercial Type.
</metadata>
<defs>
<font id="GraphikLC-Medium" horiz-adv-x="814" >
  <font-face 
    font-family="Graphik RBC LC Medium"
    font-weight="500"
    font-stretch="normal"
    units-per-em="1000"
    panose-1="2 11 6 3 3 2 2 6 2 3"
    ascent="818"
    descent="-182"
    x-height="523"
    cap-height="715"
    bbox="-27 -219 1019 971"
    underline-thickness="66"
    underline-position="-224"
    unicode-range="U+0020-0491"
  />
<missing-glyph horiz-adv-x="364" 
d="M33 0v666h265v-666h-265zM66 33h199v600h-199v-600z" />
    <glyph glyph-name=".notdef" horiz-adv-x="364" 
d="M33 0v666h265v-666h-265zM66 33h199v600h-199v-600z" />
    <glyph glyph-name=".null" horiz-adv-x="0" 
 />
    <glyph glyph-name="nonmarkingreturn" horiz-adv-x="333" 
 />
    <glyph glyph-name="space" unicode=" " horiz-adv-x="238" 
 />
    <glyph glyph-name="exclam" unicode="!" horiz-adv-x="305" 
d="M104 215l-18 500h135l-19 -500h-98zM152 -7q-47 0 -70 39q-10 18 -10 38q0 46 41 68q18 10 39 10q48 0 71 -40q10 -18 10 -38q0 -45 -41 -67q-19 -10 -40 -10z" />
    <glyph glyph-name="quotedbl" unicode="&#x22;" horiz-adv-x="409" 
d="M70 458l-17 257h121l-17 -257h-87zM253 458l-18 257h121l-17 -257h-86z" />
    <glyph glyph-name="numbersign" unicode="#" horiz-adv-x="532" 
d="M231 474l-16 -110h83l16 110h-83zM259 99l24 167h-83l-24 -167h-89l24 167h-77v98h92l16 110h-82v95h96l22 146h88l-21 -146h83l22 146h89l-22 -146h81v-95h-95l-16 -110h85v-98h-100l-24 -167h-89z" />
    <glyph glyph-name="dollar" unicode="$" horiz-adv-x="635" 
d="M179 531q0 -55 40 -77q25 -14 67 -23v197q-81 -9 -102 -66q-5 -15 -5 -31zM464 199q0 57 -42 81q-25 13 -69 23v-214q78 11 103 69q8 20 8 41zM286 -135v126q-206 14 -243 189q-4 20 -6 41h124q10 -84 62 -113q27 -14 63 -19v225q-157 27 -202 106q-23 42 -23 100
q0 102 87 160q58 37 138 43v90h67v-91q181 -17 215 -168q4 -17 6 -35h-118q-16 90 -100 105q-2 1 -3 1v-205q156 -25 205 -98q29 -45 29 -111q0 -108 -86 -171q-61 -43 -148 -49v-126h-67z" />
    <glyph glyph-name="percent" unicode="%" horiz-adv-x="801" 
d="M204 375q-88 0 -139 66q-35 47 -35 107q0 88 68 139q48 35 107 35q86 0 137 -65q36 -46 36 -107q0 -90 -68 -141q-46 -34 -106 -34zM128 0l461 715h84l-460 -715h-85zM205 456q58 0 72 60q4 16 4 33q0 72 -51 89q-12 4 -25 4q-60 0 -74 -61q-3 -15 -3 -32q0 -79 58 -91
q10 -2 19 -2zM596 -10q-88 0 -139 67q-34 46 -34 106q0 88 68 139q47 35 106 35q86 0 137 -64q37 -47 37 -108q0 -90 -69 -141q-46 -34 -106 -34zM597 71q58 0 72 60q4 16 4 33q0 72 -51 89q-12 4 -25 4q-60 0 -74 -61q-3 -15 -3 -32q0 -79 58 -91q10 -2 19 -2z" />
    <glyph glyph-name="ampersand" unicode="&#x26;" horiz-adv-x="716" 
d="M267 547q1 -41 54 -105q75 35 90 82q5 17 5 37q0 48 -40 65q-14 6 -30 6q-56 0 -74 -50q-5 -16 -5 -35zM293 91q70 1 120 59l-152 185q-71 -36 -86 -89q-5 -18 -5 -38q0 -84 71 -109q23 -8 52 -8zM685 370l-117 -224l120 -146h-153l-60 73q-81 -82 -196 -82
q-131 0 -195 81q-40 52 -40 123q0 121 126 194q17 9 35 18q-56 74 -56 141q0 101 88 147q48 26 109 26q95 0 147 -61q33 -40 33 -94q-2 -118 -149 -182l126 -154l73 140h109z" />
    <glyph glyph-name="quotesingle" unicode="'" horiz-adv-x="229" 
d="M70 458l-17 257h123l-17 -257h-89z" />
    <glyph glyph-name="parenleft" unicode="(" horiz-adv-x="335" 
d="M213 -148q-166 198 -166 461q1 264 166 461h106q-152 -204 -152 -461q1 -259 152 -461h-106z" />
    <glyph glyph-name="parenright" unicode=")" horiz-adv-x="335" 
d="M17 -146q151 205 151 461q-1 257 -151 461h105q166 -198 166 -461q-1 -264 -166 -461h-105z" />
    <glyph glyph-name="asterisk" unicode="*" horiz-adv-x="429" 
d="M149 394l-77 55l85 102l-120 23l27 89l114 -50l-13 130h100l-13 -130l114 50l26 -89l-121 -23l85 -102l-76 -55l-67 118z" />
    <glyph glyph-name="plus" unicode="+" horiz-adv-x="539" 
d="M219 96v198h-182v94h182v198h101v-198h183v-94h-183v-198h-101z" />
    <glyph glyph-name="comma" unicode="," horiz-adv-x="292" 
d="M103 -123l-75 33l91 237l115 -46z" />
    <glyph glyph-name="hyphen" unicode="-" horiz-adv-x="353" 
d="M56 229v100h240v-100h-240z" />
    <glyph glyph-name="period" unicode="." horiz-adv-x="289" 
d="M144 -7q-47 0 -69 40q-10 18 -10 38q0 47 41 69q18 10 38 10q48 0 71 -41q9 -18 9 -38q0 -47 -42 -69q-18 -9 -38 -9z" />
    <glyph glyph-name="slash" unicode="/" horiz-adv-x="415" 
d="M-6 -148l301 924h103l-302 -924h-102z" />
    <glyph glyph-name="zero" unicode="0" horiz-adv-x="701" 
d="M351 -10q-156 0 -237 119q-63 91 -63 230v36q0 190 111 285q78 65 189 65q156 0 237 -119q62 -91 62 -228v-36q0 -196 -113 -290q-76 -62 -186 -62zM354 96q162 2 163 246v35q0 177 -94 227q-32 17 -71 17q-125 0 -157 -145q-10 -44 -10 -100v-36q0 -201 119 -237
q24 -7 50 -7z" />
    <glyph glyph-name="one" unicode="1" horiz-adv-x="419" 
d="M183 0v583l-151 -103v117l166 118h119v-715h-134z" />
    <glyph glyph-name="two" unicode="2" horiz-adv-x="578" 
d="M15 0v24l270 285q102 108 108 190q1 7 1 13q0 83 -68 104q-18 5 -39 5q-110 0 -128 -140v-2h-122q9 160 127 219q55 27 127 27q141 0 202 -92q34 -51 34 -119q0 -117 -130 -246l-10 -10l-159 -155h304v-103h-517z" />
    <glyph glyph-name="three" unicode="3" horiz-adv-x="623" 
d="M304 -10q-167 0 -234 110q-32 52 -35 121h121q11 -113 113 -129q16 -2 32 -2q121 0 134 93q2 12 2 23q-2 116 -129 117h-55v95h51q118 2 119 105q0 71 -62 93q-22 8 -49 8q-88 0 -120 -71q-10 -22 -13 -47h-118q6 114 95 175q66 44 158 44q134 0 199 -82q37 -48 37 -110
q-1 -112 -116 -156q103 -24 130 -114q8 -28 8 -59q0 -121 -106 -178q-67 -36 -162 -36z" />
    <glyph glyph-name="four" unicode="4" horiz-adv-x="641" 
d="M385 0v145h-354v47l316 523h167v-471h96v-99h-96v-145h-129zM173 244h214v370z" />
    <glyph glyph-name="five" unicode="5" horiz-adv-x="604" 
d="M291 -10q-174 0 -232 122q-19 42 -23 93h124q13 -81 67 -102q27 -10 63 -10q88 0 117 77q12 31 12 68q0 93 -67 127q-28 14 -62 14q-96 -1 -149 -62h-68l6 398h434v-105h-332l-1 -194q54 60 154 60q119 0 179 -90q41 -61 41 -150q0 -131 -98 -199q-69 -47 -165 -47z" />
    <glyph glyph-name="six" unicode="6" horiz-adv-x="641" 
d="M331 -10q-232 0 -272 235q-8 47 -8 100v17q0 217 117 319q75 64 179 64q161 0 214 -120q14 -31 19 -69h-124q-17 70 -75 83q-16 3 -35 3q-102 0 -142 -116q-19 -56 -21 -132q56 91 177 92q120 0 186 -84q49 -62 49 -149q0 -130 -97 -196q-69 -47 -167 -47zM329 88
q80 0 116 65q18 34 18 77q0 91 -65 127q-31 17 -69 17q-79 0 -117 -60q-21 -34 -21 -76q0 -98 71 -135q30 -15 67 -15z" />
    <glyph glyph-name="seven" unicode="7" horiz-adv-x="545" 
d="M132 0l230 607h-333v108h500v-16l-260 -699h-137z" />
    <glyph glyph-name="eight" unicode="8" horiz-adv-x="627" 
d="M314 -10q-135 0 -211 73q-57 56 -57 139q0 111 96 165q18 10 38 17q-95 37 -105 129q-1 11 -1 20q0 99 92 154q65 38 148 38q117 0 187 -67q52 -51 52 -123q-1 -104 -106 -150q117 -42 131 -151q2 -14 2 -28q0 -119 -106 -178q-68 -38 -160 -38zM316 423q73 0 100 55
q11 22 11 49q0 61 -55 89q-26 13 -58 13q-69 0 -99 -50q-14 -24 -14 -53q0 -65 59 -92q26 -11 56 -11zM314 90q84 0 118 61q15 28 15 63q0 80 -69 110q-29 12 -63 12q-80 0 -116 -56q-19 -29 -19 -67q0 -78 68 -109q30 -14 66 -14z" />
    <glyph glyph-name="nine" unicode="9" horiz-adv-x="642" 
d="M311 342q81 0 119 61q19 32 19 72q0 99 -71 136q-31 16 -68 16q-81 0 -116 -67q-17 -33 -17 -75q0 -91 66 -127q30 -16 68 -16zM302 -9q-171 0 -229 121q-15 34 -21 74h125q20 -87 110 -92h13q155 2 159 245q-56 -89 -176 -90q-123 0 -190 84q-47 62 -47 148
q0 130 96 198q69 47 169 47q194 0 255 -172q24 -69 24 -160v-37q0 -246 -141 -329q-63 -37 -147 -37z" />
    <glyph glyph-name="colon" unicode=":" horiz-adv-x="297" 
d="M148 285q-47 0 -69 41q-10 18 -10 38q0 47 41 69q18 9 38 9q48 0 71 -40q9 -18 9 -38q0 -46 -40 -69q-19 -10 -40 -10zM148 -7q-47 0 -69 40q-10 18 -10 38q0 47 41 69q18 10 38 10q48 0 71 -41q9 -18 9 -38q0 -47 -42 -69q-18 -9 -38 -9z" />
    <glyph glyph-name="semicolon" unicode=";" horiz-adv-x="303" 
d="M163 285q-48 0 -71 41q-9 18 -9 38q0 47 42 69q18 9 38 9q47 0 70 -39q10 -19 10 -39q0 -46 -41 -69q-18 -10 -39 -10zM91 -123l-74 33l91 237l114 -46z" />
    <glyph glyph-name="less" unicode="&#x3c;" horiz-adv-x="507" 
d="M447 81l-398 228v26l398 228v-112l-234 -128l234 -131v-111z" />
    <glyph glyph-name="equal" unicode="=" horiz-adv-x="513" 
d="M39 371v92h434v-92h-434zM39 185v91h434v-91h-434z" />
    <glyph glyph-name="greater" unicode="&#x3e;" horiz-adv-x="507" 
d="M60 81v113l234 128l-234 131v111l399 -229v-25z" />
    <glyph glyph-name="question" unicode="?" horiz-adv-x="516" 
d="M175 215v38q0 71 67 141q10 11 34 34q53 53 64 83q6 15 6 30q0 77 -75 83q-7 1 -14 1q-70 0 -99 -64q-10 -22 -13 -49h-116q7 123 101 179q58 34 133 34q141 0 190 -92q20 -37 20 -83q0 -70 -66 -139q-9 -10 -22 -22q-60 -57 -76 -81q-20 -31 -22 -61v-32h-112zM230 -7
q-48 0 -72 40q-10 18 -10 37q0 46 41 68q20 10 41 10q47 0 70 -39q10 -19 10 -39q0 -45 -41 -67q-18 -10 -39 -10z" />
    <glyph glyph-name="at" unicode="@" horiz-adv-x="917" 
d="M460 -151q-203 0 -321 132q-100 113 -100 276q0 177 120 300q111 114 271 130q23 2 45 2q184 0 299 -110q105 -103 105 -255q0 -167 -101 -234q-46 -29 -98 -29q-103 0 -125 71q-2 7 -3 13q-38 -71 -112 -86q-16 -3 -31 -3q-98 0 -140 80q-22 43 -22 99q0 119 76 186
q53 47 121 47q88 -1 117 -65l7 57h108l-31 -260q-9 -73 46 -74q59 0 90 71q22 50 22 126q0 154 -111 236q-87 63 -217 63q-158 0 -259 -106q-97 -102 -97 -259q0 -159 99 -254q93 -87 243 -87q150 1 244 84h83q-60 -95 -194 -133q-64 -18 -134 -18zM439 141q54 0 86 54
q23 39 23 91q0 90 -79 96h-10q-55 0 -84 -59q-17 -37 -17 -85q0 -70 49 -91q15 -6 32 -6z" />
    <glyph glyph-name="A" unicode="A" horiz-adv-x="703" 
d="M345 606l-106 -332h211zM27 0l239 715h174l236 -715h-138l-57 177h-273l-56 -177h-125z" />
    <glyph glyph-name="B" unicode="B" horiz-adv-x="645" 
d="M82 0v715h256q233 -2 234 -186v-4q-2 -117 -113 -152q126 -27 141 -136q2 -16 2 -33v-4q0 -162 -166 -193q-36 -7 -79 -7h-275zM212 414h110q97 0 116 60q6 19 6 45v4q0 81 -81 94q-20 3 -43 3h-108v-206zM212 95h129q129 2 130 114v4q0 95 -98 108q-19 3 -41 3h-120
v-229z" />
    <glyph glyph-name="C" unicode="C" horiz-adv-x="741" 
d="M395 -10q-198 0 -289 138q-60 91 -60 225v8q0 167 107 271q97 94 240 94q170 0 252 -104q47 -61 55 -146h-135q-31 140 -171 144q-116 0 -172 -100q-36 -65 -36 -158v-8q0 -169 102 -229q46 -27 107 -27q126 0 168 97q11 25 15 54h130q-21 -170 -163 -231
q-66 -28 -150 -28z" />
    <glyph glyph-name="D" unicode="D" horiz-adv-x="714" 
d="M82 0v715h217q232 0 323 -155q47 -82 47 -195v-9q0 -197 -132 -290q-94 -66 -240 -66h-215zM215 105h78q194 0 229 171q8 37 8 79v8q-2 246 -238 247h-77v-505z" />
    <glyph glyph-name="E" unicode="E" horiz-adv-x="584" 
d="M82 0v715h447v-105h-314v-196h252v-100h-252v-209h331v-105h-464z" />
    <glyph glyph-name="F" unicode="F" horiz-adv-x="559" 
d="M82 0v715h443v-106h-310v-213h244v-103h-244v-293h-133z" />
    <glyph glyph-name="G" unicode="G" horiz-adv-x="775" 
d="M403 -10q-191 0 -287 130q-70 95 -70 233v8q0 166 107 269q100 96 250 96q169 0 252 -100q46 -58 56 -141h-133q-24 135 -173 136q-130 0 -187 -108q-34 -64 -34 -153v-8q0 -172 108 -231q48 -27 113 -27q142 0 181 113q10 31 12 67h-180v100h311v-66q0 -179 -123 -263
q-83 -55 -203 -55z" />
    <glyph glyph-name="H" unicode="H" horiz-adv-x="751" 
d="M82 0v715h133v-304h321v304h134v-715h-134v304h-321v-304h-133z" />
    <glyph glyph-name="I" unicode="I" horiz-adv-x="307" 
d="M86 0v715h134v-715h-134z" />
    <glyph glyph-name="J" unicode="J" horiz-adv-x="443" 
d="M148 -9q-72 0 -112 21v104q46 -18 92 -18q106 2 107 122v495h134v-498q0 -168 -130 -212q-41 -14 -91 -14z" />
    <glyph glyph-name="K" unicode="K" horiz-adv-x="659" 
d="M82 0v715h133v-324l274 325h143l-296 -342l311 -374h-157l-275 334v-334h-133z" />
    <glyph glyph-name="L" unicode="L" horiz-adv-x="551" 
d="M82 0v715h133v-609h305v-106h-438z" />
    <glyph glyph-name="M" unicode="M" horiz-adv-x="890" 
d="M82 0v715h178l188 -488l184 488h176v-715h-133v540l-213 -540h-43l-217 540v-540h-120z" />
    <glyph glyph-name="N" unicode="N" horiz-adv-x="745" 
d="M82 0v715h159l301 -517v517h121v-715h-138l-322 548v-548h-121z" />
    <glyph glyph-name="O" unicode="O" 
d="M408 -10q-170 0 -272 114q-90 101 -90 249v8q0 161 106 265q102 99 256 99q166 0 268 -110q92 -101 92 -251v-8q0 -164 -105 -268q-101 -98 -255 -98zM410 97q121 0 181 99q39 66 39 159v8q0 137 -83 208q-57 48 -139 48q-129 0 -188 -105q-35 -64 -35 -152v-8
q0 -138 87 -210q59 -47 138 -47z" />
    <glyph glyph-name="P" unicode="P" horiz-adv-x="609" 
d="M82 0v715h230q186 0 243 -117q22 -46 22 -104v-4q0 -153 -140 -200q-54 -18 -122 -18h-100v-272h-133zM215 368h97q120 0 133 99q2 11 2 23v4q-2 117 -135 118h-97v-244z" />
    <glyph glyph-name="Q" unicode="Q" 
d="M644 -91l-98 105q-66 -24 -138 -24q-170 0 -272 114q-90 101 -90 249v8q0 162 106 265q103 98 256 98q166 0 268 -110q93 -100 93 -250v-8q0 -166 -109 -270q-8 -8 -15 -14l79 -85zM409 95q31 0 56 6l-70 76l81 76l88 -95q66 73 66 198v8q0 139 -84 208q-57 47 -138 47
q-130 0 -188 -105q-36 -64 -36 -152v-8q0 -142 90 -214q58 -45 135 -45z" />
    <glyph glyph-name="R" unicode="R" horiz-adv-x="655" 
d="M215 384h107q135 2 136 114v4q0 96 -99 108q-18 2 -37 2h-107v-228zM82 0v715h240q190 0 247 -114q20 -42 20 -96v-4q0 -144 -147 -189q-6 -1 -12 -3l201 -309h-144l-187 289h-85v-289h-133z" />
    <glyph glyph-name="S" unicode="S" horiz-adv-x="635" 
d="M325 -10q-231 0 -278 174q-7 28 -9 58h128q11 -90 73 -117q35 -15 86 -15q84 0 119 54q16 26 16 56q0 56 -43 80q-33 18 -106 30q-166 22 -218 91q-34 46 -34 118q0 100 85 159q67 46 164 46q204 0 250 -154q7 -25 10 -53h-122q-15 89 -96 104q-19 3 -42 3
q-94 0 -117 -61q-6 -16 -6 -33q0 -52 38 -75q34 -19 110 -30q160 -22 214 -84q41 -48 41 -130q0 -104 -85 -167q-73 -54 -178 -54z" />
    <glyph glyph-name="T" unicode="T" horiz-adv-x="583" 
d="M225 0v610h-199v105h532v-105h-199v-610h-134z" />
    <glyph glyph-name="U" unicode="U" horiz-adv-x="723" 
d="M357 -10q-196 0 -257 146q-24 59 -24 136v443h134v-433q0 -135 69 -170q31 -15 79 -15q102 0 135 71q20 45 20 123v424h134v-435q0 -211 -161 -270q-57 -20 -129 -20z" />
    <glyph glyph-name="V" unicode="V" horiz-adv-x="683" 
d="M264 0l-241 715h139l186 -580l187 580h125l-242 -715h-154z" />
    <glyph glyph-name="W" unicode="W" horiz-adv-x="955" 
d="M204 0l-178 715h136l124 -525l139 525h110l142 -528l128 528h124l-179 -715h-133l-141 521l-145 -521h-127z" />
    <glyph glyph-name="X" unicode="X" horiz-adv-x="695" 
d="M36 0l230 367l-214 348h150l152 -254l151 254h137l-211 -345l229 -370h-152l-168 279l-168 -279h-136z" />
    <glyph glyph-name="Y" unicode="Y" horiz-adv-x="629" 
d="M254 0v310l-237 405h147l161 -296l157 296h130l-224 -406v-309h-134z" />
    <glyph glyph-name="Z" unicode="Z" horiz-adv-x="608" 
d="M22 0v18l365 592h-328v105h516v-17l-357 -591h347v-107h-543z" />
    <glyph glyph-name="bracketleft" unicode="[" horiz-adv-x="377" 
d="M79 -148v924h256v-91h-134v-742h134v-91h-256z" />
    <glyph glyph-name="backslash" unicode="\" horiz-adv-x="415" 
d="M319 -148l-301 924h102l301 -924h-102z" />
    <glyph glyph-name="bracketright" unicode="]" horiz-adv-x="377" 
d="M42 -148v91h134v742h-134v91h256v-924h-256z" />
    <glyph glyph-name="asciicircum" unicode="^" horiz-adv-x="516" 
d="M36 402l166 313h113l166 -313h-112l-112 213l-113 -213h-108z" />
    <glyph glyph-name="underscore" unicode="_" horiz-adv-x="410" 
d="M-1 -159v74h412v-74h-412z" />
    <glyph glyph-name="grave" unicode="`" horiz-adv-x="400" 
d="M163 601l-104 155h134l59 -155h-89z" />
    <glyph glyph-name="a" unicode="a" horiz-adv-x="555" 
d="M238 77q83 0 116 54q13 24 13 52v52h-62q-146 -6 -151 -85q2 -72 84 -73zM209 -10q-116 0 -157 77q-18 34 -18 78q0 133 179 160q41 6 89 6h65v27q0 84 -55 100q-18 5 -40 5q-90 -2 -100 -82h-117q10 123 130 160q43 13 94 13q192 0 208 -162q1 -14 1 -29v-343h-119v64
q-57 -74 -160 -74z" />
    <glyph glyph-name="b" unicode="b" horiz-adv-x="633" 
d="M364 -10q-102 0 -157 72q-8 11 -14 22v-84h-121v765h121v-326q35 60 107 84q32 11 64 11q117 0 182 -90q50 -71 50 -176v-8q0 -151 -93 -224q-59 -46 -139 -46zM334 86q112 0 133 117q5 25 5 55v8q0 122 -79 160q-27 13 -60 13q-94 0 -129 -84q-15 -39 -15 -89v-8
q0 -140 101 -167q21 -5 44 -5z" />
    <glyph glyph-name="c" unicode="c" horiz-adv-x="575" 
d="M301 -10q-133 0 -207 90q-57 71 -57 175v8q0 137 95 214q72 57 169 57q145 0 206 -95q27 -43 33 -101h-117q-16 98 -120 99q-84 0 -121 -75q-21 -41 -21 -97v-8q0 -130 88 -164q26 -10 57 -10q75 0 109 57q14 25 17 55h111q-8 -112 -99 -168q-61 -37 -143 -37z" />
    <glyph glyph-name="d" unicode="d" horiz-adv-x="633" 
d="M298 86q94 0 130 82q16 39 16 91v8q0 144 -102 168q-19 4 -39 4q-103 0 -132 -101q-9 -33 -9 -74v-8q0 -124 81 -159q26 -11 55 -11zM268 -10q-121 0 -184 92q-46 69 -46 171v8q0 147 91 223q61 50 144 50q116 -1 167 -91v322h121v-765h-121v88q-32 -59 -102 -85
q-35 -13 -70 -13z" />
    <glyph glyph-name="e" unicode="e" horiz-adv-x="580" 
d="M302 -10q-137 0 -210 93q-55 71 -55 173v8q0 136 93 213q70 57 167 57q131 0 198 -91q49 -68 49 -173v-35h-383q5 -128 104 -151q19 -4 40 -4q105 1 120 80h117q-18 -119 -138 -156q-46 -14 -102 -14zM163 316h261q-10 129 -127 130q-86 0 -121 -81q-9 -23 -13 -49z" />
    <glyph glyph-name="f" unicode="f" horiz-adv-x="362" 
d="M93 0v432h-71v91h71v70q0 135 109 168q31 9 67 9q38 0 69 -10v-94q-26 9 -55 9q-68 -2 -69 -77v-75h119v-91h-119v-432h-121z" />
    <glyph glyph-name="g" unicode="g" horiz-adv-x="633" 
d="M299 114q85 0 123 69q22 39 22 91v7q0 108 -75 144q-30 14 -66 14q-92 0 -127 -79q-15 -36 -15 -81v-8q0 -95 66 -137q32 -20 72 -20zM295 -192q-196 0 -242 133q-7 20 -10 41h122q17 -81 129 -82q136 0 145 124q1 9 1 17v77q-35 -60 -106 -86q-32 -11 -65 -11
q-113 0 -179 84q-53 68 -53 165v7q0 124 82 198q65 59 153 59q115 -1 168 -91v80h121v-484q-1 -160 -138 -211q-56 -20 -128 -20z" />
    <glyph glyph-name="h" unicode="h" horiz-adv-x="608" 
d="M72 0v765h121v-325q34 69 117 88q25 6 52 6q133 0 168 -119q11 -38 11 -86v-329h-121v318q0 100 -76 113q-14 2 -28 2q-77 0 -108 -59q-15 -29 -15 -66v-308h-121z" />
    <glyph glyph-name="i" unicode="i" horiz-adv-x="271" 
d="M134 609q-44 0 -64 36q-8 16 -8 33q0 43 38 62q16 8 34 8q44 0 64 -37q8 -16 8 -33q0 -42 -38 -61q-17 -8 -34 -8zM75 0v523h121v-523h-121z" />
    <glyph glyph-name="j" unicode="j" horiz-adv-x="271" 
d="M134 609q-44 0 -64 36q-8 16 -8 33q0 43 38 62q16 8 34 8q44 0 64 -37q8 -16 8 -33q0 -42 -38 -61q-17 -8 -34 -8zM3 -188v93q68 14 72 74v544h121v-541q0 -123 -96 -156q-40 -13 -97 -14z" />
    <glyph glyph-name="k" unicode="k" horiz-adv-x="540" 
d="M72 0v765h121v-472l187 230h132l-203 -240l220 -283h-140l-196 257v-257h-121z" />
    <glyph glyph-name="l" unicode="l" horiz-adv-x="271" 
d="M75 0v765h121v-765h-121z" />
    <glyph glyph-name="m" unicode="m" horiz-adv-x="918" 
d="M72 0v523h121v-80q32 63 106 84q26 7 53 7q110 -1 148 -94q47 77 144 91q17 3 33 3q111 0 153 -93q21 -46 21 -110v-331h-121v323q-2 109 -93 110q-67 0 -99 -53q-16 -29 -16 -67v-313h-121v323q-2 109 -93 110q-67 0 -99 -53q-16 -29 -16 -67v-313h-121z" />
    <glyph glyph-name="n" unicode="n" horiz-adv-x="608" 
d="M72 0v523h121v-83q34 69 117 88q25 6 52 6q133 0 168 -119q11 -38 11 -86v-329h-121v318q0 100 -76 113q-14 2 -28 2q-77 0 -108 -59q-15 -29 -15 -66v-308h-121z" />
    <glyph glyph-name="o" unicode="o" horiz-adv-x="611" 
d="M305 -10q-130 0 -206 89q-62 72 -62 177v8q0 135 95 212q73 58 174 58q129 0 206 -89q62 -73 62 -178v-8q0 -137 -96 -213q-73 -56 -173 -56zM306 84q93 0 128 85q16 39 16 89v7q0 119 -77 159q-30 15 -67 15q-95 0 -130 -85q-15 -39 -15 -88v-8q0 -120 78 -159
q30 -15 67 -15z" />
    <glyph glyph-name="p" unicode="p" horiz-adv-x="633" 
d="M334 86q112 0 133 117q5 25 5 55v8q0 122 -79 160q-27 13 -60 13q-94 0 -129 -84q-15 -39 -15 -89v-8q0 -140 101 -167q21 -5 44 -5zM72 -179v702h121v-84q35 60 107 84q32 11 64 11q117 0 182 -90q50 -71 50 -176v-8q0 -151 -93 -224q-59 -46 -139 -46q-101 0 -156 70
q-9 11 -15 22v-261h-121z" />
    <glyph glyph-name="q" unicode="q" horiz-adv-x="633" 
d="M440 -179v265q-32 -57 -102 -83q-35 -13 -70 -13q-121 0 -184 92q-46 69 -46 171v8q0 147 91 223q61 50 144 50q116 -1 167 -91v80h121v-702h-121zM298 86q94 0 130 82q16 39 16 91v8q0 144 -102 168q-19 4 -39 4q-103 0 -132 -101q-9 -33 -9 -74v-8q0 -124 81 -159
q26 -11 55 -11z" />
    <glyph glyph-name="r" unicode="r" horiz-adv-x="397" 
d="M72 0v523h121v-98q48 95 148 105q11 1 22 1v-113q-128 -1 -159 -77q-11 -29 -11 -69v-272h-121z" />
    <glyph glyph-name="s" unicode="s" horiz-adv-x="494" 
d="M251 -10q-159 0 -204 105q-13 31 -15 68h114q8 -72 76 -82q13 -2 28 -2q93 1 94 67q0 40 -51 58q-23 7 -61 14q-129 21 -166 72q-23 33 -23 87q0 92 89 134q49 23 107 23q187 -2 205 -158h-112q-13 61 -71 69q-11 1 -22 1q-65 0 -80 -43q-3 -10 -3 -19q0 -35 38 -50
q24 -9 70 -17q123 -19 164 -62q32 -36 32 -98q0 -117 -111 -153q-43 -14 -98 -14z" />
    <glyph glyph-name="t" unicode="t" horiz-adv-x="369" 
d="M250 -9q-132 0 -154 111q-4 21 -4 44v286h-70v91h70v115h121v-115h115v-91h-115v-275q2 -66 60 -67q35 0 59 10v-96q-36 -13 -82 -13z" />
    <glyph glyph-name="u" unicode="u" horiz-adv-x="605" 
d="M247 -10q-124 0 -164 102q-16 41 -16 96v335h121v-321q0 -107 87 -114q8 -1 16 -1q72 0 105 55q17 30 17 70v311h121v-523h-121v82q-40 -78 -135 -90q-16 -2 -31 -2z" />
    <glyph glyph-name="v" unicode="v" horiz-adv-x="557" 
d="M209 0l-191 523h130l137 -399l135 399h119l-189 -523h-141z" />
    <glyph glyph-name="w" unicode="w" 
d="M180 0l-160 523h129l104 -378l111 378h101l102 -378l109 378h118l-164 -523h-123l-97 352l-106 -352h-124z" />
    <glyph glyph-name="x" unicode="x" horiz-adv-x="556" 
d="M21 0l182 268l-170 255h140l109 -169l108 169h127l-169 -246l187 -277h-141l-122 189l-125 -189h-126z" />
    <glyph glyph-name="y" unicode="y" horiz-adv-x="553" 
d="M130 -179l95 232l-207 470h131l139 -337l128 337h118l-285 -702h-119z" />
    <glyph glyph-name="z" unicode="z" horiz-adv-x="493" 
d="M17 0v14l277 413h-250v96h429v-17l-276 -409h268v-97h-448z" />
    <glyph glyph-name="braceleft" unicode="{" horiz-adv-x="396" 
d="M354 -147q-215 0 -229 141q-3 34 4 76l17 96q13 69 -46 95q-27 11 -64 11v87q95 0 110 65q4 19 0 41l-17 96q-29 170 119 206q45 11 106 11v-89q-84 -2 -103 -43q-13 -29 -5 -84l17 -110q13 -87 -66 -124q-16 -8 -34 -12q84 -19 99 -88q5 -23 1 -48l-17 -109
q-13 -90 33 -115q26 -13 75 -14v-89z" />
    <glyph glyph-name="bar" unicode="|" horiz-adv-x="259" 
d="M84 -148v924h90v-924h-90z" />
    <glyph glyph-name="braceright" unicode="}" horiz-adv-x="396" 
d="M42 -147v89q84 2 103 45q12 30 4 84l-16 109q-13 86 62 123q18 8 38 13q-88 21 -100 93q-3 21 0 43l16 110q14 89 -33 113q-26 13 -74 14v89q201 0 226 -122q8 -41 -1 -95l-17 -96q-12 -66 43 -93q27 -13 66 -13v-87q-96 0 -109 -67q-4 -18 0 -39l17 -96
q31 -181 -141 -211q-38 -6 -84 -6z" />
    <glyph glyph-name="asciitilde" unicode="~" horiz-adv-x="474" 
d="M38 220q7 113 78 145q21 10 44 10q40 0 100 -32q32 -16 45 -16q34 0 43 39q1 6 2 11h86q-5 -105 -70 -142q-24 -14 -50 -14q-42 0 -102 32q-31 17 -45 17q-35 0 -44 -43q-1 -4 -1 -7h-86z" />
    <glyph glyph-name="uni00A0" unicode="&#xa0;" horiz-adv-x="238" 
 />
    <glyph glyph-name="exclamdown" unicode="&#xa1;" horiz-adv-x="306" 
d="M153 450q-47 0 -71 40q-10 18 -10 38q0 44 40 67q20 10 41 10q47 0 71 -39q10 -18 10 -38q0 -46 -42 -68q-19 -10 -39 -10zM85 -117l19 500h97l19 -500h-135z" />
    <glyph glyph-name="cent" unicode="&#xa2;" horiz-adv-x="577" 
d="M270 -135v127q-130 12 -192 111q-41 65 -41 153v8q0 136 96 213q59 46 137 55v97h67v-97q132 -11 183 -109q20 -38 25 -85h-114q-14 83 -94 100v-356q71 13 94 78q6 17 8 35h109q-9 -110 -98 -167q-50 -30 -113 -36v-127h-67zM159 256q0 -125 83 -163q14 -6 28 -9v353
q-75 -18 -101 -100q-10 -34 -10 -73v-8z" />
    <glyph glyph-name="sterling" unicode="&#xa3;" horiz-adv-x="620" 
d="M42 304v85h60q-16 65 -16 120q0 113 92 173q64 42 150 42q162 0 216 -119q18 -40 22 -90h-125q-15 85 -72 101q-17 5 -38 5q-71 0 -99 -59q-12 -26 -12 -58q0 -49 13 -115h199v-85h-182q10 -54 10 -102q0 -31 -12 -63q21 -6 60 -20q58 -21 80 -21q74 0 80 73v2h117
q-6 -114 -85 -159q-39 -23 -90 -23q-53 0 -140 36q-54 23 -77 23q-47 0 -58 -42q-1 -5 -1 -8h-104q7 85 66 126q18 12 39 18q10 29 10 59q0 41 -18 101h-85z" />
    <glyph glyph-name="yen" unicode="&#xa5;" horiz-adv-x="604" 
d="M76 286v63h149l-204 366h145l147 -288l141 288h128l-192 -366h150v-63h-166v-67h166v-64h-166v-155h-132v155h-166v64h166v67h-166z" />
    <glyph glyph-name="brokenbar" unicode="&#xa6;" horiz-adv-x="264" 
d="M84 369v407h90v-407h-90zM84 -148v447h90v-447h-90z" />
    <glyph glyph-name="section" unicode="&#xa7;" horiz-adv-x="565" 
d="M343 200q70 19 71 76q0 42 -49 64q-23 10 -66 23l-77 22q-58 -12 -68 -60q-2 -8 -2 -16q0 -41 54 -65q23 -10 62 -21zM276 -137q-132 0 -180 88q-19 37 -21 83h116q8 -80 86 -81q70 0 82 54q2 10 2 19q0 39 -39 60q-29 14 -88 29q-137 34 -177 95q-23 36 -23 85
q0 84 82 124q14 6 29 11q-55 45 -55 123q0 89 78 138q53 33 121 33q134 0 179 -92q16 -33 18 -75h-115q-6 69 -65 76q-9 1 -18 1q-69 0 -81 -55q-2 -10 -2 -19q0 -39 34 -58q28 -15 88 -30q126 -32 169 -79q36 -40 36 -102q0 -76 -74 -119q-17 -10 -36 -17q54 -44 54 -122
q0 -85 -74 -135q-54 -35 -126 -35z" />
    <glyph glyph-name="dieresis" unicode="&#xa8;" horiz-adv-x="400" 
d="M299 613q-41 0 -59 36q-7 14 -7 29q0 39 35 57q15 8 31 8q39 0 58 -35q8 -15 8 -30q0 -39 -36 -58q-14 -7 -30 -7zM101 613q-40 0 -58 35q-8 15 -8 30q0 38 34 57q16 8 32 8q39 0 58 -35q8 -15 8 -30q0 -39 -36 -58q-14 -7 -30 -7z" />
    <glyph glyph-name="copyright" unicode="&#xa9;" horiz-adv-x="843" 
d="M421 -13q-152 0 -259 102q-108 101 -114 252v16q0 151 103 257q102 106 253 114h19q156 0 263 -105q105 -102 110 -252v-12q0 -154 -105 -261q-104 -105 -256 -111h-14zM421 32q132 0 224 90q97 95 97 237q0 146 -100 240q-91 84 -219 84q-138 0 -230 -94
q-91 -93 -91 -232q0 -148 103 -242q91 -83 216 -83zM425 153q-131 0 -179 98q-21 44 -21 102v8q0 109 80 165q51 36 118 36q119 0 160 -83q14 -28 17 -63h-96q-12 69 -81 70q-72 0 -92 -75q-6 -23 -6 -50v-7q0 -110 80 -123q10 -1 19 -1q74 0 87 66q1 4 1 8h92
q-8 -106 -103 -139q-35 -12 -76 -12z" />
    <glyph glyph-name="ordfeminine" unicode="&#xaa;" horiz-adv-x="444" 
d="M200 368q68 0 89 46q6 14 6 30v37h-48q-108 -1 -109 -61q2 -51 62 -52zM169 289q-95 0 -128 65q-12 26 -12 59q2 131 215 132h51v22q0 69 -57 75q-7 1 -13 1q-64 -1 -75 -59h-104q7 101 109 130q34 10 75 10q172 -2 173 -155v-271h-107v50q-43 -58 -127 -59z" />
    <glyph glyph-name="guillemotleft" unicode="&#xab;" horiz-adv-x="492" 
d="M355 78l-128 183l128 183h95l-123 -183l123 -183h-95zM176 78l-128 183l128 183h95l-123 -183l123 -183h-95z" />
    <glyph glyph-name="uni00AD" unicode="&#xad;" horiz-adv-x="353" 
d="M56 229v100h240v-100h-240z" />
    <glyph glyph-name="registered" unicode="&#xae;" horiz-adv-x="515" 
d="M258 281q-104 0 -170 75q-55 63 -55 146q0 101 76 168q64 55 149 55q105 0 171 -77q53 -63 53 -145q0 -104 -77 -169q-64 -53 -147 -53zM258 319q93 0 146 69q37 49 37 115q0 99 -74 151q-47 33 -109 33q-98 0 -150 -73q-34 -48 -34 -112q0 -98 74 -150q48 -33 110 -33z
M234 515h24q33 2 34 28v1q-2 27 -34 28h-24v-57zM178 396v219h82q86 -2 87 -68v-1q-1 -43 -42 -59l55 -91h-59l-48 81h-19v-81h-56z" />
    <glyph glyph-name="macron" unicode="&#xaf;" horiz-adv-x="400" 
d="M60 634v78h280v-78h-280z" />
    <glyph glyph-name="degree" unicode="&#xb0;" horiz-adv-x="437" 
d="M219 396q-83 0 -133 63q-36 45 -36 100q0 80 64 129q46 36 105 36q82 0 132 -63q36 -45 36 -102q0 -78 -63 -127q-47 -36 -105 -36zM219 459q54 0 79 50q11 23 11 50q0 63 -45 90q-21 12 -45 12q-55 0 -81 -50q-12 -24 -12 -52q0 -59 45 -87q22 -13 48 -13z" />
    <glyph glyph-name="plusminus" unicode="&#xb1;" horiz-adv-x="539" 
d="M219 157v175h-182v94h182v176h101v-176h183v-94h-183v-175h-101zM37 0v89h467v-89h-467z" />
    <glyph glyph-name="twosuperior" unicode="&#xb2;" horiz-adv-x="313" 
d="M7 360v13l128 135q58 61 59 99q-2 42 -42 43q-44 0 -52 -59v-2h-85q5 98 87 123q25 8 54 8q96 0 122 -68q7 -19 7 -41q-1 -60 -70 -126l-58 -57h131v-68h-281z" />
    <glyph glyph-name="threesuperior" unicode="&#xb3;" horiz-adv-x="336" 
d="M166 354q-117 0 -141 86q-4 16 -5 34h83q7 -53 58 -54q53 2 54 47q0 45 -54 45h-28v58h27q51 2 52 43q-6 37 -45 40q-45 0 -53 -43q-1 -3 -1 -5h-83q6 74 72 102q30 13 67 13q93 0 122 -58q9 -18 9 -39q-1 -57 -61 -77q56 -11 68 -60q2 -11 2 -22q0 -74 -75 -100
q-30 -10 -68 -10z" />
    <glyph glyph-name="acute" unicode="&#xb4;" horiz-adv-x="400" 
d="M148 601l59 155h134l-104 -155h-89z" />
    <glyph glyph-name="paragraph" unicode="&#xb6;" horiz-adv-x="573" 
d="M268 -100v439h-11q-148 0 -198 94q-21 39 -21 91q0 126 109 171q48 20 110 20h232v-815h-72v755h-78v-755h-71z" />
    <glyph glyph-name="periodcentered" unicode="&#xb7;" horiz-adv-x="289" 
d="M144 248q-47 0 -69 41q-10 18 -10 38q0 47 41 69q18 9 38 9q48 0 71 -40q9 -18 9 -38q0 -46 -40 -69q-19 -10 -40 -10z" />
    <glyph glyph-name="cedilla" unicode="&#xb8;" horiz-adv-x="400" 
d="M206 -219q-77 0 -102 58q-6 15 -8 30h66q12 -29 40 -33q33 6 37 34q0 26 -26 31q-5 1 -9 1q-17 0 -30 -9l-34 32l44 75h60l-29 -50q58 7 85 -33q15 -21 15 -50q0 -60 -62 -79q-22 -7 -47 -7z" />
    <glyph glyph-name="onesuperior" unicode="&#xb9;" horiz-adv-x="253" 
d="M104 360v265l-82 -51v78l94 63h82v-355h-94z" />
    <glyph glyph-name="ordmasculine" unicode="&#xba;" horiz-adv-x="504" 
d="M252 289q-112 0 -174 78q-44 56 -44 134v6q0 116 85 177q57 40 134 40q112 0 173 -78q44 -57 44 -135v-6q0 -116 -85 -176q-57 -40 -133 -40zM253 374q77 0 98 78q6 24 6 52v6q0 97 -65 122q-18 7 -39 7q-76 0 -98 -74q-8 -25 -8 -55v-6q0 -101 69 -124q17 -6 37 -6z" />
    <glyph glyph-name="guillemotright" unicode="&#xbb;" horiz-adv-x="492" 
d="M43 78l123 183l-123 183h95l128 -183l-128 -183h-95zM221 78l123 183l-123 183h95l128 -183l-128 -183h-95z" />
    <glyph glyph-name="onequarter" unicode="&#xbc;" horiz-adv-x="724" 
d="M107 360v265l-82 -51v78l94 63h82v-355h-94zM55 0l528 715h77l-528 -715h-77zM566 0v69h-178v34l154 252h113v-222h46v-64h-46v-69h-89zM477 133h91v157z" />
    <glyph glyph-name="onehalf" unicode="&#xbd;" horiz-adv-x="728" 
d="M107 360v265l-82 -51v78l94 63h82v-355h-94zM42 0l528 715h77l-528 -715h-77zM418 0v13l128 135q58 61 59 99q-2 42 -42 43q-44 0 -52 -59v-2h-85q5 100 90 124q24 7 51 7q96 0 122 -68q7 -19 7 -41q-1 -60 -70 -126l-58 -57h131v-68h-281z" />
    <glyph glyph-name="threequarters" unicode="&#xbe;" horiz-adv-x="738" 
d="M169 354q-117 0 -141 86q-4 16 -5 34h83q7 -53 58 -54q53 2 54 47q0 45 -54 45h-28v58h27q51 2 52 43q-6 37 -45 40q-45 0 -53 -43q-1 -3 -1 -5h-83q6 74 72 102q30 13 67 13q93 0 122 -58q9 -18 9 -39q-1 -57 -61 -77q56 -11 68 -60q2 -11 2 -22q0 -74 -75 -100
q-30 -10 -68 -10zM96 0l528 715h77l-528 -715h-77zM577 0v69h-178v34l154 252h113v-222h46v-64h-46v-69h-89zM488 133h91v157z" />
    <glyph glyph-name="questiondown" unicode="&#xbf;" horiz-adv-x="516" 
d="M286 606q48 0 71 -40q10 -18 10 -38q0 -46 -41 -68q-19 -10 -40 -10q-47 0 -71 40q-10 18 -10 38q0 44 40 67q20 11 41 11zM340 383v-38q0 -71 -67 -142l-33 -33q-59 -56 -68 -93q-2 -10 -2 -20q6 -81 88 -84q72 0 101 67q8 21 11 46h116q-6 -121 -99 -178
q-58 -34 -135 -34q-143 0 -191 93q-19 37 -19 82q0 69 66 137q9 10 22 23q60 58 76 81q21 31 23 61v32h111z" />
    <glyph glyph-name="Agrave" unicode="&#xc0;" horiz-adv-x="703" 
d="M345 606l-106 -332h211zM27 0l239 715h174l236 -715h-138l-57 177h-273l-56 -177h-125zM311 766l-98 135h136l53 -135h-91z" />
    <glyph glyph-name="Aacute" unicode="&#xc1;" horiz-adv-x="703" 
d="M345 606l-106 -332h211zM27 0l239 715h174l236 -715h-138l-57 177h-273l-56 -177h-125zM298 766l54 135h136l-99 -135h-91z" />
    <glyph glyph-name="Acircumflex" unicode="&#xc2;" horiz-adv-x="703" 
d="M345 606l-106 -332h211zM27 0l239 715h174l236 -715h-138l-57 177h-273l-56 -177h-125zM188 766l111 135h104l108 -135h-88l-74 55l-75 -55h-86z" />
    <glyph glyph-name="Atilde" unicode="&#xc3;" horiz-adv-x="703" 
d="M345 606l-106 -332h211zM27 0l239 715h174l236 -715h-138l-57 177h-273l-56 -177h-125zM408 768q-27 0 -75 26q-25 13 -37 13q-24 0 -34 -30q-2 -5 -3 -10h-76q8 91 67 121q20 10 42 10q25 0 73 -26q27 -14 40 -14q25 0 34 32l2 8h77q-9 -91 -68 -120q-20 -10 -42 -10z
" />
    <glyph glyph-name="Adieresis" unicode="&#xc4;" horiz-adv-x="703" 
d="M345 606l-106 -332h211zM27 0l239 715h174l236 -715h-138l-57 177h-273l-56 -177h-125zM244 777q-40 0 -58 35q-8 15 -8 30q0 39 36 58q14 7 30 7q40 0 58 -35q8 -15 8 -30q0 -39 -36 -58q-14 -7 -30 -7zM455 777q-40 0 -58 35q-8 15 -8 30q0 39 36 58q14 7 30 7
q40 0 58 -35q8 -15 8 -30q0 -39 -36 -58q-14 -7 -30 -7z" />
    <glyph glyph-name="Aring" unicode="&#xc5;" horiz-adv-x="703" 
d="M345 606l-106 -332h211zM27 0l239 715h174l236 -715h-138l-57 177h-273l-56 -177h-125zM350 753q-61 0 -94 49q-18 28 -18 60q0 58 49 90q29 19 63 19q61 0 94 -49q18 -28 18 -60q0 -58 -49 -90q-29 -19 -63 -19zM350 807q35 0 47 34q3 10 3 21q0 40 -32 52q-9 3 -18 3
q-37 0 -47 -35q-3 -10 -3 -20q0 -41 33 -52q9 -3 17 -3z" />
    <glyph glyph-name="AE" unicode="&#xc6;" horiz-adv-x="971" 
d="M444 610l-159 -332h186v332h-27zM22 0l351 715h543v-105h-312v-196h250v-100h-250v-209h329v-105h-462v183h-232l-87 -183h-130z" />
    <glyph glyph-name="Ccedilla" unicode="&#xc7;" horiz-adv-x="741" 
d="M380 -219q-77 0 -102 58q-6 15 -8 30h66q12 -29 40 -33q33 6 37 34q0 26 -26 31q-5 1 -9 1q-17 0 -30 -9l-34 32l39 67q-185 16 -262 161q-45 85 -45 200v8q0 167 107 271q97 94 240 94q170 0 252 -104q47 -61 55 -146h-135q-31 140 -171 144q-116 0 -172 -100
q-36 -65 -36 -158v-8q0 -169 102 -229q46 -27 107 -27q126 0 168 97q11 25 15 54h130q-22 -171 -165 -232q-58 -24 -131 -27l-23 -40q58 7 85 -33q15 -21 15 -50q0 -60 -62 -79q-22 -7 -47 -7z" />
    <glyph glyph-name="Egrave" unicode="&#xc8;" horiz-adv-x="584" 
d="M82 0v715h447v-105h-314v-196h252v-100h-252v-209h331v-105h-464zM274 766l-98 135h136l53 -135h-91z" />
    <glyph glyph-name="Eacute" unicode="&#xc9;" horiz-adv-x="584" 
d="M82 0v715h447v-105h-314v-196h252v-100h-252v-209h331v-105h-464zM261 766l54 135h136l-99 -135h-91z" />
    <glyph glyph-name="Ecircumflex" unicode="&#xca;" horiz-adv-x="584" 
d="M82 0v715h447v-105h-314v-196h252v-100h-252v-209h331v-105h-464zM151 766l111 135h104l108 -135h-88l-74 55l-75 -55h-86z" />
    <glyph glyph-name="Edieresis" unicode="&#xcb;" horiz-adv-x="584" 
d="M82 0v715h447v-105h-314v-196h252v-100h-252v-209h331v-105h-464zM207 777q-40 0 -58 35q-8 15 -8 30q0 39 36 58q14 7 30 7q40 0 58 -35q8 -15 8 -30q0 -39 -36 -58q-14 -7 -30 -7zM418 777q-40 0 -58 35q-8 15 -8 30q0 39 36 58q14 7 30 7q40 0 58 -35q8 -15 8 -30
q0 -39 -36 -58q-14 -7 -30 -7z" />
    <glyph glyph-name="Igrave" unicode="&#xcc;" horiz-adv-x="307" 
d="M86 0v715h134v-715h-134zM114 766l-98 135h136l53 -135h-91z" />
    <glyph glyph-name="Iacute" unicode="&#xcd;" horiz-adv-x="307" 
d="M86 0v715h134v-715h-134zM101 766l54 135h136l-99 -135h-91z" />
    <glyph glyph-name="Icircumflex" unicode="&#xce;" horiz-adv-x="307" 
d="M86 0v715h134v-715h-134zM-9 766l111 135h104l108 -135h-88l-74 55l-75 -55h-86z" />
    <glyph glyph-name="Idieresis" unicode="&#xcf;" horiz-adv-x="307" 
d="M86 0v715h134v-715h-134zM47 777q-40 0 -58 35q-8 15 -8 30q0 39 36 58q14 7 30 7q40 0 58 -35q8 -15 8 -30q0 -39 -36 -58q-14 -7 -30 -7zM258 777q-40 0 -58 35q-8 15 -8 30q0 39 36 58q14 7 30 7q40 0 58 -35q8 -15 8 -30q0 -39 -36 -58q-14 -7 -30 -7z" />
    <glyph glyph-name="Eth" unicode="&#xd0;" horiz-adv-x="739" 
d="M32 311v95h69v309h217q232 0 323 -155q47 -82 47 -195v-9q0 -198 -132 -291q-94 -65 -239 -65h-216v311h-69zM233 105h80q198 0 230 179q6 34 6 71v8q-2 246 -237 247h-79v-204h173v-95h-173v-206z" />
    <glyph glyph-name="Ntilde" unicode="&#xd1;" horiz-adv-x="745" 
d="M82 0v715h159l301 -517v517h121v-715h-138l-322 548v-548h-121zM443 768q-27 0 -75 26q-25 13 -37 13q-24 0 -34 -30q-2 -5 -3 -10h-76q8 91 67 121q20 10 42 10q25 0 73 -26q27 -14 40 -14q25 0 34 32l2 8h77q-9 -91 -68 -120q-20 -10 -42 -10z" />
    <glyph glyph-name="Ograve" unicode="&#xd2;" 
d="M408 -10q-170 0 -272 114q-90 101 -90 249v8q0 161 106 265q102 99 256 99q166 0 268 -110q92 -101 92 -251v-8q0 -164 -105 -268q-101 -98 -255 -98zM410 97q121 0 181 99q39 66 39 159v8q0 137 -83 208q-57 48 -139 48q-129 0 -188 -105q-35 -64 -35 -152v-8
q0 -138 87 -210q59 -47 138 -47zM367 766l-98 135h136l53 -135h-91z" />
    <glyph glyph-name="Oacute" unicode="&#xd3;" 
d="M408 -10q-170 0 -272 114q-90 101 -90 249v8q0 161 106 265q102 99 256 99q166 0 268 -110q92 -101 92 -251v-8q0 -164 -105 -268q-101 -98 -255 -98zM410 97q121 0 181 99q39 66 39 159v8q0 137 -83 208q-57 48 -139 48q-129 0 -188 -105q-35 -64 -35 -152v-8
q0 -138 87 -210q59 -47 138 -47zM354 766l54 135h136l-99 -135h-91z" />
    <glyph glyph-name="Ocircumflex" unicode="&#xd4;" 
d="M408 -10q-170 0 -272 114q-90 101 -90 249v8q0 161 106 265q102 99 256 99q166 0 268 -110q92 -101 92 -251v-8q0 -164 -105 -268q-101 -98 -255 -98zM410 97q121 0 181 99q39 66 39 159v8q0 137 -83 208q-57 48 -139 48q-129 0 -188 -105q-35 -64 -35 -152v-8
q0 -138 87 -210q59 -47 138 -47zM244 766l111 135h104l108 -135h-88l-74 55l-75 -55h-86z" />
    <glyph glyph-name="Otilde" unicode="&#xd5;" 
d="M408 -10q-170 0 -272 114q-90 101 -90 249v8q0 161 106 265q102 99 256 99q166 0 268 -110q92 -101 92 -251v-8q0 -164 -105 -268q-101 -98 -255 -98zM410 97q121 0 181 99q39 66 39 159v8q0 137 -83 208q-57 48 -139 48q-129 0 -188 -105q-35 -64 -35 -152v-8
q0 -138 87 -210q59 -47 138 -47zM464 768q-27 0 -75 26q-25 13 -37 13q-24 0 -34 -30q-2 -5 -3 -10h-76q8 91 67 121q20 10 42 10q25 0 73 -26q27 -14 40 -14q25 0 34 32l2 8h77q-9 -91 -68 -120q-20 -10 -42 -10z" />
    <glyph glyph-name="Odieresis" unicode="&#xd6;" 
d="M408 -10q-170 0 -272 114q-90 101 -90 249v8q0 161 106 265q102 99 256 99q166 0 268 -110q92 -101 92 -251v-8q0 -164 -105 -268q-101 -98 -255 -98zM410 97q121 0 181 99q39 66 39 159v8q0 137 -83 208q-57 48 -139 48q-129 0 -188 -105q-35 -64 -35 -152v-8
q0 -138 87 -210q59 -47 138 -47zM300 777q-40 0 -58 35q-8 15 -8 30q0 39 36 58q14 7 30 7q40 0 58 -35q8 -15 8 -30q0 -39 -36 -58q-14 -7 -30 -7zM511 777q-40 0 -58 35q-8 15 -8 30q0 39 36 58q14 7 30 7q40 0 58 -35q8 -15 8 -30q0 -39 -36 -58q-14 -7 -30 -7z" />
    <glyph glyph-name="multiply" unicode="&#xd7;" horiz-adv-x="509" 
d="M101 115l-66 66l154 153l-155 154l66 67l154 -155l154 154l66 -66l-154 -154l155 -154l-67 -66l-154 155z" />
    <glyph glyph-name="Oslash" unicode="&#xd8;" 
d="M184 354q0 -82 31 -141l333 359q-57 47 -140 47q-130 0 -188 -105q-36 -64 -36 -152v-8zM409 97q124 0 184 101q38 66 38 158v8q0 91 -37 154l-336 -364q61 -57 151 -57zM84 -33l-50 51l91 98q-79 98 -79 237v8q0 162 106 265q103 98 256 98q127 -1 219 -67l78 84l50 -50
l-75 -81q89 -101 89 -246v-8q0 -164 -105 -268q-101 -98 -256 -98q-137 1 -232 76z" />
    <glyph glyph-name="Ugrave" unicode="&#xd9;" horiz-adv-x="723" 
d="M357 -10q-196 0 -257 146q-24 59 -24 136v443h134v-433q0 -135 69 -170q31 -15 79 -15q102 0 135 71q20 45 20 123v424h134v-435q0 -211 -161 -270q-57 -20 -129 -20zM321 766l-98 135h136l53 -135h-91z" />
    <glyph glyph-name="Uacute" unicode="&#xda;" horiz-adv-x="723" 
d="M357 -10q-196 0 -257 146q-24 59 -24 136v443h134v-433q0 -135 69 -170q31 -15 79 -15q102 0 135 71q20 45 20 123v424h134v-435q0 -211 -161 -270q-57 -20 -129 -20zM308 766l54 135h136l-99 -135h-91z" />
    <glyph glyph-name="Ucircumflex" unicode="&#xdb;" horiz-adv-x="723" 
d="M357 -10q-196 0 -257 146q-24 59 -24 136v443h134v-433q0 -135 69 -170q31 -15 79 -15q102 0 135 71q20 45 20 123v424h134v-435q0 -211 -161 -270q-57 -20 -129 -20zM198 766l111 135h104l108 -135h-88l-74 55l-75 -55h-86z" />
    <glyph glyph-name="Udieresis" unicode="&#xdc;" horiz-adv-x="723" 
d="M357 -10q-196 0 -257 146q-24 59 -24 136v443h134v-433q0 -135 69 -170q31 -15 79 -15q102 0 135 71q20 45 20 123v424h134v-435q0 -211 -161 -270q-57 -20 -129 -20zM254 777q-40 0 -58 35q-8 15 -8 30q0 39 36 58q14 7 30 7q40 0 58 -35q8 -15 8 -30q0 -39 -36 -58
q-14 -7 -30 -7zM465 777q-40 0 -58 35q-8 15 -8 30q0 39 36 58q14 7 30 7q40 0 58 -35q8 -15 8 -30q0 -39 -36 -58q-14 -7 -30 -7z" />
    <glyph glyph-name="Yacute" unicode="&#xdd;" horiz-adv-x="629" 
d="M254 0v310l-237 405h147l161 -296l157 296h130l-224 -406v-309h-134zM265 766l54 135h136l-99 -135h-91z" />
    <glyph glyph-name="Thorn" unicode="&#xde;" horiz-adv-x="609" 
d="M82 0v715h133v-127h97q221 0 258 -152q7 -30 7 -63v-4q0 -157 -147 -201q-51 -15 -115 -15h-100v-153h-133zM215 250h97q134 2 135 119v4q0 101 -101 113q-16 2 -34 2h-97v-238z" />
    <glyph glyph-name="germandbls" unicode="&#xdf;" horiz-adv-x="608" 
d="M353 -9q-56 0 -93 14v96q35 -15 72 -15q116 2 117 137v7q0 106 -92 140q-36 13 -82 12v95q94 -2 120 68q8 20 8 42v4q0 81 -78 93q-13 2 -26 2q-70 0 -96 -63q-10 -26 -10 -57v-566h-121v557q0 122 96 181q59 36 136 36q130 0 185 -81q29 -43 29 -100v-3q0 -73 -61 -122
q-26 -20 -58 -31q102 -25 148 -108q26 -48 26 -104v-6q0 -165 -126 -212q-43 -16 -94 -16z" />
    <glyph glyph-name="agrave" unicode="&#xe0;" horiz-adv-x="555" 
d="M238 77q83 0 116 54q13 24 13 52v52h-62q-146 -6 -151 -85q2 -72 84 -73zM209 -10q-116 0 -157 77q-18 34 -18 78q0 133 179 160q41 6 89 6h65v27q0 84 -55 100q-18 5 -40 5q-90 -2 -100 -82h-117q10 123 130 160q43 13 94 13q192 0 208 -162q1 -14 1 -29v-343h-119v64
q-57 -74 -160 -74zM240 601l-104 155h134l59 -155h-89z" />
    <glyph glyph-name="aacute" unicode="&#xe1;" horiz-adv-x="555" 
d="M238 77q83 0 116 54q13 24 13 52v52h-62q-146 -6 -151 -85q2 -72 84 -73zM209 -10q-116 0 -157 77q-18 34 -18 78q0 133 179 160q41 6 89 6h65v27q0 84 -55 100q-18 5 -40 5q-90 -2 -100 -82h-117q10 123 130 160q43 13 94 13q192 0 208 -162q1 -14 1 -29v-343h-119v64
q-57 -74 -160 -74zM229 601l59 155h134l-104 -155h-89z" />
    <glyph glyph-name="acircumflex" unicode="&#xe2;" horiz-adv-x="555" 
d="M238 77q83 0 116 54q13 24 13 52v52h-62q-146 -6 -151 -85q2 -72 84 -73zM209 -10q-116 0 -157 77q-18 34 -18 78q0 133 179 160q41 6 89 6h65v27q0 84 -55 100q-18 5 -40 5q-90 -2 -100 -82h-117q10 123 130 160q43 13 94 13q192 0 208 -162q1 -14 1 -29v-343h-119v64
q-57 -74 -160 -74zM109 602l114 151h96l111 -151h-86l-75 68l-76 -68h-84z" />
    <glyph glyph-name="atilde" unicode="&#xe3;" horiz-adv-x="555" 
d="M238 77q83 0 116 54q13 24 13 52v52h-62q-146 -6 -151 -85q2 -72 84 -73zM209 -10q-116 0 -157 77q-18 34 -18 78q0 133 179 160q41 6 89 6h65v27q0 84 -55 100q-18 5 -40 5q-90 -2 -100 -82h-117q10 123 130 160q43 13 94 13q192 0 208 -162q1 -14 1 -29v-343h-119v64
q-57 -74 -160 -74zM337 606q-27 0 -74 26q-25 14 -37 14q-24 0 -34 -30q-2 -5 -3 -10h-75q9 96 70 123q18 8 37 8q25 0 72 -25q27 -14 40 -14q26 0 35 33q0 4 1 7h75q-9 -94 -68 -123q-19 -9 -39 -9z" />
    <glyph glyph-name="adieresis" unicode="&#xe4;" horiz-adv-x="555" 
d="M238 77q83 0 116 54q13 24 13 52v52h-62q-146 -6 -151 -85q2 -72 84 -73zM209 -10q-116 0 -157 77q-18 34 -18 78q0 133 179 160q41 6 89 6h65v27q0 84 -55 100q-18 5 -40 5q-90 -2 -100 -82h-117q10 123 130 160q43 13 94 13q192 0 208 -162q1 -14 1 -29v-343h-119v64
q-57 -74 -160 -74zM378 613q-41 0 -59 36q-7 14 -7 29q0 39 35 57q15 8 31 8q39 0 58 -35q8 -15 8 -30q0 -39 -36 -58q-14 -7 -30 -7zM180 613q-40 0 -58 35q-8 15 -8 30q0 38 34 57q16 8 32 8q39 0 58 -35q8 -15 8 -30q0 -39 -36 -58q-14 -7 -30 -7z" />
    <glyph glyph-name="aring" unicode="&#xe5;" horiz-adv-x="555" 
d="M238 77q83 0 116 54q13 24 13 52v52h-62q-146 -6 -151 -85q2 -72 84 -73zM209 -10q-116 0 -157 77q-18 34 -18 78q0 133 179 160q41 6 89 6h65v27q0 84 -55 100q-18 5 -40 5q-90 -2 -100 -82h-117q10 123 130 160q43 13 94 13q192 0 208 -162q1 -14 1 -29v-343h-119v64
q-57 -74 -160 -74zM279 590q-59 0 -93 49q-18 27 -18 59q0 57 49 89q29 19 62 19q59 0 93 -49q18 -27 18 -59q0 -57 -49 -89q-29 -19 -62 -19zM279 643q34 0 46 33q4 11 4 22q0 40 -32 52q-9 3 -18 3q-35 0 -47 -34q-3 -10 -3 -21q0 -38 31 -51q9 -4 19 -4z" />
    <glyph glyph-name="ae" unicode="&#xe6;" horiz-adv-x="891" 
d="M620 -10q-135 1 -199 100q-60 -88 -168 -98q-18 -2 -37 -2q-123 0 -165 79q-17 33 -17 76q0 126 158 159q48 10 108 10h68v24q0 92 -70 103q-12 2 -25 2q-91 -2 -101 -82h-117q10 121 127 159q43 14 94 14q122 -1 166 -76q66 76 173 76q130 0 195 -93q46 -67 46 -171v-33
h-372q6 -140 112 -155q12 -2 25 -2q101 1 116 80h116q-18 -118 -134 -156q-45 -14 -99 -14zM486 314h250q-12 131 -121 132q-81 0 -115 -78q-10 -25 -14 -54zM239 77q85 0 116 56q13 22 13 50v53h-65q-141 0 -148 -74q-1 -5 -1 -10q2 -74 85 -75z" />
    <glyph glyph-name="ccedilla" unicode="&#xe7;" horiz-adv-x="575" 
d="M283 -219q-77 0 -102 58q-6 15 -8 30h66q12 -29 40 -33q33 6 37 34q0 26 -26 31q-5 1 -9 1q-17 0 -30 -9l-34 32l40 68q-125 17 -184 116q-36 63 -36 146v8q0 137 95 214q72 57 169 57q145 0 206 -95q27 -43 33 -101h-117q-16 98 -120 99q-84 0 -121 -75q-21 -41 -21 -97
v-8q0 -130 88 -164q26 -10 57 -10q75 0 109 57q14 25 17 55h111q-9 -114 -101 -169q-55 -33 -127 -36l-23 -40q58 7 85 -33q15 -21 15 -50q0 -60 -62 -79q-22 -7 -47 -7z" />
    <glyph glyph-name="egrave" unicode="&#xe8;" horiz-adv-x="580" 
d="M302 -10q-137 0 -210 93q-55 71 -55 173v8q0 136 93 213q70 57 167 57q131 0 198 -91q49 -68 49 -173v-35h-383q5 -128 104 -151q19 -4 40 -4q105 1 120 80h117q-18 -119 -138 -156q-46 -14 -102 -14zM163 316h261q-10 129 -127 130q-86 0 -121 -81q-9 -23 -13 -49z
M256 601l-104 155h134l59 -155h-89z" />
    <glyph glyph-name="eacute" unicode="&#xe9;" horiz-adv-x="580" 
d="M302 -10q-137 0 -210 93q-55 71 -55 173v8q0 136 93 213q70 57 167 57q131 0 198 -91q49 -68 49 -173v-35h-383q5 -128 104 -151q19 -4 40 -4q105 1 120 80h117q-18 -119 -138 -156q-46 -14 -102 -14zM163 316h261q-10 129 -127 130q-86 0 -121 -81q-9 -23 -13 -49z
M245 601l59 155h134l-104 -155h-89z" />
    <glyph glyph-name="ecircumflex" unicode="&#xea;" horiz-adv-x="580" 
d="M302 -10q-137 0 -210 93q-55 71 -55 173v8q0 136 93 213q70 57 167 57q131 0 198 -91q49 -68 49 -173v-35h-383q5 -128 104 -151q19 -4 40 -4q105 1 120 80h117q-18 -119 -138 -156q-46 -14 -102 -14zM163 316h261q-10 129 -127 130q-86 0 -121 -81q-9 -23 -13 -49z
M134 602l114 151h96l111 -151h-86l-75 68l-76 -68h-84z" />
    <glyph glyph-name="edieresis" unicode="&#xeb;" horiz-adv-x="580" 
d="M196 613q-40 0 -58 35q-8 15 -8 30q0 38 34 57q16 8 32 8q39 0 58 -35q8 -15 8 -30q0 -39 -36 -58q-14 -7 -30 -7zM394 613q-41 0 -59 36q-7 14 -7 29q0 39 35 57q15 8 31 8q39 0 58 -35q8 -15 8 -30q0 -39 -36 -58q-14 -7 -30 -7zM302 -10q-137 0 -210 93
q-55 71 -55 173v8q0 136 93 213q70 57 167 57q131 0 198 -91q49 -68 49 -173v-35h-383q5 -128 104 -151q19 -4 40 -4q105 1 120 80h117q-18 -119 -138 -156q-46 -14 -102 -14zM163 316h261q-10 129 -127 130q-86 0 -121 -81q-9 -23 -13 -49z" />
    <glyph glyph-name="igrave" unicode="&#xec;" horiz-adv-x="271" 
d="M75 0v523h121v-523h-121zM97 601l-104 155h134l59 -155h-89z" />
    <glyph glyph-name="iacute" unicode="&#xed;" horiz-adv-x="271" 
d="M75 0v523h121v-523h-121zM86 601l59 155h134l-104 -155h-89z" />
    <glyph glyph-name="icircumflex" unicode="&#xee;" horiz-adv-x="271" 
d="M75 0v523h121v-523h-121zM-25 602l114 151h96l111 -151h-86l-75 68l-76 -68h-84z" />
    <glyph glyph-name="idieresis" unicode="&#xef;" horiz-adv-x="271" 
d="M231 613q-40 0 -58 35q-8 15 -8 30q0 38 34 57q16 8 32 8q39 0 58 -35q8 -15 8 -30q0 -39 -36 -58q-14 -7 -30 -7zM39 613q-40 0 -58 35q-8 15 -8 30q0 38 34 57q16 8 32 8q39 0 58 -35q8 -15 8 -30q0 -39 -36 -58q-14 -7 -30 -7zM75 0v523h121v-523h-121z" />
    <glyph glyph-name="eth" unicode="&#xf0;" horiz-adv-x="611" 
d="M168 566l-27 54l103 49q-52 46 -124 96h143q44 -25 75 -50l93 45l27 -54l-69 -34q165 -153 183 -339q2 -21 2 -41v-22q0 -142 -95 -221q-73 -59 -175 -59q-130 0 -206 90q-61 73 -61 179v10q0 128 87 204q66 58 150 58q80 -1 134 -61q-40 80 -117 155zM306 84
q91 0 127 82q17 40 17 91v8q0 118 -75 158q-31 16 -68 16q-94 0 -130 -84q-16 -39 -16 -89v-8q0 -118 76 -158q31 -16 69 -16z" />
    <glyph glyph-name="ntilde" unicode="&#xf1;" horiz-adv-x="608" 
d="M72 0v523h121v-83q34 69 117 88q25 6 52 6q133 0 168 -119q11 -38 11 -86v-329h-121v318q0 100 -76 113q-14 2 -28 2q-77 0 -108 -59q-15 -29 -15 -66v-308h-121zM361 606q-27 0 -74 26q-25 14 -37 14q-24 0 -34 -30q-2 -5 -3 -10h-75q9 96 70 123q18 8 37 8q25 0 72 -25
q27 -14 40 -14q26 0 35 33q0 4 1 7h75q-9 -94 -68 -123q-19 -9 -39 -9z" />
    <glyph glyph-name="ograve" unicode="&#xf2;" horiz-adv-x="611" 
d="M305 -10q-130 0 -206 89q-62 72 -62 177v8q0 135 95 212q73 58 174 58q129 0 206 -89q62 -73 62 -178v-8q0 -137 -96 -213q-73 -56 -173 -56zM306 84q93 0 128 85q16 39 16 89v7q0 119 -77 159q-30 15 -67 15q-95 0 -130 -85q-15 -39 -15 -88v-8q0 -120 78 -159
q30 -15 67 -15zM266 601l-104 155h134l59 -155h-89z" />
    <glyph glyph-name="oacute" unicode="&#xf3;" horiz-adv-x="611" 
d="M305 -10q-130 0 -206 89q-62 72 -62 177v8q0 135 95 212q73 58 174 58q129 0 206 -89q62 -73 62 -178v-8q0 -137 -96 -213q-73 -56 -173 -56zM306 84q93 0 128 85q16 39 16 89v7q0 119 -77 159q-30 15 -67 15q-95 0 -130 -85q-15 -39 -15 -88v-8q0 -120 78 -159
q30 -15 67 -15zM255 601l59 155h134l-104 -155h-89z" />
    <glyph glyph-name="ocircumflex" unicode="&#xf4;" horiz-adv-x="611" 
d="M305 -10q-130 0 -206 89q-62 72 -62 177v8q0 135 95 212q73 58 174 58q129 0 206 -89q62 -73 62 -178v-8q0 -137 -96 -213q-73 -56 -173 -56zM306 84q93 0 128 85q16 39 16 89v7q0 119 -77 159q-30 15 -67 15q-95 0 -130 -85q-15 -39 -15 -88v-8q0 -120 78 -159
q30 -15 67 -15zM144 602l114 151h96l111 -151h-86l-75 68l-76 -68h-84z" />
    <glyph glyph-name="otilde" unicode="&#xf5;" horiz-adv-x="611" 
d="M305 -10q-130 0 -206 89q-62 72 -62 177v8q0 135 95 212q73 58 174 58q129 0 206 -89q62 -73 62 -178v-8q0 -137 -96 -213q-73 -56 -173 -56zM306 84q93 0 128 85q16 39 16 89v7q0 119 -77 159q-30 15 -67 15q-95 0 -130 -85q-15 -39 -15 -88v-8q0 -120 78 -159
q30 -15 67 -15zM363 606q-27 0 -74 26q-25 14 -37 14q-24 0 -34 -30q-2 -5 -3 -10h-75q9 96 70 123q18 8 37 8q25 0 72 -25q27 -14 40 -14q26 0 35 33q0 4 1 7h75q-9 -94 -68 -123q-19 -9 -39 -9z" />
    <glyph glyph-name="odieresis" unicode="&#xf6;" horiz-adv-x="611" 
d="M305 -10q-130 0 -206 89q-62 72 -62 177v8q0 135 95 212q73 58 174 58q129 0 206 -89q62 -73 62 -178v-8q0 -137 -96 -213q-73 -56 -173 -56zM306 84q93 0 128 85q16 39 16 89v7q0 119 -77 159q-30 15 -67 15q-95 0 -130 -85q-15 -39 -15 -88v-8q0 -120 78 -159
q30 -15 67 -15zM404 613q-41 0 -59 36q-7 14 -7 29q0 39 35 57q15 8 31 8q39 0 58 -35q8 -15 8 -30q0 -39 -36 -58q-14 -7 -30 -7zM206 613q-40 0 -58 35q-8 15 -8 30q0 38 34 57q16 8 32 8q39 0 58 -35q8 -15 8 -30q0 -39 -36 -58q-14 -7 -30 -7z" />
    <glyph glyph-name="divide" unicode="&#xf7;" horiz-adv-x="540" 
d="M270 461q-45 0 -67 39q-9 17 -9 36q0 46 39 67q18 9 37 9q44 0 66 -38q10 -18 10 -38q0 -43 -39 -65q-18 -10 -37 -10zM37 296v91h467v-91h-467zM270 71q-45 0 -67 39q-9 17 -9 36q0 45 39 66q18 9 37 9q43 0 66 -37q10 -18 10 -38q0 -43 -39 -65q-18 -10 -37 -10z" />
    <glyph glyph-name="oslash" unicode="&#xf8;" horiz-adv-x="611" 
d="M161 258q0 -48 14 -87l220 239q-39 30 -89 30q-94 0 -129 -85q-16 -39 -16 -89v-8zM306 84q94 0 129 85q16 38 16 88v8q0 54 -18 93l-222 -241q37 -33 95 -33zM69 -38l-47 42l73 79q-58 71 -58 173v8q0 135 95 212q73 58 174 58q91 -1 159 -48l67 73l47 -42l-67 -73
q62 -72 62 -177v-8q0 -137 -96 -213q-73 -56 -173 -56q-95 1 -164 50z" />
    <glyph glyph-name="ugrave" unicode="&#xf9;" horiz-adv-x="605" 
d="M247 -10q-124 0 -164 102q-16 41 -16 96v335h121v-321q0 -107 87 -114q8 -1 16 -1q72 0 105 55q17 30 17 70v311h121v-523h-121v82q-40 -78 -135 -90q-16 -2 -31 -2zM263 601l-104 155h134l59 -155h-89z" />
    <glyph glyph-name="uacute" unicode="&#xfa;" horiz-adv-x="605" 
d="M247 -10q-124 0 -164 102q-16 41 -16 96v335h121v-321q0 -107 87 -114q8 -1 16 -1q72 0 105 55q17 30 17 70v311h121v-523h-121v82q-40 -78 -135 -90q-16 -2 -31 -2zM252 601l59 155h134l-104 -155h-89z" />
    <glyph glyph-name="ucircumflex" unicode="&#xfb;" horiz-adv-x="605" 
d="M247 -10q-124 0 -164 102q-16 41 -16 96v335h121v-321q0 -107 87 -114q8 -1 16 -1q72 0 105 55q17 30 17 70v311h121v-523h-121v82q-40 -78 -135 -90q-16 -2 -31 -2zM141 602l114 151h96l111 -151h-86l-75 68l-76 -68h-84z" />
    <glyph glyph-name="udieresis" unicode="&#xfc;" horiz-adv-x="605" 
d="M247 -10q-124 0 -164 102q-16 41 -16 96v335h121v-321q0 -107 87 -114q8 -1 16 -1q72 0 105 55q17 30 17 70v311h121v-523h-121v82q-40 -78 -135 -90q-16 -2 -31 -2zM401 613q-41 0 -59 36q-7 14 -7 29q0 39 35 57q15 8 31 8q39 0 58 -35q8 -15 8 -30q0 -39 -36 -58
q-14 -7 -30 -7zM203 613q-40 0 -58 35q-8 15 -8 30q0 38 34 57q16 8 32 8q39 0 58 -35q8 -15 8 -30q0 -39 -36 -58q-14 -7 -30 -7z" />
    <glyph glyph-name="yacute" unicode="&#xfd;" horiz-adv-x="553" 
d="M130 -179l95 232l-207 470h131l139 -337l128 337h118l-285 -702h-119zM235 601l59 155h134l-104 -155h-89z" />
    <glyph glyph-name="thorn" unicode="&#xfe;" horiz-adv-x="633" 
d="M334 86q112 0 133 117q5 25 5 55v8q0 122 -79 160q-27 13 -60 13q-94 0 -129 -84q-15 -39 -15 -89v-8q0 -140 101 -167q21 -5 44 -5zM72 -179v944h121v-326q35 60 107 84q32 11 64 11q117 0 182 -90q50 -71 50 -176v-8q0 -151 -93 -224q-59 -46 -139 -46q-101 0 -156 70
q-9 11 -15 22v-261h-121z" />
    <glyph glyph-name="uni0401" unicode="&#x401;" horiz-adv-x="584" 
d="M82 0v715h447v-105h-314v-196h252v-100h-252v-209h331v-105h-464zM207 777q-40 0 -58 35q-8 15 -8 30q0 39 36 58q14 7 30 7q40 0 58 -35q8 -15 8 -30q0 -39 -36 -58q-14 -7 -30 -7zM418 777q-40 0 -58 35q-8 15 -8 30q0 39 36 58q14 7 30 7q40 0 58 -35q8 -15 8 -30
q0 -39 -36 -58q-14 -7 -30 -7z" />
    <glyph glyph-name="uni0402" unicode="&#x402;" horiz-adv-x="795" 
d="M359 385q58 52 158 56h13q159 0 207 -124q17 -45 17 -103q0 -175 -122 -217q-34 -11 -74 -11q-56 0 -94 20v104q37 -17 70 -17q72 0 85 86q2 16 2 34q0 113 -106 122q-11 1 -21 1q-78 0 -130 -55q-3 -4 -5 -6v-275h-134v610h-199v105h538v-105h-205v-225z" />
    <glyph glyph-name="uni0403" unicode="&#x403;" horiz-adv-x="549" 
d="M82 0v715h433v-107h-299v-608h-134zM251 766l54 135h136l-99 -135h-91z" />
    <glyph glyph-name="uni0404" unicode="&#x404;" horiz-adv-x="741" 
d="M708 248q-25 -177 -175 -235q-61 -23 -138 -23q-198 0 -289 138q-60 91 -60 225v8q0 167 106 271q98 94 241 94q176 0 257 -110q41 -58 50 -138h-135q-21 135 -155 142h-16q-113 0 -169 -95q-27 -48 -35 -110h302v-102h-303q11 -146 111 -196q43 -20 95 -20
q128 0 170 101q9 24 13 50h130z" />
    <glyph glyph-name="uni0405" unicode="&#x405;" horiz-adv-x="635" 
d="M325 -10q-231 0 -278 174q-7 28 -9 58h128q11 -90 73 -117q35 -15 86 -15q84 0 119 54q16 26 16 56q0 56 -43 80q-33 18 -106 30q-166 22 -218 91q-34 46 -34 118q0 100 85 159q67 46 164 46q204 0 250 -154q7 -25 10 -53h-122q-15 89 -96 104q-19 3 -42 3
q-94 0 -117 -61q-6 -16 -6 -33q0 -52 38 -75q34 -19 110 -30q160 -22 214 -84q41 -48 41 -130q0 -104 -85 -167q-73 -54 -178 -54z" />
    <glyph glyph-name="uni0406" unicode="&#x406;" horiz-adv-x="307" 
d="M86 0v715h134v-715h-134z" />
    <glyph glyph-name="uni0407" unicode="&#x407;" horiz-adv-x="307" 
d="M86 0v715h134v-715h-134zM47 777q-40 0 -58 35q-8 15 -8 30q0 39 36 58q14 7 30 7q40 0 58 -35q8 -15 8 -30q0 -39 -36 -58q-14 -7 -30 -7zM258 777q-40 0 -58 35q-8 15 -8 30q0 39 36 58q14 7 30 7q40 0 58 -35q8 -15 8 -30q0 -39 -36 -58q-14 -7 -30 -7z" />
    <glyph glyph-name="uni0408" unicode="&#x408;" horiz-adv-x="443" 
d="M148 -9q-72 0 -112 21v104q46 -18 92 -18q106 2 107 122v495h134v-498q0 -168 -130 -212q-41 -14 -91 -14z" />
    <glyph glyph-name="uni0409" unicode="&#x409;" horiz-adv-x="1011" 
d="M493 0v608h-214q-4 -194 -14 -326q-14 -211 -102 -268q-38 -24 -90 -24q-14 0 -26.5 2.5t-18.5 5.5l-5 2v114q6 0 32 -4q55 0 76 89q9 37 14 93q13 171 13 423h468v-275h91q186 0 241 -117q20 -43 20 -98v-4q0 -158 -145 -205q-53 -16 -119 -16h-221zM626 103h88
q134 2 135 119v4q-2 116 -135 117h-88v-240z" />
    <glyph glyph-name="uni040A" unicode="&#x40a;" horiz-adv-x="1035" 
d="M651 103h87q134 2 135 119v4q-2 116 -135 117h-87v-240zM518 0v304h-302v-304h-134v715h134v-304h302v304h133v-275h90q186 0 241 -117q20 -43 20 -98v-4q0 -158 -145 -205q-53 -16 -119 -16h-220z" />
    <glyph glyph-name="uni040B" unicode="&#x40b;" horiz-adv-x="805" 
d="M359 385l24 19q61 37 142 37q222 -2 223 -252v-189h-133v189q0 104 -52 132q-28 15 -72 15q-26 0 -49 -6t-37.5 -14t-25.5 -16.5t-15 -14.5l-5 -6v-279h-134v610h-199v105h538v-105h-205v-225z" />
    <glyph glyph-name="uni040C" unicode="&#x40c;" horiz-adv-x="659" 
d="M290 766l54 135h136l-99 -135h-91zM82 0v715h133v-324l274 325h143l-296 -342l311 -374h-157l-275 334v-334h-133z" />
    <glyph glyph-name="uni040D" unicode="&#x40d;" horiz-adv-x="763" 
d="M216 0h-134v715h134v-536l332 536h134v-715h-134v539zM345 766l-98 135h136l53 -135h-91z" />
    <glyph glyph-name="uni040E" unicode="&#x40e;" horiz-adv-x="617" 
d="M324 761q-86 0 -125 69q-17 31 -20 71h91q9 -63 54 -65q48 0 57 60q1 3 1 5h90q-5 -83 -70 -120q-35 -20 -78 -20zM153 -9q-37 0 -54 11v110q25 -6 46 -6q72 2 113 81l-243 528h140l166 -381l162 381h128l-239 -541q-50 -112 -105 -150q-48 -33 -114 -33z" />
    <glyph glyph-name="uni040F" unicode="&#x40f;" horiz-adv-x="741" 
d="M313 0h-231v715h134v-608h310v608h134v-715h-231l-2 -130h-112z" />
    <glyph glyph-name="uni0410" unicode="&#x410;" horiz-adv-x="703" 
d="M345 606l-106 -332h211zM27 0l239 715h174l236 -715h-138l-57 177h-273l-56 -177h-125z" />
    <glyph glyph-name="uni0411" unicode="&#x411;" horiz-adv-x="632" 
d="M593 215q0 -149 -132 -196q-54 -19 -124 -19h-255v715h449v-105h-317v-181h126q203 0 244 -139q9 -33 9 -71v-4zM214 102h119q131 2 132 114v4q-2 112 -137 113h-114v-231z" />
    <glyph glyph-name="uni0412" unicode="&#x412;" horiz-adv-x="644" 
d="M82 0v715h256q233 -2 234 -186v-4q-2 -117 -113 -152q126 -27 141 -136q2 -16 2 -33v-4q0 -162 -166 -193q-36 -7 -79 -7h-275zM212 414h110q97 0 116 60q6 19 6 45v4q0 81 -81 94q-20 3 -43 3h-108v-206zM212 95h129q129 2 130 114v4q0 95 -98 108q-19 3 -41 3h-120
v-229z" />
    <glyph glyph-name="uni0413" unicode="&#x413;" horiz-adv-x="549" 
d="M82 0v715h433v-107h-299v-608h-134z" />
    <glyph glyph-name="uni0414" unicode="&#x414;" horiz-adv-x="724" 
d="M244 286q-10 -122 -45 -179h296v502h-235q-7 -200 -16 -323zM122 0l-5 -130h-114v237h45q51 19 69 126q4 27 8 62q16 189 16 420h486v-608h85v-237h-115l-5 130h-470z" />
    <glyph glyph-name="uni0415" unicode="&#x415;" horiz-adv-x="584" 
d="M82 0v715h447v-105h-314v-196h252v-100h-252v-209h331v-105h-464z" />
    <glyph glyph-name="uni0416" unicode="&#x416;" horiz-adv-x="937" 
d="M402 0v337l-242 -337h-145l273 369l-263 346h141l236 -326v326h131v-326l237 326h138l-261 -340l276 -375h-150l-240 336v-336h-131z" />
    <glyph glyph-name="uni0417" unicode="&#x417;" horiz-adv-x="626" 
d="M308 -10q-171 0 -240 126q-28 51 -35 116h127q17 -111 103 -130q21 -5 46 -5q108 0 132 80q5 19 5 40q0 77 -64 96q-29 9 -72 9h-81v92h79q113 2 114 106q0 78 -74 95q-18 4 -38 4q-91 0 -120 -76q-7 -18 -11 -40h-125q19 161 156 206q47 16 105 16q132 0 198 -78
q42 -50 42 -117q0 -100 -81 -144q-18 -9 -38 -15q118 -17 142 -115q5 -22 5 -46q0 -111 -96 -173q-74 -47 -179 -47z" />
    <glyph glyph-name="uni0418" unicode="&#x418;" horiz-adv-x="763" 
d="M216 0h-134v715h134v-536l332 536h134v-715h-134v539z" />
    <glyph glyph-name="uni0419" unicode="&#x419;" horiz-adv-x="763" 
d="M380 761q-86 0 -125 69q-17 31 -20 71h92q9 -63 53 -65q47 0 58 55q0 6 1 10h89q-5 -83 -70 -120q-35 -20 -78 -20zM216 0h-134v715h134v-536l332 536h134v-715h-134v539z" />
    <glyph glyph-name="uni041A" unicode="&#x41a;" horiz-adv-x="659" 
d="M82 0v715h133v-324l274 325h143l-296 -342l311 -374h-157l-275 334v-334h-133z" />
    <glyph glyph-name="uni041B" unicode="&#x41b;" horiz-adv-x="715" 
d="M263 259q-18 -209 -118 -254q-32 -15 -72 -15q-14 0 -26.5 2.5t-18.5 5.5l-5 2v114q6 0 32 -4q56 0 76 90q8 35 12 84q15 180 15 431h475v-715h-134v608h-220q-4 -196 -16 -349z" />
    <glyph glyph-name="uni041C" unicode="&#x41c;" horiz-adv-x="890" 
d="M82 0v715h178l188 -488l184 488h176v-715h-133v540l-213 -540h-43l-217 540v-540h-120z" />
    <glyph glyph-name="uni041D" unicode="&#x41d;" horiz-adv-x="751" 
d="M82 0v715h133v-304h321v304h134v-715h-134v304h-321v-304h-133z" />
    <glyph glyph-name="uni041E" unicode="&#x41e;" 
d="M408 -10q-170 0 -272 114q-90 101 -90 249v8q0 161 106 265q102 99 256 99q166 0 268 -110q92 -101 92 -251v-8q0 -164 -105 -268q-101 -98 -255 -98zM410 97q121 0 181 99q39 66 39 159v8q0 137 -83 208q-57 48 -139 48q-129 0 -188 -105q-35 -64 -35 -152v-8
q0 -138 87 -210q59 -47 138 -47z" />
    <glyph glyph-name="uni041F" unicode="&#x41f;" horiz-adv-x="741" 
d="M526 0v608h-310v-608h-134v715h578v-715h-134z" />
    <glyph glyph-name="uni0420" unicode="&#x420;" horiz-adv-x="609" 
d="M82 0v715h230q186 0 243 -117q22 -46 22 -104v-4q0 -153 -140 -200q-54 -18 -122 -18h-100v-272h-133zM215 368h97q120 0 133 99q2 11 2 23v4q-2 117 -135 118h-97v-244z" />
    <glyph glyph-name="uni0421" unicode="&#x421;" horiz-adv-x="741" 
d="M395 -10q-198 0 -289 138q-60 91 -60 225v8q0 167 107 271q97 94 240 94q170 0 252 -104q47 -61 55 -146h-135q-31 140 -171 144q-116 0 -172 -100q-36 -65 -36 -158v-8q0 -169 102 -229q46 -27 107 -27q126 0 168 97q11 25 15 54h130q-21 -170 -163 -231
q-66 -28 -150 -28z" />
    <glyph glyph-name="uni0422" unicode="&#x422;" horiz-adv-x="583" 
d="M225 0v610h-199v105h532v-105h-199v-610h-134z" />
    <glyph glyph-name="uni0423" unicode="&#x423;" horiz-adv-x="617" 
d="M153 -9q-37 0 -54 11v110q25 -6 46 -6q72 2 113 81l-243 528h140l166 -381l162 381h128l-239 -541q-50 -112 -105 -150q-48 -33 -114 -33z" />
    <glyph glyph-name="uni0424" unicode="&#x424;" horiz-adv-x="866" 
d="M499 634q208 -6 287 -125q39 -60 39 -144v-8q-3 -168 -152 -235q-75 -34 -174 -36v-96h-132v96q-203 4 -284 120q-42 62 -42 149v6q1 171 155 238q73 32 171 35v95h132v-95zM367 182v355q-176 -7 -191 -150q-1 -13 -1 -26v-7q2 -164 192 -172zM499 537v-354
q171 7 190 141q2 16 2 33v8q-2 164 -192 172z" />
    <glyph glyph-name="uni0425" unicode="&#x425;" horiz-adv-x="696" 
d="M36 0l230 367l-214 348h150l152 -254l151 254h137l-211 -345l229 -370h-152l-168 279l-168 -279h-136z" />
    <glyph glyph-name="uni0426" unicode="&#x426;" horiz-adv-x="756" 
d="M743 -130h-114l-5 130h-542v715h134v-608h310v608h134v-608h83v-237z" />
    <glyph glyph-name="uni0427" unicode="&#x427;" horiz-adv-x="699" 
d="M617 0h-133v318l-30 -20q-69 -36 -153 -36q-175 0 -226 148q-18 54 -18 124v181h134v-187q2 -160 134 -161q32 0 60.5 6.5t45.5 15.5t30 18.5t18 16.5l5 6v285h133v-715z" />
    <glyph glyph-name="uni0428" unicode="&#x428;" horiz-adv-x="1017" 
d="M82 0v715h134v-608h226v608h134v-608h226v608h133v-715h-853z" />
    <glyph glyph-name="uni0429" unicode="&#x429;" horiz-adv-x="1031" 
d="M1019 -130h-114l-5 130h-818v715h134v-608h226v608h134v-608h226v608h133v-608h84v-237z" />
    <glyph glyph-name="uni042A" unicode="&#x42a;" horiz-adv-x="736" 
d="M209 0v609h-183v106h316v-271h101q180 0 238 -111q23 -46 23 -106v-4q0 -155 -139 -204q-55 -19 -126 -19h-230zM342 103h98q133 2 134 121v4q-6 116 -134 119h-98v-244z" />
    <glyph glyph-name="uni042B" unicode="&#x42b;" horiz-adv-x="859" 
d="M82 0v715h133v-271h93q182 0 239 -113q23 -45 23 -104v-4q0 -153 -137 -203q-55 -20 -128 -20h-223zM777 715v-715h-133v715h133zM215 103h90q134 2 135 121v4q-2 118 -135 119h-90v-244z" />
    <glyph glyph-name="uni042C" unicode="&#x42c;" horiz-adv-x="609" 
d="M82 0v715h133v-271h100q183 0 240 -115q21 -44 21 -102v-4q0 -155 -138 -204q-55 -19 -126 -19h-230zM215 103h97q134 2 135 121v4q-2 118 -135 119h-97v-244z" />
    <glyph glyph-name="uni042D" unicode="&#x42d;" horiz-adv-x="741" 
d="M345 -10q-160 0 -246 96q-55 63 -65 154h132q26 -143 180 -144q120 0 174 100q26 50 32 116h-302v102h303q-16 151 -124 192q-35 13 -76 13q-155 -2 -177 -148h-133q28 206 219 246q43 9 93 9q167 0 261 -115q79 -96 79 -242v-8q0 -186 -114 -288q-93 -83 -236 -83z" />
    <glyph glyph-name="uni042E" unicode="&#x42e;" horiz-adv-x="1054" 
d="M659 -10q-169 0 -267 117q-68 82 -81 197h-95v-304h-134v715h134v-304h96q18 153 129 241q92 72 218 72q165 0 263 -113q86 -99 86 -247v-8q0 -168 -104 -271q-96 -95 -245 -95zM661 97q123 0 177 107q32 64 32 152v8q0 144 -84 213q-53 42 -127 42q-128 0 -182 -111
q-30 -62 -30 -146v-8q0 -142 85 -212q55 -45 129 -45z" />
    <glyph glyph-name="uni042F" unicode="&#x42f;" horiz-adv-x="656" 
d="M442 612h-101q-110 0 -130 -70q-5 -19 -5 -41v-4q2 -115 136 -116h100v231zM357 287l-193 -287h-145l213 308q-130 27 -153 144q-4 23 -4 48v4q0 159 159 199q48 12 107 12h234v-715h-133v287h-85z" />
    <glyph glyph-name="uni0430" unicode="&#x430;" horiz-adv-x="555" 
d="M238 77q83 0 116 54q13 24 13 52v52h-62q-146 -6 -151 -85q2 -72 84 -73zM209 -10q-116 0 -157 77q-18 34 -18 78q0 133 179 160q41 6 89 6h65v27q0 84 -55 100q-18 5 -40 5q-90 -2 -100 -82h-117q10 123 130 160q43 13 94 13q192 0 208 -162q1 -14 1 -29v-343h-119v64
q-57 -74 -160 -74z" />
    <glyph glyph-name="uni0431" unicode="&#x431;" horiz-adv-x="616" 
d="M310 -10q-180 0 -241 154q-27 70 -27 165v37q2 399 303 415l32 1q119 7 155 19v-95q-48 -20 -157 -26l-26 -2q-149 -8 -194 -141q-15 -45 -20 -106h5q60 114 197 115q122 0 191 -93q51 -70 51 -168v-6q0 -142 -100 -217q-71 -52 -169 -52zM311 84q97 0 131 90
q13 37 13 84v4q0 133 -91 162q-22 7 -48 7q-99 0 -134 -85q-16 -38 -16 -87v-5q0 -116 77 -155q30 -15 68 -15z" />
    <glyph glyph-name="uni0432" unicode="&#x432;" horiz-adv-x="536" 
d="M72 0v523h211q186 -6 191 -131v-2q0 -83 -76 -110q-8 -3 -17 -5q115 -24 116 -118v-3q0 -118 -120 -146q-34 -8 -75 -8h-230zM262 442h-69v-133h73q77 0 83 56q1 7 1 13v2q0 51 -55 60q-15 2 -33 2zM283 228h-90v-147h86q92 3 94 72v2q-2 72 -90 73z" />
    <glyph glyph-name="uni0433" unicode="&#x433;" horiz-adv-x="445" 
d="M421 433h-228v-433h-121v523h349v-90z" />
    <glyph glyph-name="uni0434" unicode="&#x434;" horiz-adv-x="596" 
d="M212 222q-9 -88 -31 -132h203v344h-159q-4 -110 -13 -212zM120 0l-4 -127h-103v217h33q38 13 53 102q2 17 5 38q16 142 16 293h384v-433h76v-217h-103l-4 127h-353z" />
    <glyph glyph-name="uni0435" unicode="&#x435;" horiz-adv-x="580" 
d="M302 -10q-137 0 -210 93q-55 71 -55 173v8q0 136 93 213q70 57 167 57q131 0 198 -91q49 -68 49 -173v-35h-383q5 -128 104 -151q19 -4 40 -4q105 1 120 80h117q-18 -119 -138 -156q-46 -14 -102 -14zM163 316h261q-10 129 -127 130q-86 0 -121 -81q-9 -23 -13 -49z" />
    <glyph glyph-name="uni0436" unicode="&#x436;" horiz-adv-x="747" 
d="M314 0v259l-170 -259h-131l191 280l-176 243h126l160 -237v237h118v-237l160 237h126l-176 -241l192 -282h-133l-169 259v-259h-118z" />
    <glyph glyph-name="uni0437" unicode="&#x437;" horiz-adv-x="513" 
d="M453 393v-3q0 -74 -62 -104q-16 -7 -33 -11q106 -18 115 -102q1 -8 1 -15v-3q0 -87 -80 -133q-56 -32 -135 -32q-169 0 -214 125q-9 27 -12 57h111q24 -86 114 -90q90 2 91 74v3q-2 68 -89 69h-72v81h62q77 2 78 65v3q-2 61 -77 62q-76 -2 -94 -73h-110q14 123 129 157
q37 11 80 11q116 0 169 -63q28 -34 28 -78z" />
    <glyph glyph-name="uni0438" unicode="&#x438;" horiz-adv-x="606" 
d="M193 0h-121v523h121v-370l226 370h120v-523h-120v370z" />
    <glyph glyph-name="uni0439" unicode="&#x439;" horiz-adv-x="606" 
d="M303 607q-86 0 -125 69q-17 31 -20 71h91q7 -64 54 -65q48 0 57 60q1 3 1 5h90q-5 -83 -70 -120q-35 -20 -78 -20zM193 0h-121v523h121v-370l226 370h120v-523h-120v370z" />
    <glyph glyph-name="uni043A" unicode="&#x43a;" horiz-adv-x="540" 
d="M389 0l-196 256v-256h-121v523h121v-232l187 232h132l-203 -242l220 -281h-140z" />
    <glyph glyph-name="uni043B" unicode="&#x43b;" horiz-adv-x="572" 
d="M214 210q-15 -156 -76 -198q-30 -20 -72 -20l-44 7v101q4 0 24 -4q42 0 57 90q3 20 5 44q4 39 6.5 112.5t3.5 127.5l1 53h381v-523h-120v433h-155q-4 -149 -11 -223z" />
    <glyph glyph-name="uni043C" unicode="&#x43c;" horiz-adv-x="731" 
d="M335 0l-159 395v-395h-104v523h167l131 -326l132 326h157v-523h-119v395l-165 -395h-40z" />
    <glyph glyph-name="uni043D" unicode="&#x43d;" horiz-adv-x="603" 
d="M410 0v222h-217v-222h-121v523h121v-211h217v211h121v-523h-121z" />
    <glyph glyph-name="uni043E" unicode="&#x43e;" horiz-adv-x="611" 
d="M305 -10q-130 0 -206 89q-62 72 -62 177v8q0 135 95 212q73 58 174 58q129 0 206 -89q62 -73 62 -178v-8q0 -137 -96 -213q-73 -56 -173 -56zM306 84q93 0 128 85q16 39 16 89v7q0 119 -77 159q-30 15 -67 15q-95 0 -130 -85q-15 -39 -15 -88v-8q0 -120 78 -159
q30 -15 67 -15z" />
    <glyph glyph-name="uni043F" unicode="&#x43f;" horiz-adv-x="593" 
d="M400 0v433h-207v-433h-121v523h449v-523h-121z" />
    <glyph glyph-name="uni0440" unicode="&#x440;" horiz-adv-x="633" 
d="M334 86q112 0 133 117q5 25 5 55v8q0 122 -79 160q-27 13 -60 13q-94 0 -129 -84q-15 -39 -15 -89v-8q0 -140 101 -167q21 -5 44 -5zM72 -179v702h121v-84q35 60 107 84q32 11 64 11q117 0 182 -90q50 -71 50 -176v-8q0 -151 -93 -224q-59 -46 -139 -46q-101 0 -156 70
q-9 11 -15 22v-261h-121z" />
    <glyph glyph-name="uni0441" unicode="&#x441;" horiz-adv-x="575" 
d="M301 -10q-133 0 -207 90q-57 71 -57 175v8q0 137 95 214q72 57 169 57q145 0 206 -95q27 -43 33 -101h-117q-16 98 -120 99q-84 0 -121 -75q-21 -41 -21 -97v-8q0 -130 88 -164q26 -10 57 -10q75 0 109 57q14 25 17 55h111q-8 -112 -99 -168q-61 -37 -143 -37z" />
    <glyph glyph-name="uni0442" unicode="&#x442;" horiz-adv-x="485" 
d="M463 523v-90h-160v-433h-121v433h-160v90h441z" />
    <glyph glyph-name="uni0443" unicode="&#x443;" horiz-adv-x="553" 
d="M130 -179l95 232l-207 470h131l139 -337l128 337h118l-285 -702h-119z" />
    <glyph glyph-name="uni0444" unicode="&#x444;" horiz-adv-x="752" 
d="M436 533q147 -7 222 -100q53 -68 53 -165v-8q0 -147 -112 -220q-69 -45 -163 -49v-170h-119v170q-149 7 -224 102q-52 67 -52 163v8q0 148 114 221q69 44 162 48v232h119v-232zM436 444v-365q95 5 133 86q19 40 19 92v7q0 121 -85 163q-30 15 -67 17zM317 80v364
q-96 -4 -134 -85q-19 -40 -19 -92v-8q0 -123 89 -164q29 -13 64 -15z" />
    <glyph glyph-name="uni0445" unicode="&#x445;" horiz-adv-x="556" 
d="M21 0l182 268l-170 255h140l109 -169l108 169h127l-169 -246l187 -277h-141l-122 189l-125 -189h-126z" />
    <glyph glyph-name="uni0446" unicode="&#x446;" horiz-adv-x="613" 
d="M597 -127h-101l-6 127h-418v523h121v-433h207v433h121v-433h76v-217z" />
    <glyph glyph-name="uni0447" unicode="&#x447;" horiz-adv-x="571" 
d="M499 0h-121v232q-54 -58 -152 -59q-116 0 -155 100q-16 42 -16 99v151h120v-138q0 -106 79 -114q8 -1 16 -1q72 1 108 50v203h121v-523z" />
    <glyph glyph-name="uni0448" unicode="&#x448;" horiz-adv-x="825" 
d="M72 0v523h121v-433h159v433h121v-433h159v433h121v-523h-681z" />
    <glyph glyph-name="uni0449" unicode="&#x449;" horiz-adv-x="845" 
d="M829 -127h-101l-6 127h-650v523h121v-433h159v433h121v-433h159v433h121v-433h76v-217z" />
    <glyph glyph-name="uni044A" unicode="&#x44a;" horiz-adv-x="604" 
d="M159 0v433h-137v90h257v-172h94q135 0 181 -87q20 -38 20 -87v-3q0 -123 -112 -160q-41 -14 -92 -14h-211zM279 88h76q87 0 96 68q1 9 1 19v3q-2 84 -97 85h-76v-175z" />
    <glyph glyph-name="uni044B" unicode="&#x44b;" horiz-adv-x="734" 
d="M541 0v523h121v-523h-121zM72 0v523h121v-172h89q135 0 181 -87q20 -38 20 -87v-3q0 -123 -112 -160q-41 -14 -92 -14h-207zM193 88h72q87 0 96 68q1 9 1 19v3q-2 84 -97 85h-72v-175z" />
    <glyph glyph-name="uni044C" unicode="&#x44c;" horiz-adv-x="517" 
d="M72 0v523h121v-172h94q126 0 176 -81q25 -41 25 -96v-3q0 -132 -128 -163q-35 -8 -76 -8h-212zM193 87h76q91 0 97 73v12v3q-2 87 -97 88h-76v-176z" />
    <glyph glyph-name="uni044D" unicode="&#x44d;" horiz-adv-x="575" 
d="M279 -10q-190 0 -234 146q-7 22 -10 47h113q19 -99 127 -100q78 0 116 73q15 30 20 68h-222v83h222q-13 110 -107 127q-16 3 -32 3q-84 0 -115 -71q-7 -15 -10 -32h-113q11 114 108 168q58 32 132 32q139 0 211 -94q53 -69 53 -170v-8q0 -138 -94 -215q-70 -57 -165 -57z
" />
    <glyph glyph-name="uni044E" unicode="&#x44e;" horiz-adv-x="808" 
d="M511 -10q-131 0 -201 94q-39 52 -49 122l-3 16h-65v-222h-121v523h121v-211h67q18 129 118 188q59 34 134 34q131 0 203 -92q56 -72 56 -175v-8q0 -141 -95 -216q-69 -53 -165 -53zM512 84q92 0 123 91q12 37 12 83v7q0 127 -78 163q-26 12 -57 12q-91 0 -122 -90
q-12 -37 -12 -83v-8q0 -129 80 -164q24 -11 54 -11z" />
    <glyph glyph-name="uni044F" unicode="&#x44f;" horiz-adv-x="534" 
d="M347 435h-74q-96 -2 -97 -79v-3q0 -69 73 -77q12 -1 24 -1h74v160zM275 192l-124 -192h-133l143 215q-106 33 -107 139v3q0 114 106 151q43 15 97 15h210v-523h-120v192h-72z" />
    <glyph glyph-name="uni0451" unicode="&#x451;" horiz-adv-x="580" 
d="M196 613q-40 0 -58 35q-8 15 -8 30q0 38 34 57q16 8 32 8q39 0 58 -35q8 -15 8 -30q0 -39 -36 -58q-14 -7 -30 -7zM394 613q-41 0 -59 36q-7 14 -7 29q0 39 35 57q15 8 31 8q39 0 58 -35q8 -15 8 -30q0 -39 -36 -58q-14 -7 -30 -7zM302 -10q-137 0 -210 93
q-55 71 -55 173v8q0 136 93 213q70 57 167 57q131 0 198 -91q49 -68 49 -173v-35h-383q5 -128 104 -151q19 -4 40 -4q105 1 120 80h117q-18 -119 -138 -156q-46 -14 -102 -14zM163 316h261q-10 129 -127 130q-86 0 -121 -81q-9 -23 -13 -49z" />
    <glyph glyph-name="uni0452" unicode="&#x452;" horiz-adv-x="608" 
d="M420 -14v332q0 100 -76 113q-14 2 -28 2q-75 0 -107 -58q-16 -29 -16 -67v-308h-121v604h-68v75h68v86h121v-86h169v-75h-169v-164q34 69 117 88q25 6 52 6q134 0 168 -121q11 -38 11 -85v-327q0 -124 -71 -165q-45 -24 -121 -26v94q58 4 68 50q3 14 3 32z" />
    <glyph glyph-name="uni0453" unicode="&#x453;" horiz-adv-x="445" 
d="M421 433h-228v-433h-121v523h349v-90zM198 601l59 155h134l-104 -155h-89z" />
    <glyph glyph-name="uni0454" unicode="&#x454;" horiz-adv-x="575" 
d="M542 191q-13 -124 -116 -175q-54 -26 -125 -26q-134 0 -207 91q-57 70 -57 175v8q0 136 95 213q72 57 169 57q138 0 201 -88q30 -44 37 -104h-116q-19 94 -120 95q-82 0 -120 -72q-13 -26 -18 -57h220v-83h-221q9 -110 95 -135q22 -7 47 -7q82 0 114 66q8 20 12 42h110z
" />
    <glyph glyph-name="uni0455" unicode="&#x455;" horiz-adv-x="494" 
d="M251 -10q-159 0 -204 105q-13 31 -15 68h114q8 -72 76 -82q13 -2 28 -2q93 1 94 67q0 40 -51 58q-23 7 -61 14q-129 21 -166 72q-23 33 -23 87q0 92 89 134q49 23 107 23q187 -2 205 -158h-112q-13 61 -71 69q-11 1 -22 1q-65 0 -80 -43q-3 -10 -3 -19q0 -35 38 -50
q24 -9 70 -17q123 -19 164 -62q32 -36 32 -98q0 -117 -111 -153q-43 -14 -98 -14z" />
    <glyph glyph-name="uni0456" unicode="&#x456;" horiz-adv-x="271" 
d="M134 609q-44 0 -64 36q-8 16 -8 33q0 43 38 62q16 8 34 8q44 0 64 -37q8 -16 8 -33q0 -42 -38 -61q-17 -8 -34 -8zM75 0v523h121v-523h-121z" />
    <glyph glyph-name="uni0457" unicode="&#x457;" horiz-adv-x="271" 
d="M231 613q-40 0 -58 35q-8 15 -8 30q0 38 34 57q16 8 32 8q39 0 58 -35q8 -15 8 -30q0 -39 -36 -58q-14 -7 -30 -7zM39 613q-40 0 -58 35q-8 15 -8 30q0 38 34 57q16 8 32 8q39 0 58 -35q8 -15 8 -30q0 -39 -36 -58q-14 -7 -30 -7zM75 0v523h121v-523h-121z" />
    <glyph glyph-name="uni0458" unicode="&#x458;" horiz-adv-x="271" 
d="M134 609q-44 0 -64 36q-8 16 -8 33q0 43 38 62q16 8 34 8q44 0 64 -37q8 -16 8 -33q0 -42 -38 -61q-17 -8 -34 -8zM3 -188v93q68 14 72 74v544h121v-541q0 -123 -96 -156q-40 -13 -97 -14z" />
    <glyph glyph-name="uni0459" unicode="&#x459;" horiz-adv-x="804" 
d="M369 0v433h-144q-4 -144 -11 -215q-14 -163 -76 -206q-30 -20 -72 -20l-44 7v101q4 0 24 -4q43 0 57 91q3 21 5 49q11 120 11 287h370v-172h84q134 0 182 -86q20 -38 20 -88v-3q0 -123 -112 -160q-41 -14 -92 -14h-202zM489 88h67q87 0 95 69q1 9 1 18v3q-2 84 -96 85
h-67v-175z" />
    <glyph glyph-name="uni045A" unicode="&#x45a;" horiz-adv-x="835" 
d="M520 88h67q87 0 95 69q1 9 1 18v3q-2 84 -96 85h-67v-175zM400 0v222h-207v-222h-121v523h121v-211h207v211h120v-172h84q134 0 182 -86q20 -38 20 -88v-3q0 -123 -112 -160q-41 -14 -92 -14h-202z" />
    <glyph glyph-name="uni045B" unicode="&#x45b;" horiz-adv-x="608" 
d="M4 604v75h68v86h121v-86h169v-75h-169v-164q34 69 117 88q25 6 52 6q133 0 168 -119q11 -38 11 -86v-329h-121v318q0 100 -76 113q-14 2 -28 2q-77 0 -108 -59q-15 -29 -15 -66v-308h-121v604h-68z" />
    <glyph glyph-name="uni045C" unicode="&#x45c;" horiz-adv-x="540" 
d="M237 601l59 155h134l-104 -155h-89zM389 0l-196 256v-256h-121v523h121v-232l187 232h132l-203 -242l220 -281h-140z" />
    <glyph glyph-name="uni045D" unicode="&#x45d;" horiz-adv-x="612" 
d="M193 0h-121v523h121v-370l226 370h120v-523h-120v370zM271 601l-104 155h134l59 -155h-89z" />
    <glyph glyph-name="uni045E" unicode="&#x45e;" horiz-adv-x="553" 
d="M286 607q-86 0 -125 69q-17 31 -20 71h92q7 -64 53 -65q47 0 58 55q0 6 1 10h89q-5 -83 -70 -120q-35 -20 -78 -20zM130 -179l95 232l-207 470h131l139 -337l128 337h118l-285 -702h-119z" />
    <glyph glyph-name="uni045F" unicode="&#x45f;" horiz-adv-x="593" 
d="M245 0h-173v523h121v-433h207v433h121v-523h-173l-2 -127h-98z" />
    <glyph glyph-name="uni0490" unicode="&#x490;" horiz-adv-x="550" 
d="M517 608h-301v-608h-134v715h315l5 134h115v-241z" />
    <glyph glyph-name="uni0491" unicode="&#x491;" horiz-adv-x="435" 
d="M405 433h-212v-433h-121v523h227l5 134h101v-224z" />
    </font>
</defs>
</svg>
