<svg width="102" height="130" viewBox="0 0 102 130" fill="none" xmlns="http://www.w3.org/2000/svg">
<path d="M23.5992 60.1885L23.5992 60.1885C23.2013 58.6678 21.6452 57.7573 20.1254 58.1552C18.6053 58.5522 17.695 60.1085 18.0929 61.6283C20.1925 69.6557 24.4142 75.2872 27.7769 79.7726L27.7824 79.78C29.1852 81.6516 30.4233 83.3041 31.3131 84.8412C32.2028 86.3783 32.7209 87.762 32.7209 89.0927C32.7209 90.2923 32.7715 91.4634 32.8701 92.582V113.679C32.8701 113.761 32.876 113.839 32.8808 113.903L32.8814 113.911L32.8814 113.912C32.8816 113.915 32.8818 113.923 32.8822 113.931C32.8826 113.939 32.8833 113.949 32.8847 113.961C32.8937 114.055 32.9077 114.144 32.9247 114.231V114.235L32.9324 114.271C33.8153 118.413 36.0754 122.179 39.3007 124.877C42.5884 127.628 46.7432 129.143 50.9998 129.143C55.2565 129.143 59.4103 127.628 62.699 124.877L62.4987 124.637L62.699 124.877C65.9198 122.182 68.1795 118.421 69.0635 114.285C69.0647 114.28 69.0658 114.276 69.0669 114.271C69.0675 114.268 69.068 114.265 69.0686 114.262C69.0892 114.163 69.1043 114.063 69.115 113.961L69.1158 113.954L69.1162 113.946C69.1171 113.932 69.1175 113.918 69.1177 113.911L69.1182 113.899L69.1182 113.899L69.1184 113.895C69.1231 113.833 69.1286 113.757 69.1286 113.678V92.5819C69.2271 91.4636 69.2788 90.2925 69.2788 89.0927C69.2788 87.762 69.7969 86.3783 70.6866 84.8412C71.5764 83.3041 72.8144 81.6516 74.2173 79.7799L74.2248 79.77C78.8474 73.6032 85.2295 65.0893 85.2295 51.0001C85.2295 32.1252 69.8738 16.7705 50.9998 16.7705C36.2008 16.7705 23.1386 26.2055 18.4951 40.2483C18.0014 41.7404 18.812 43.35 20.3037 43.8436L20.4137 43.5113L20.3038 43.8436C21.7965 44.3371 23.4064 43.528 23.8991 42.0349C27.7701 30.3274 38.6602 22.4624 50.9998 22.4624C66.7348 22.4624 79.5376 35.2642 79.5376 51.0001C79.5376 63.1881 74.0882 70.4629 69.6627 76.3669C69.6627 76.3669 69.6627 76.3669 69.6627 76.3669L69.6203 76.4235C66.4335 80.6734 63.5859 84.471 63.5859 89.0927C63.5859 89.2707 63.5845 89.4477 63.5818 89.6241H53.8458V84.2402C53.8458 82.6683 52.5718 81.3942 50.9998 81.3942C49.4279 81.3942 48.1539 82.6683 48.1539 84.2402V89.6241H38.4168C38.4142 89.4477 38.4128 89.2707 38.4128 89.0927C38.4128 84.4718 35.5674 80.6764 32.3821 76.4275L32.336 76.3659C29.0715 72.0111 25.4139 67.1259 23.5992 60.1885ZM50.9998 123.451C46.2556 123.451 41.9497 120.689 39.7473 116.524H62.2522C60.049 120.69 55.7431 123.451 50.9998 123.451ZM63.4377 110.832H38.562V105.92H63.4377V110.832ZM63.4377 100.228H38.562V95.316H63.4377V100.228Z" fill="black" stroke="black" stroke-width="0.7"/>
<path d="M50.9999 12.9923C52.5718 12.9923 53.8458 11.7182 53.8458 10.1463V3.49595C53.8458 1.92403 52.5718 0.65 50.9999 0.65C49.4279 0.65 48.1539 1.92403 48.1539 3.49595V10.1463C48.1539 11.7182 49.4279 12.9923 50.9999 12.9923Z" fill="black" stroke="black" stroke-width="0.7"/>
<path d="M3.49595 53.8459H10.1463C11.7182 53.8459 12.9923 52.5719 12.9923 51C12.9923 49.4281 11.7182 48.154 10.1463 48.154H3.49595C1.92403 48.154 0.65 49.4281 0.65 51C0.65 52.5719 1.92403 53.8459 3.49595 53.8459Z" fill="black" stroke="black" stroke-width="0.7"/>
<path d="M62.7778 56.0426C62.7778 54.4707 61.5038 53.1966 59.9318 53.1966H42.0682C40.4963 53.1966 39.2223 54.4707 39.2223 56.0426C39.2223 57.6145 40.4963 58.8885 42.0682 58.8885H48.1541V64.2724C48.1541 65.8443 49.4281 67.1184 51 67.1184C52.572 67.1184 53.846 65.8443 53.846 64.2724V58.8885H59.9318C61.5038 58.8885 62.7778 57.6145 62.7778 56.0426Z" fill="black" stroke="black" stroke-width="0.7"/>
<path d="M15.397 19.4221L15.3971 19.4222L20.1004 24.1246C20.1004 24.1246 20.1004 24.1246 20.1004 24.1246C20.6561 24.6803 21.3849 24.9583 22.1126 24.9583C22.8403 24.9583 23.5691 24.6803 24.1248 24.1246C25.2364 23.013 25.2366 21.2108 24.1247 20.1L19.4225 15.3978C18.3108 14.2861 16.5087 14.2861 15.3971 15.3978C14.2863 16.5086 14.2865 18.3105 15.397 19.4221Z" fill="black" stroke="black" stroke-width="0.7"/>
<path d="M13.6744 84.2997L13.6743 84.2999C12.5638 85.4114 12.5637 87.2134 13.6744 88.3241C14.2302 88.8799 14.959 89.1579 15.6876 89.1579C16.4153 89.1579 17.1441 88.8799 17.6998 88.3241L22.4021 83.6218C23.5138 82.5101 23.5138 80.7091 22.4021 79.5974C21.2906 78.4858 19.4886 78.4856 18.3778 79.5974C18.3777 79.5974 18.3777 79.5975 18.3776 79.5975L13.6744 84.2997Z" fill="black" stroke="black" stroke-width="0.7"/>
<path d="M82.5779 15.3966L82.5778 15.3967L77.8755 20.0991C76.7638 21.2107 76.7638 23.0127 77.8744 24.1243L77.8745 24.1244C78.4303 24.6803 79.1601 24.9582 79.8877 24.9582C80.6154 24.9582 81.3442 24.6802 81.8999 24.1244L86.6022 19.4221C87.7139 18.3104 87.7139 16.5084 86.6022 15.3967C85.4913 14.2848 83.6893 14.2863 82.5779 15.3966Z" fill="black" stroke="black" stroke-width="0.7"/>
<path d="M79.597 83.6218C78.4855 82.5103 78.4853 80.7082 79.597 79.5974C80.7078 78.4856 82.5099 78.4858 83.6214 79.5974L88.3238 84.2997C89.4353 85.4113 89.4356 87.2133 88.3238 88.3241L79.597 83.6218ZM79.597 83.6218L84.2994 88.3241C84.8551 88.8799 85.5839 89.1579 86.3116 89.1579C87.0392 89.1579 87.768 88.8799 88.3237 88.3243L79.597 83.6218Z" fill="black" stroke="black" stroke-width="0.7"/>
<path d="M91.8544 53.8459H98.5047C100.077 53.8459 101.351 52.5719 101.351 51C101.351 49.4281 100.077 48.154 98.5047 48.154H91.8544C90.2824 48.154 89.0084 49.4281 89.0084 51C89.0084 52.5719 90.2824 53.8459 91.8544 53.8459Z" fill="black" stroke="black" stroke-width="0.7"/>
<path d="M50.9999 71.4103C49.4318 71.4103 48.1539 72.6882 48.1539 74.2562C48.1539 75.8242 49.4318 77.1022 50.9999 77.1022C52.5679 77.1022 53.8458 75.8242 53.8458 74.2562C53.8458 72.6882 52.5679 71.4103 50.9999 71.4103Z" fill="black" stroke="black" stroke-width="0.7"/>
<path d="M22.462 51C22.462 49.432 21.1841 48.154 19.6161 48.154C18.047 48.154 16.7701 49.432 16.7701 51C16.7701 52.5679 18.047 53.8459 19.6161 53.8459C21.1841 53.8459 22.462 52.568 22.462 51Z" fill="black" stroke="black" stroke-width="0.7"/>
</svg>
