<svg width="113" height="113" viewBox="0 0 113 113" fill="none" xmlns="http://www.w3.org/2000/svg">
<path d="M112.542 109.448L100.638 93.9626C100.268 93.4789 99.7134 93.1712 99.1065 93.1108C91.031 92.3099 86.7195 90.5952 83.2538 89.2166C80.1881 87.9976 77.0189 86.7372 72.9291 86.7372C66.6994 86.7372 61.937 90.0589 58.7067 93.8238V93.7419C60.5059 89.5934 65.3019 83.0473 72.7523 83.0473C75.9577 83.0473 78.4535 84.0405 81.3459 85.1905C83.759 86.1501 86.7626 87.345 91.1534 88.2674C92.3466 88.5183 93.5165 87.7545 93.7673 86.5613C94.0174 85.369 93.2535 84.1982 92.0612 83.9482C88.0411 83.1033 85.3513 82.0334 82.9762 81.0886C79.9415 79.8816 76.8034 78.6332 72.7523 78.6332C64.9958 78.6332 59.5369 83.831 56.4996 88.5649C53.4624 83.831 48.0035 78.6332 40.2461 78.6332C36.1959 78.6332 33.0569 79.8816 30.0214 81.0894C26.5962 82.4516 22.333 84.1474 14.348 84.9388C13.135 85.0595 12.2496 86.1397 12.3695 87.3527C12.4902 88.5657 13.5713 89.4511 14.7843 89.3313C23.3865 88.4778 28.1644 86.5777 31.6534 85.1905C34.544 84.0405 37.0407 83.0473 40.2461 83.0473C47.6974 83.0473 52.4942 89.5942 54.2926 93.7428V93.8238C51.0614 90.0589 46.2999 86.7363 40.0694 86.7363C35.9803 86.7363 32.8103 87.9976 29.7429 89.2175C26.2789 90.5952 21.9683 92.3099 13.892 93.1108C13.2859 93.1712 12.7315 93.4789 12.36 93.9626L0.457552 109.448C-0.0554097 110.114 -0.144208 111.014 0.227366 111.769C0.598939 112.522 1.36623 113 2.20679 113H110.792C111.633 113 112.4 112.522 112.772 111.769C113.143 111.014 113.055 110.114 112.542 109.448V109.448ZM72.9291 91.1504C76.1732 91.1504 78.6984 92.1547 81.6244 93.3186C85.0177 94.6687 89.6188 96.4981 97.7159 97.4025L106.289 108.556C91.5388 108.238 84.5384 105.453 79.8131 103.574C77.0707 102.483 75.2594 101.762 72.9291 101.762C68.8504 101.762 66.0545 104.824 64.8958 107.453C64.8855 107.474 64.8751 107.494 64.8648 107.516L64.3622 108.586H58.7067V101.981C60.5257 97.7826 65.3821 91.1504 72.9291 91.1504V91.1504ZM15.2834 97.4025C23.3805 96.4981 27.9807 94.6678 31.3766 93.3177C34.3001 92.1547 36.8261 91.1504 40.0694 91.1504C47.6164 91.1504 52.4735 97.7826 54.2926 101.981V108.586H48.6362L48.1345 107.516C48.1241 107.494 48.1138 107.474 48.1035 107.453C46.9439 104.824 44.1489 101.762 40.0702 101.762C37.7399 101.762 35.9286 102.483 33.1862 103.574C28.4609 105.453 21.4596 108.238 6.71051 108.556L15.2834 97.4025ZM34.8182 107.675C37.2476 106.708 38.5857 106.176 40.0694 106.176C41.9738 106.176 43.1695 107.675 43.7213 108.586H32.4827C33.3224 108.269 34.0949 107.963 34.8182 107.675V107.675ZM69.278 108.586C69.8297 107.675 71.0255 106.176 72.9291 106.176C74.4136 106.176 75.7516 106.708 78.1819 107.675C78.9044 107.963 79.6777 108.269 80.5166 108.586H69.278Z" fill="black"/>
<path d="M98.1377 89.3235L98.2179 89.3313C98.2912 89.3382 98.3645 89.3425 98.436 89.3425C99.5585 89.3425 100.518 88.4907 100.63 87.351C100.749 86.138 99.8629 85.0578 98.6499 84.9388L98.5714 84.931C97.3584 84.8103 96.2781 85.6975 96.1583 86.9105C96.0385 88.1235 96.9247 89.2037 98.1377 89.3235V89.3235Z" fill="black"/>
<path d="M49.0498 54.3016C48.4765 54.3507 47.9412 54.6223 47.5636 55.0628C47.1437 55.5517 46.9592 56.1991 47.0566 56.8354C47.9713 62.7935 51.1422 66.8644 55.7718 68.2602C55.6658 69.0947 55.5675 69.9301 55.4795 70.7681L54.3045 81.9748C54.1777 83.187 55.0571 84.2732 56.2693 84.4C56.3477 84.4086 56.4253 84.412 56.502 84.412C57.6176 84.412 58.5754 83.5698 58.6944 82.4352L59.8695 71.2285C59.9548 70.4138 60.0505 69.6025 60.1522 68.793C70.4184 68.6663 76.686 62.1202 79.8233 48.2788C80.1724 46.7391 80.5957 44.9458 81.0828 42.9483C81.2371 42.3155 81.1044 41.6474 80.719 41.1215C80.5759 40.9266 80.4035 40.7585 80.2104 40.6223L81.0785 40.1257C81.6001 39.8283 81.9777 39.33 82.1234 38.7472C85.9797 23.4014 91.6248 3.00105 91.6817 2.79673C91.8723 2.11048 91.7197 1.37509 91.2722 0.821612C90.8256 0.267268 90.136 -0.0387855 89.4282 0.00432051C88.6807 0.0465646 70.9503 1.32768 56.3762 25.0386C56.1951 25.3326 56.0192 25.624 55.8451 25.9162C55.577 26.3628 55.4761 26.8904 55.5589 27.4043L56.6641 34.209H52.9165C52.0319 34.209 51.2336 34.7366 50.8862 35.5496C48.5231 41.087 47.1653 46.2847 46.8497 51.0005C46.8075 51.6273 47.0351 52.2428 47.4748 52.692L49.0498 54.3016ZM78.0723 36.76L72.178 40.1283C71.3331 40.6111 70.9038 41.5905 71.1219 42.5388C71.34 43.4871 72.1538 44.1811 73.1246 44.2467L76.1808 44.4519C75.9377 45.4761 75.7161 46.4287 75.5178 47.3029C72.3323 61.3589 66.4492 64.1341 60.7988 64.3686C64.037 44.8424 72.2314 26.7094 84.7692 11.3438C82.8433 18.4477 80.2147 28.2776 78.0723 36.76V36.76ZM54.3916 38.6239H59.2582C59.9048 38.6239 60.5195 38.3394 60.9394 37.8463C61.3584 37.3531 61.5403 36.7014 61.4368 36.0625L60.0462 27.4974C60.0755 27.4482 60.1057 27.4 60.1359 27.3508C67.094 16.0303 74.7652 10.3963 79.975 7.66341C81.2087 7.01595 82.3657 6.49782 83.4218 6.08055C75.8273 14.8983 69.5959 24.755 64.8905 35.4116C60.8738 44.507 58.0357 54.0317 56.4193 63.8099C54.0157 62.8254 52.7268 60.7184 52.0354 58.707H54.2924C55.1813 58.707 55.983 58.1742 56.327 57.3552C56.671 56.5371 56.4908 55.5913 55.8692 54.9559L51.3345 50.3246C51.6914 46.7382 52.7173 42.8121 54.3916 38.6239V38.6239Z" fill="black"/>
</svg>
