<svg width="45" height="45" viewBox="0 0 45 45" fill="none" xmlns="http://www.w3.org/2000/svg">
<g clip-path="url(#clip0)">
<path d="M22.4993 8.77708e-07C10.093 8.77708e-07 -0.000148253 10.0936 -0.000148253 22.5001C-0.000148253 34.9064 10.093 45 22.4993 45C34.9056 45 44.999 34.9064 44.999 22.5001C44.999 10.0936 34.9056 8.77708e-07 22.4993 8.77708e-07ZM22.4993 41.9199C11.7914 41.9199 3.07992 33.2083 3.07972 22.5001C3.07972 11.7919 11.7912 3.08027 22.4993 3.08007C33.2073 3.08027 41.9188 11.7919 41.9188 22.5003C41.9188 33.2081 33.2073 41.9199 22.4993 41.9199Z" fill="#002063"/>
<path d="M25.5216 12.8632C24.9201 12.262 23.945 12.2622 23.3438 12.8632C22.7421 13.4648 22.7421 14.4398 23.344 15.0414L29.2618 20.959L12.1249 20.9607C11.2744 20.9609 10.5851 21.6502 10.5851 22.5011C10.5853 23.3516 11.2746 24.0408 12.1251 24.0408L29.2626 24.0391L23.3434 29.958C22.7419 30.5594 22.7419 31.5348 23.3434 32.136C23.6442 32.4366 24.0382 32.5871 24.4325 32.5871C24.8265 32.5871 25.2205 32.4366 25.5214 32.1362L34.0694 23.5884C34.3583 23.2997 34.5205 22.9081 34.5205 22.4995C34.5203 22.0909 34.3581 21.6995 34.0692 21.4102L25.5216 12.8632Z" fill="#002063"/>
</g>
<defs>
<clipPath id="clip0">
<rect x="45" y="45" width="45" height="45" transform="rotate(180 45 45)" fill="white"/>
</clipPath>
</defs>
</svg>
