<svg width="45" height="45" viewBox="0 0 45 45" fill="none" xmlns="http://www.w3.org/2000/svg">
<g clip-path="url(#clip0)">
<path d="M22.5007 8.77708e-07C34.907 8.77708e-07 45.0001 10.0936 45.0001 22.5001C45.0001 34.9064 34.907 45 22.5007 45C10.0944 45 0.000976562 34.9064 0.000976562 22.5001C0.000976562 10.0936 10.0944 8.77708e-07 22.5007 8.77708e-07ZM22.5007 41.9199C33.2086 41.9199 41.9201 33.2083 41.9203 22.5001C41.9203 11.7919 33.2088 3.08027 22.5007 3.08007C11.7927 3.08027 3.08125 11.7919 3.08125 22.5003C3.08125 33.2081 11.7927 41.9199 22.5007 41.9199Z" fill="#002063"/>
<path d="M19.4784 12.8632C20.0799 12.262 21.055 12.2622 21.6562 12.8632C22.2579 13.4648 22.2579 14.4398 21.656 15.0414L15.7382 20.959L32.8751 20.9607C33.7256 20.9609 34.4149 21.6502 34.4149 22.5011C34.4147 23.3516 33.7254 24.0408 32.8749 24.0408L15.7374 24.0391L21.6566 29.958C22.2581 30.5594 22.2581 31.5348 21.6566 32.136C21.3558 32.4366 20.9618 32.5871 20.5675 32.5871C20.1735 32.5871 19.7795 32.4366 19.4786 32.1362L10.9306 23.5884C10.6417 23.2997 10.4795 22.9081 10.4795 22.4995C10.4797 22.0909 10.6419 21.6995 10.9308 21.4102L19.4784 12.8632Z" fill="#002063"/>
</g>
<defs>
<clipPath id="clip0">
<rect width="45" height="45" transform="matrix(1 0 0 -1 0 45)" fill="white"/>
</clipPath>
</defs>
</svg>
