<svg width="102" height="92" viewBox="0 0 102 92" fill="none" xmlns="http://www.w3.org/2000/svg">
<path d="M36.4168 21.625V7.87497V21.625ZM36.4168 21.625C36.4236 25.3041 39.4045 28.2847 43.0834 28.2916L36.4168 21.625ZM94.3338 65.5916H94.3334H90.7834V51.9957C90.7834 45.9007 84.9753 40.5916 78.3812 40.5916H53.2834V28.4916L58.9168 28.4916L58.9172 28.4916C62.7064 28.4845 65.7764 25.4144 65.7834 21.6253V21.625V7.87497V7.8746C65.7764 4.08533 62.7062 1.01541 58.9172 1.00837H58.9168L43.0834 1.00837L43.083 1.00837C39.2938 1.01541 36.2238 4.08553 36.2168 7.8746V7.87497V21.625V21.6253C36.2238 25.4146 39.294 28.4845 43.083 28.4916H43.0834H48.7168V40.5916H23.6187C17.0247 40.5916 11.2166 45.9007 11.2166 51.9957V65.5916H7.6666H7.66622C3.87716 65.5988 0.807041 68.6687 0.8 72.458V72.4584L0.8 84.125L0.8 84.1253C0.807041 87.9146 3.87716 90.9845 7.66623 90.9916H7.6666H19.3332L19.3336 90.9916C23.1228 90.9845 26.1928 87.9144 26.1998 84.1253V84.125V72.4584V72.458C26.1928 68.6687 23.1226 65.5988 19.3336 65.5918H19.3332H15.7832V51.9959C15.7832 50.0556 16.8043 48.3489 18.3049 47.121C19.8064 45.8923 21.7712 45.1584 23.6186 45.1584H48.7164V65.5918H45.1664H45.166C41.3768 65.5988 38.3068 68.6689 38.2998 72.458V72.4584V84.125V84.1253C38.3068 87.9146 41.377 90.9845 45.166 90.9916H45.1664H56.833L56.8334 90.9916C60.6227 90.9845 63.6926 87.9144 63.6996 84.1253V84.125V72.4584V72.458C63.6926 68.6687 60.6224 65.5988 56.8334 65.5918H56.833H53.283V45.1584H78.3809C80.2282 45.1584 82.193 45.8923 83.6945 47.121C85.1951 48.3489 86.2162 50.0556 86.2162 51.9959V65.5918H82.6662H82.6658C78.8766 65.5988 75.8066 68.6689 75.7996 72.458V72.4584V84.125V84.1253C75.8066 87.9146 78.8768 90.9845 82.6658 90.9916H82.6662H94.3328L94.3332 90.9916C98.1225 90.9845 101.192 87.9144 101.199 84.1253V84.125V72.4584V72.458C101.193 68.6687 98.1228 65.5988 94.3338 65.5916ZM19.3334 70.1584C20.6036 70.1584 21.6334 71.1882 21.6334 72.4584V84.125C21.6334 85.3952 20.6036 86.425 19.3334 86.425H7.6666C6.39639 86.425 5.3666 85.3952 5.3666 84.125V72.4584C5.3666 71.1882 6.39639 70.1584 7.6666 70.1584H19.3334ZM56.8334 70.1584C58.1036 70.1584 59.1334 71.1882 59.1334 72.4584V84.125C59.1334 85.3952 58.1036 86.425 56.8334 86.425H45.1668C43.8966 86.425 42.8668 85.3952 42.8668 84.125V72.4584C42.8668 71.1882 43.8966 70.1584 45.1668 70.1584H56.8334ZM43.0834 23.925C41.8132 23.925 40.7834 22.8952 40.7834 21.625V7.87497C40.7834 6.60477 41.8132 5.57498 43.0834 5.57498H58.9168C60.187 5.57498 61.2168 6.60477 61.2168 7.87497V21.625C61.2168 22.8952 60.187 23.925 58.9168 23.925H43.0834ZM96.6334 84.125C96.6334 85.3952 95.6036 86.425 94.3334 86.425H82.6668C81.3966 86.425 80.3668 85.3952 80.3668 84.125V72.4584C80.3668 71.1882 81.3966 70.1584 82.6668 70.1584H94.3334C95.6036 70.1584 96.6334 71.1882 96.6334 72.4584V84.125Z" fill="black" stroke="black" stroke-width="0.4"/>
</svg>
